<svg width="681" height="604" viewBox="0 0 681 604" fill="none" xmlns="http://www.w3.org/2000/svg">
<path d="M72.4362 203.37C83.4459 205.158 82.7976 206.958 84.2125 207.146C85.8885 207.371 105.763 197.376 105.763 197.376C105.763 197.376 164.543 168.328 167.658 166.645L210.087 113.202L242.785 128.3C242.785 128.3 195.068 185.12 192.051 187.627C189.029 190.129 104.748 219.721 97.4202 222.575C97.4202 222.575 90.0314 229.336 85.2482 233.423C80.4651 237.505 74.0714 239.126 72.5463 240.057C72.322 240.196 67.0455 242.98 59.5956 244.605C53.1732 246.006 58.5231 241.637 58.5231 241.637C58.5231 241.637 69.8876 236.836 69.3249 235.966C68.8968 235.297 62.8536 238.301 55.7666 239.926C53.9439 240.343 52.1456 240.751 50.486 241.106C46.1351 242.049 44.2227 239.555 48.5939 237.82C50.1394 237.207 52.7287 236.252 54.6779 235.848C56.786 235.407 58.5558 234.3 60.2602 233.651C63.6447 232.361 66.1321 231.463 66.0016 231.349C65.8263 231.197 66.3033 230.446 64.3542 230.83C62.0095 231.287 57.2794 233.402 53.7726 233.798C51.7827 234.023 47.6643 234.754 47.6643 234.754C47.6643 234.754 40.3734 235.452 40.3203 234.427C40.2102 232.19 44.6998 230.94 47.4604 230.997C49.1975 230.111 53.5606 229.466 53.5606 229.466C53.5606 229.466 62.0177 226.123 61.5284 224.869C61.3327 224.367 56.2111 225.139 50.7796 225.51C45.0382 225.906 40.8749 225.902 40.5691 224.792C40.0838 223.024 44.6549 222.354 44.6549 222.354C44.6549 222.354 48.6878 221.766 50.0048 221.464C51.5544 221.113 56.0928 219.688 56.0928 219.688C56.0928 219.688 71.6492 213.968 71.0865 212.817C70.5237 211.666 67.9548 209.261 66.8579 209.269C65.761 209.277 63.7997 210.371 62.7028 210.376C61.6059 210.384 59.2449 210.171 59.0818 208.787C58.9187 207.407 65.0066 204.541 65.0066 204.541C65.0066 204.541 69.2556 202.855 72.4321 203.37H72.4362Z" fill="white"/>
<path d="M195.842 158.691L195.842 158.691C193.663 157.123 189.934 153.941 186.734 151.135C185.137 149.735 183.678 148.434 182.617 147.483C182.087 147.007 181.657 146.619 181.359 146.35C181.297 146.294 181.241 146.243 181.191 146.198C181.219 146.149 181.249 146.096 181.283 146.038C181.475 145.704 181.761 145.212 182.135 144.58C182.883 143.318 183.982 141.499 185.388 139.277C188.199 134.832 192.233 128.774 197.122 122.324C206.916 109.403 220.083 94.9879 233.69 88.7359C241.443 85.1733 249.869 86.267 256.056 88.1163C256.065 88.1332 256.077 88.1614 256.092 88.2059C256.142 88.3585 256.179 88.6084 256.187 88.9731C256.203 89.6956 256.1 90.7402 255.879 92.0597C255.438 94.6905 254.544 98.3245 253.284 102.466C250.763 110.749 246.793 121.003 242.111 129.237C238.238 136.048 231.869 146.25 226.463 154.757C223.761 159.009 221.301 162.834 219.517 165.597C218.625 166.979 217.902 168.094 217.402 168.864C217.176 169.213 216.995 169.491 216.865 169.69C216.759 169.639 216.633 169.578 216.489 169.508C215.994 169.268 215.284 168.921 214.42 168.498C212.692 167.651 210.35 166.494 207.894 165.255C202.96 162.767 197.631 159.979 195.842 158.691ZM256.042 88.0945C256.042 88.0944 256.043 88.0954 256.045 88.0981C256.043 88.096 256.042 88.0946 256.042 88.0945Z" fill="#FFE712" stroke="#333333" stroke-width="0.999999"/>
<path d="M82.7156 217.586C78.0059 218.329 73.1861 217.435 71.1024 213.115C70.6334 218.235 78.3851 220.778 82.7156 217.586Z" fill="white"/>
<path d="M354.297 563.797C354.297 563.797 355.471 584.627 355.48 584.668C355.912 587.314 357.608 593.846 357.608 596.251C357.608 605.282 317.59 588.583 326.561 584.582C327.372 584.219 331.625 581.479 331.89 578.405C332.302 573.669 333.346 564.087 333.346 564.087L354.297 563.793V563.797Z" fill="white"/>
<path d="M326.177 584.672C326.177 584.672 335.572 587.436 340.384 588.126C345.196 588.816 351.541 583.002 354.945 584.574C358.693 586.301 358.546 601.864 358.546 601.864C358.546 601.864 308.162 606.294 293.996 601.713C288.385 599.897 306.976 591.11 326.181 584.676L326.177 584.672Z" fill="#FFE712"/>
<path d="M420.938 564.414C420.938 564.414 422.112 585.244 422.12 585.284C422.552 587.93 424.253 594.462 424.253 596.867C424.253 605.898 384.234 589.2 393.205 585.199C394.017 584.835 399.53 580.05 399.799 576.976C400.211 572.24 399.99 564.703 399.99 564.703L420.942 564.414H420.938Z" fill="white"/>
<path d="M393.301 585.109C393.301 585.109 402.696 587.873 407.508 588.563C412.32 589.253 418.665 583.439 422.065 585.007C425.813 586.738 425.96 602.297 425.96 602.297C425.96 602.297 375.935 604.355 361.112 602.146C355.281 601.276 374.091 591.543 393.297 585.109H393.301Z" fill="#FFE712"/>
<path d="M409.069 231.389C409.069 231.389 415.85 266.525 413.086 293.165C410.321 319.805 410.105 414.443 410.105 414.443L422.852 565.814L395.625 566.451C395.625 566.451 365.952 415.104 366.502 418.987C367.057 422.873 356.553 312.423 356.553 312.423L391.927 228.058L409.061 231.389H409.069Z" fill="#333333"/>
<path d="M399.579 208.698C399.579 208.698 430.301 241.098 418.875 276.491C414.283 290.707 371.464 426.511 370.913 437.612C370.359 448.713 356.433 571.407 356.433 571.407L327.335 570.53L321.039 434.117L329.353 250.321L347.014 219.325L399.575 208.702L399.579 208.698Z" fill="#333333"/>
<path d="M245.009 76.0048C245.334 76.3848 245.334 76.3848 245.334 76.3847L245.334 76.3843L245.336 76.3829L245.343 76.377L245.371 76.3533L245.48 76.2603C245.576 76.1787 245.719 76.0584 245.901 75.9046C246.267 75.597 246.796 75.1553 247.448 74.6194C248.751 73.5473 250.543 72.0993 252.5 70.5945C254.459 69.089 256.577 67.5304 258.534 66.2354C260.502 64.9332 262.269 63.9231 263.534 63.4861C264.011 63.3214 264.505 63.1417 265.017 62.9556C268.76 61.5946 273.444 59.8916 279.236 61.2111C285.809 62.7086 293.915 68.1408 303.579 82.8041C310.535 93.3604 335.913 125.901 361.334 156.248C374.048 171.425 386.782 186.065 397.239 197.142C402.467 202.68 407.132 207.334 410.945 210.722C412.851 212.416 414.551 213.8 416.007 214.82C416.938 215.473 417.787 215.99 418.538 216.343L326.348 260.504C325.499 255.144 322.142 248.758 317.519 242.093C312.684 235.124 306.418 227.783 300.033 220.889C293.648 213.993 287.135 207.534 281.805 202.329C280.575 201.128 279.41 199.995 278.324 198.94C274.692 195.41 271.954 192.748 270.682 191.305C263.225 182.85 246.542 163.424 232.916 144.788C226.101 135.468 220.065 126.363 216.328 118.937C214.458 115.221 213.179 111.953 212.656 109.303C212.129 106.632 212.396 104.723 213.425 103.574L213.552 103.432V103.428C218.559 97.8689 226.442 91.152 233.116 85.7957C236.477 83.0978 239.525 80.7505 241.732 79.0776C242.836 78.2413 243.729 77.5737 244.346 77.1153C244.655 76.8861 244.895 76.7092 245.057 76.5898L245.241 76.4542L245.288 76.4199L245.3 76.4113L245.303 76.4092L245.304 76.4087C245.304 76.4086 245.304 76.4085 245.009 76.0048ZM245.009 76.0048L245.304 76.4085L245.319 76.3972L245.334 76.3848L245.009 76.0048Z" fill="#FFE712" stroke="#333333" stroke-width="0.999999"/>
<path d="M217.428 57.5549L246.669 74.6942C246.669 74.6942 247.493 99.6846 237.931 106.176C229.91 111.623 223.805 98.5496 223.805 98.5496C223.805 98.5496 212.93 83.4639 204.673 78.7647C196.416 74.0655 217.424 57.5549 217.424 57.5549H217.428Z" fill="white"/>
<path d="M222.332 68.5538C221.231 73.7675 218.686 81.3042 214.743 87.514C211.522 84.0233 207.901 80.602 204.675 78.7647C200.862 76.5968 203.289 71.9139 207.004 67.4964C212.247 62.0255 217.426 57.5549 217.426 57.5549L223.045 60.8497C223.408 62.985 222.699 66.8186 222.332 68.5538Z" fill="white"/>
<path d="M202.197 14.6046C202.686 13.9963 226.724 43.9513 223.76 58.004C220.795 72.0568 206.267 84.8765 196.166 81.3531C184.997 77.4541 164.226 42.1875 171.676 25.0645C179.126 7.94158 202.197 14.6046 202.197 14.6046Z" fill="white"/>
<path d="M175.879 5.15304C186.358 -0.681184 203.448 -2.35919 216.219 4.33649C231.922 12.5673 235.499 33.279 230.581 45.9109C225.663 58.5429 231.294 65.6836 231.294 65.6836L222.964 60.8129C222.964 60.8129 218.099 53.2108 217.463 47.1521C216.827 41.0933 207.999 42.163 203.689 39.4153C200.369 37.3005 196.133 30.421 190.766 26.8527C190.766 26.8527 177.245 25.1911 170.598 28.9268C159.262 35.2958 160.873 13.5104 175.883 5.14895L175.879 5.15304Z" fill="#333333"/>
<path d="M210.447 44.4657C210.37 48.9608 212.49 52.6393 215.186 52.6842C217.881 52.7291 220.128 49.12 220.205 44.629C220.283 40.1339 218.162 36.4554 215.467 36.4104C212.772 36.3655 210.525 39.9747 210.447 44.4657Z" fill="white"/>
<path d="M45.0788 232.868H3.99615C2.06651 232.868 0.499999 231.3 0.499999 229.371C0.499999 227.438 2.06684 225.87 3.99615 225.87H45.0788C47.0074 225.87 48.5708 227.437 48.5708 229.371C48.5708 231.304 47.0081 232.868 45.0788 232.868Z" fill="#FFE712" stroke="#333333" stroke-width="0.999999"/>
<path d="M45.0788 277.345H3.99615C2.06618 277.345 0.499999 275.781 0.499999 273.848C0.499999 271.915 2.06618 270.351 3.99615 270.351H45.0788C47.0078 270.351 48.5708 271.919 48.5708 273.848C48.5708 275.781 47.0081 277.345 45.0788 277.345Z" fill="#FFE712" stroke="#333333" stroke-width="0.999999"/>
<path d="M153.5 255.5V247.5H683.5V255.5H153.5Z" fill="#FFE712" stroke="#12120F"/>
<path d="M152.195 257.766L110.953 261.559V241.37L152.195 245.163C153.169 245.253 153.916 246.069 153.916 247.049V255.88C153.916 256.86 153.169 257.676 152.195 257.766Z" fill="#FFE712"/>
<path d="M144.561 258.468V244.456L148.749 244.844V258.08L144.561 258.468Z" fill="#FFE712"/>
<path d="M135.109 243.587L139.301 243.975V258.95L135.109 259.334V243.587Z" fill="#FFE712"/>
<path d="M125.661 242.721L129.849 243.105V259.82L125.661 260.203V242.721Z" fill="#FFE712"/>
<path d="M116.213 241.852L120.401 242.235V260.689L116.213 261.073V241.852Z" fill="#FFE712"/>
<path d="M152.195 257.766L110.953 261.559V241.37L152.195 245.163C153.169 245.253 153.916 246.069 153.916 247.049V255.88C153.916 256.86 153.169 257.676 152.195 257.766Z" stroke="#333333" stroke-width="0.999999"/>
<path d="M144.561 258.468V244.456L148.749 244.844V258.08L144.561 258.468Z" stroke="#333333" stroke-width="0.999999"/>
<path d="M135.109 243.587L139.301 243.975V258.95L135.109 259.334V243.587Z" stroke="#333333" stroke-width="0.999999"/>
<path d="M125.661 242.721L129.849 243.105V259.82L125.661 260.203V242.721Z" stroke="#333333" stroke-width="0.999999"/>
<path d="M116.213 241.852L120.401 242.235V260.689L116.213 261.073V241.852Z" stroke="#333333" stroke-width="0.999999"/>
<path d="M51.0387 287.893H82.6V215.322H51.0387V287.893Z" fill="#FFE712"/>
<path d="M82.6 287.893L110.952 261.849V241.366L82.6 215.322V287.893Z" fill="#FFE712"/>
<path d="M45.6318 290.983L51.0387 287.893V215.322L45.6318 212.231V290.983Z" fill="#FFE712"/>
<path d="M35.1113 290.983L45.6318 290.983V212.231L35.1113 212.231V290.983Z" fill="#FFE712"/>
<path d="M82.6 287.893H51.0387M82.6 287.893V215.322M82.6 287.893L110.952 261.849V241.366L82.6 215.322M51.0387 287.893V215.322M51.0387 287.893L45.6318 290.983M51.0387 215.322H82.6M51.0387 215.322L45.6318 212.231M45.6318 290.983V212.231M45.6318 290.983L35.1113 290.983V212.231L45.6318 212.231" stroke="#333333" stroke-width="0.999999"/>
<path d="M62.0997 266.714C61.2469 266.714 60.5527 266.019 60.5527 265.164V238.046C60.5527 237.191 61.2469 236.497 62.0997 236.497C62.9525 236.497 63.6467 237.191 63.6467 238.046V265.164C63.6467 266.019 62.9525 266.714 62.0997 266.714Z" fill="#FFE712" stroke="#333333" stroke-width="0.999999"/>
<path d="M70.2794 266.714C69.4266 266.714 68.7324 266.019 68.7324 265.164V238.047C68.7324 237.191 69.4266 236.497 70.2794 236.497C71.1322 236.497 71.8264 237.191 71.8264 238.047V265.164C71.8264 266.019 71.1322 266.714 70.2794 266.714Z" fill="#FFE712" stroke="#333333" stroke-width="0.999999"/>
<path d="M78.463 266.714C77.6102 266.714 76.916 266.019 76.916 265.164V238.047C76.916 237.191 77.6102 236.497 78.463 236.497C79.3158 236.497 80.01 237.191 80.01 238.047V265.164C80.01 266.019 79.3158 266.714 78.463 266.714Z" fill="#FFE712" stroke="#333333" stroke-width="0.999999"/>
<path d="M152.865 257.829C156.054 253.167 157.444 246.438 161.852 241.306C163.332 239.583 165.689 237.64 168.372 235.705C189.572 223.285 244.8 191.272 246.949 188.786C249.498 185.842 287.192 123.136 287.192 123.136L253.339 115.456L220.257 173.949C217.496 176.146 164.976 215.005 164.976 215.005C164.976 215.005 154.533 223.175 148.824 227C145.941 228.687 143.144 229.777 140.693 230.63C137.614 231.704 131.742 234.631 130.552 235.676C129.174 236.893 126.413 239.489 124.774 241.078C123.134 242.662 121.14 244.454 120.374 245.397C119.909 245.973 118.453 246.765 117.389 247.296C115.803 248.088 116.007 250.439 117.715 250.925C119.322 251.378 121.495 250.37 122.841 249.737C126.641 247.949 131.286 243.119 131.535 243.711C131.779 244.303 127.065 254.649 126.6 255.869C126.14 257.086 120.72 269.146 120.443 271.833C120.166 274.519 121.785 275.144 122.988 274.16C124.023 273.315 132.733 257.213 132.733 257.213C132.733 257.213 133.847 255.159 134.283 256.335C134.715 257.507 126.837 272.143 126.066 274.544C125.296 276.944 125.911 278.916 128.13 278.071C130.825 277.046 138.275 260.907 138.275 260.907C138.275 260.907 139.245 258.899 139.906 259.597C140.567 260.295 133.659 272.637 133.581 274.058C133.504 275.479 134.784 276.883 136.652 275.695C138.846 274.295 145.374 259.83 145.374 259.83C145.374 259.83 146.182 258.87 146.434 259.544C146.687 260.217 141.545 271.159 141.929 272.755C142.251 274.099 143.458 273.829 143.458 273.829C146.149 273.821 149.684 262.492 152.873 257.829H152.865Z" fill="white"/>
<path d="M235.006 136.771L235.016 136.732C235.082 136.454 235.181 136.043 235.308 135.516C235.563 134.462 235.934 132.941 236.399 131.073C237.327 127.337 238.628 122.215 240.116 116.671C243.098 105.569 246.82 92.8216 249.813 86.1007L249.813 86.1006C255.319 73.7304 260.982 66.6609 266.384 63.0894C271.758 59.536 276.909 59.4206 281.505 61.048C286.128 62.6847 290.21 66.0941 293.36 69.6179C296.51 73.1417 298.686 76.7321 299.513 78.6671C300.426 80.8054 300.794 83.6133 300.713 86.9258C300.632 90.2324 300.104 94.0058 299.253 98.0526C297.55 106.146 294.565 115.285 291.336 123.883C288.108 132.477 284.642 140.517 281.982 146.409C280.652 149.355 279.524 151.763 278.729 153.434C278.331 154.269 278.017 154.921 277.802 155.363C277.749 155.472 277.703 155.568 277.662 155.651C277.638 155.643 277.613 155.635 277.587 155.626C277.273 155.524 276.816 155.375 276.245 155.185C275.103 154.806 273.506 154.267 271.69 153.627C268.053 152.345 263.546 150.663 260.032 149.052C257.673 147.97 251.332 144.857 245.572 142.011C242.694 140.589 239.963 139.235 237.953 138.236C236.947 137.737 236.122 137.326 235.548 137.04L235.006 136.771Z" fill="#FFE712" stroke="#333333" stroke-width="0.999999"/>
</svg>
