<svg width="679" height="538" viewBox="0 0 679 538" fill="none" xmlns="http://www.w3.org/2000/svg">
<path d="M363.09 515.283C362.47 510.813 363.865 503.121 367.352 491.089C360.447 491.105 354.639 488.035 347.583 488.145C345.653 499.463 342.668 518.043 342.668 518.043L342.35 532.733L391.494 533.104C391.494 533.104 391.086 533.317 376.598 524.126C375.526 523.445 363.693 519.611 363.094 515.291L363.09 515.283Z" fill="white"/>
<path d="M301.289 515.867C300.669 511.396 299.609 505.795 301.158 490.885C294.253 490.901 287.682 489.599 280.622 489.709C280.622 501.349 280.867 518.623 280.867 518.623L280.549 533.313L329.693 533.684C329.693 533.684 329.285 533.896 314.798 524.706C313.725 524.028 301.893 520.191 301.293 515.871L301.289 515.867Z" fill="white"/>
<path d="M280.312 537.085H331.042C332.918 536.914 333.375 535.379 332.727 534.431C331.389 532.48 321.494 527.797 314.842 524.69C303.173 525.923 282.665 521.101 280.825 518.386C277.624 527.372 279.271 536.848 280.316 537.081L280.312 537.085Z" fill="#FFE712"/>
<path d="M342.149 536.505H392.88C394.756 536.334 395.213 534.799 394.565 533.852C393.227 531.9 383.332 527.217 376.68 524.11C365.01 525.343 344.503 520.521 342.663 517.806C339.462 526.792 341.109 536.273 342.153 536.501L342.149 536.505Z" fill="#FFE712"/>
<path d="M348.949 197.157L333.96 205.551L303.488 252.319L357.979 381.072C357.979 381.072 351.841 400.432 349.843 410.108C347.75 420.229 342.619 507.101 342.619 507.101L365.868 507.493C365.868 507.493 387.95 415.011 391.69 384.995C396.229 348.544 368.58 261.733 368.58 261.733C363.425 244.022 352.306 207.584 352.306 207.584C352.306 207.584 349.586 198.704 348.949 197.153V197.157Z" fill="#333333"/>
<path d="M299.678 184.754C299.678 184.754 296.166 192.282 289.967 204.828C286.186 212.479 279.66 218.477 274.986 227.847C266.139 245.582 261.922 264.183 266.812 285.279C266.812 285.279 285.101 355.395 284.375 381.019C284.106 390.466 280.879 407.495 278.812 419.004C276.984 429.178 277.625 504.664 277.625 504.664L302.325 505.142L322.205 381.337L337.039 271.573L353.562 210.001L299.678 184.75V184.754Z" fill="#333333"/>
<path d="M411.258 68.5672C423.286 54.0408 426.263 35.5665 437.908 20.6033C442.215 15.0712 450.658 8.57554 456.894 5.3706C484.621 -8.8618 511.132 12.2296 515.631 41.564C518.03 57.2131 517.675 76.9817 513.155 97.3586C508.791 97.3831 504.574 97.2974 500.491 97.1096L498.419 83.8733L495.67 96.7176C471.598 94.4068 446.518 88.1071 432.296 81.2971L434.873 68.8203L427.385 78.8189C421.022 75.4384 415.679 71.9232 411.262 68.5672H411.258Z" fill="#333333"/>
<path d="M436.194 103.291C436.194 103.291 488.597 135.516 501.175 140.354C511.017 144.143 561.52 157.069 563.355 157.571C565.186 158.073 584.646 143.081 585.727 145.963C586.807 148.846 575.375 153.112 577.173 156.134C578.968 159.155 608.563 165.891 607.372 167.802C605.137 171.374 589.104 164.368 588.378 166.234C587.648 168.1 605.781 172.011 605.696 175.563C605.61 179.111 588.867 170.268 587.619 171.366C586.371 172.464 602.261 181.773 599.382 183.953C597.82 185.137 585.449 175.335 584.666 177.486C583.883 179.638 592.187 188.587 590.254 189.775C588.321 190.963 584.299 181.353 578.389 178.878C572.479 176.408 569.469 171.595 558.938 170.39C548.407 169.186 510.842 169.251 490.987 160.167C471.132 151.079 428.836 133.352 428.836 133.352L436.202 103.295L436.194 103.291Z" fill="white"/>
<path d="M400.221 85.4508L400.221 85.4507C401.288 84.7498 403.025 84.6049 405.382 85.0207C407.714 85.4323 410.542 86.3724 413.689 87.6956C419.979 90.3406 427.46 94.4795 434.651 98.832C441.838 103.182 448.719 107.736 453.804 111.203C456.346 112.937 458.438 114.398 459.895 115.426C460.624 115.939 461.193 116.345 461.58 116.622C461.673 116.688 461.756 116.748 461.828 116.799L448.313 144.011C448.039 143.895 447.639 143.725 447.128 143.506C446.093 143.064 444.603 142.421 442.785 141.623C439.147 140.025 434.194 137.804 428.93 135.307C423.666 132.81 418.097 130.039 413.225 127.343C408.343 124.641 404.197 122.033 401.755 119.864C396.903 115.555 394.103 108.514 393.748 101.729C393.391 94.9306 395.491 88.556 400.221 85.4508Z" fill="#FFE712" stroke="#333333" stroke-width="0.999999"/>
<path d="M451.492 56.7109C451.492 56.7109 445.443 52.8609 445.166 52.6772C444.892 52.4934 441.315 56.9395 440.948 57.6989C440.581 58.4583 439.574 65.4316 440.398 65.7991C441.222 66.1665 445.7 68.4569 446.12 67.9996C446.54 67.5424 451.488 56.715 451.488 56.715L451.492 56.7109Z" fill="white"/>
<path d="M421.7 67.7219C421.7 67.7219 443.488 64.4721 452.188 55.2002L459.974 74.4543C459.974 74.4543 446.739 85.1674 445.536 92.0346C444.332 98.9017 443.505 122.03 443.505 122.03L431.888 115.719C431.888 115.719 418.584 86.5515 419.004 83.0852C419.424 79.619 421.7 67.726 421.7 67.726V67.7219Z" fill="white"/>
<path d="M279.749 217.141C286.408 197.035 299.767 170.609 315.442 146.255C331.267 121.669 349.41 99.2599 365.349 87.6001L365.054 87.1966L365.349 87.6001C381.3 75.9304 395.392 71.0904 405.48 69.1639C410.525 68.2004 414.571 67.9652 417.351 67.9699C418.741 67.9723 419.814 68.0346 420.536 68.0959C420.897 68.1266 421.171 68.157 421.353 68.1795C421.354 68.1796 421.355 68.1796 421.355 68.1797L441.477 115.811C442.993 119.401 443.439 123.353 442.766 127.19L442.766 127.191L442.619 128.031L279.749 217.141ZM279.749 217.141C279.777 217.145 279.805 217.15 279.835 217.155C280.267 217.226 280.904 217.331 281.722 217.461C283.359 217.723 285.722 218.09 288.622 218.514C294.424 219.361 302.377 220.435 310.984 221.338C319.592 222.241 328.849 222.974 337.258 223.14C345.457 223.303 352.81 222.926 357.968 221.665C357.954 221.516 357.937 221.329 357.918 221.109C357.864 220.476 357.793 219.564 357.727 218.444C357.595 216.205 357.48 213.132 357.551 209.797C357.622 206.465 357.878 202.859 358.493 199.559C359.106 196.269 360.082 193.233 361.625 191.077C363.077 189.047 364.348 186.518 365.737 183.72L365.867 183.458C367.214 180.745 368.672 177.807 370.498 174.92C374.275 168.944 379.634 163.167 388.898 159.88C394.925 157.741 401.518 157.026 407.952 156.328C409.892 156.117 411.818 155.908 413.709 155.662C428.348 153.759 440.063 142.583 442.619 128.032L279.749 217.141Z" fill="#FFE712" stroke="#333333" stroke-width="0.999999"/>
<path d="M453.083 80.7991C450.427 73.5523 450.795 57.6214 450.795 57.6214L451.113 56.2496C451.488 55.9067 451.855 55.5597 452.194 55.1963L459.98 74.4505C459.98 74.4505 456.59 77.1981 453.083 80.7991Z" fill="white"/>
<path d="M476.782 15.361C476.782 15.361 465.374 14.0382 458.224 23.3182C451.074 32.5983 443.366 61.2876 461.128 76.8877C478.891 92.4879 496.442 74.8301 499.044 56.1066C501.646 37.3832 502.658 14.6833 476.782 15.361Z" fill="white"/>
<path d="M504.299 55.8332C502.178 59.969 498.622 62.2595 496.35 60.9489C494.082 59.6384 493.96 55.2249 496.081 51.0891C498.202 46.9533 501.758 44.6629 504.03 45.9735C506.298 47.284 506.42 51.6974 504.303 55.8332H504.299Z" fill="white"/>
<path d="M478.06 12.2949C478.06 12.2949 462.822 39.5798 451.92 40.8413C441.018 42.1029 439.586 56.6007 439.586 56.6007C439.586 56.6007 443.485 23.1917 454.277 16.7491C465.07 10.3066 478.064 12.2949 478.064 12.2949H478.06Z" fill="#333333"/>
<path d="M454.772 47.6962C455.657 52.5424 453.875 56.9844 450.787 57.6213C447.699 58.2582 444.481 54.8451 443.592 49.9989C442.707 45.1527 444.489 40.7107 447.573 40.0738C450.661 39.4369 453.879 42.85 454.768 47.6962H454.772Z" fill="white"/>
<path d="M426.855 40.0002C434.013 26.2006 437.337 31.01 436.897 32.9167C436.456 34.8233 434.747 53.51 435.233 53.461C435.722 53.412 445.784 48.8516 445.784 48.8516L446.119 55.5922C446.119 55.5922 440.906 71.9925 443.569 82.8893C443.569 82.8893 433.299 83.171 423.213 78.1942L423.865 69.6857L418.645 75.5322C415.977 73.7031 413.44 71.4209 411.25 68.5712C411.25 68.5712 419.689 53.8039 426.847 40.0043L426.855 40.0002Z" fill="#333333"/>
<path d="M-3.5 191.5V181.5H550.5V191.5H-3.5Z" fill="#FFE712" stroke="#12120F"/>
<path d="M550.012 131.984H631.704C636.153 131.984 639.761 135.595 639.761 140.05V233.422C639.761 237.877 636.153 241.488 631.704 241.488H550.012C545.563 241.488 541.955 237.877 541.955 233.422V140.05C541.955 135.595 545.563 131.984 550.012 131.984Z" fill="#FFE712" stroke="#333333" stroke-width="0.999999"/>
<path d="M588.752 131.984H670.444C674.894 131.984 678.501 135.595 678.501 140.05V233.422C678.501 237.877 674.894 241.487 670.444 241.487H588.752C584.303 241.487 580.695 237.877 580.695 233.422V140.05C580.695 135.595 584.303 131.984 588.752 131.984Z" fill="#FFE712" stroke="#333333" stroke-width="0.999999"/>
<path d="M662.898 186.736C662.898 209.606 648.315 227.933 630.56 227.933C612.805 227.933 598.223 209.606 598.223 186.736C598.223 163.866 612.805 145.539 630.56 145.539C648.315 145.539 662.898 163.866 662.898 186.736Z" fill="#FFE712" stroke="#333333" stroke-width="0.999999"/>
<path d="M631.329 145.55C648.731 146.072 662.895 164.2 662.895 186.736C662.895 209.272 648.735 227.399 631.329 227.921C646.303 223.703 657.382 206.793 657.382 186.736C657.382 166.679 646.303 149.769 631.329 145.55Z" fill="#FFE712" stroke="#333333" stroke-width="0.999999"/>
<path d="M634.055 164.497C634.055 166.43 632.488 167.994 630.562 167.994C628.635 167.994 627.064 166.425 627.064 164.497C627.064 162.568 628.632 160.996 630.562 160.996C632.491 160.996 634.055 162.563 634.055 164.497Z" fill="#FFE712" stroke="#333333" stroke-width="0.999999"/>
<path d="M634.055 208.974C634.055 210.907 632.488 212.471 630.562 212.471C628.635 212.471 627.064 210.903 627.064 208.974C627.064 207.046 628.631 205.477 630.562 205.477C632.491 205.477 634.055 207.041 634.055 208.974Z" fill="#FFE712" stroke="#333333" stroke-width="0.999999"/>
<path d="M627.064 164.497C627.064 163.315 627.656 162.279 628.563 161.644C629.47 162.279 630.062 163.315 630.062 164.497C630.062 165.68 629.47 166.716 628.563 167.35C627.656 166.716 627.064 165.68 627.064 164.497Z" stroke="#333333" stroke-width="0.999999"/>
<path d="M627.064 208.974C627.064 207.792 627.656 206.756 628.563 206.122C629.47 206.756 630.062 207.792 630.062 208.974C630.062 210.157 629.47 211.193 628.563 211.827C627.656 211.193 627.064 210.157 627.064 208.974Z" stroke="#333333" stroke-width="0.999999"/>
<path d="M433.806 116.98C433.806 116.98 479.332 159.665 490.85 167.034C499.86 172.799 547.418 195.92 549.139 196.794C550.86 197.663 573.236 186.73 573.725 189.812C574.215 192.895 561.987 194.809 563.161 198.178C564.332 201.542 592.373 214.259 590.798 215.917C587.854 219.012 573.346 208.789 572.24 210.495C571.135 212.202 588.359 219.779 587.552 223.286C586.744 226.798 571.906 214.598 570.442 215.435C568.978 216.272 582.878 228.757 579.574 230.333C577.779 231.191 567.481 218.934 566.261 220.914C565.046 222.894 571.478 233.477 569.316 234.265C567.15 235.053 565.107 224.683 559.739 221.025C554.372 217.366 552.357 211.973 542.136 208.629C531.919 205.29 494.574 197.712 476.689 184.643C458.804 171.574 420.379 145.351 420.379 145.351L433.802 116.984L433.806 116.98Z" fill="white"/>
<path d="M407.115 88.2862L407.115 88.2862C415.221 93.5224 426.779 104.063 436.336 113.324C441.109 117.949 445.373 122.245 448.443 125.385C449.979 126.955 451.216 128.236 452.068 129.124C452.495 129.568 452.825 129.914 453.049 130.149C453.057 130.157 453.065 130.165 453.072 130.174L429.736 156.255C429.55 156.123 429.296 155.941 428.98 155.715C428.259 155.199 427.218 154.45 425.937 153.518C423.374 151.655 419.851 149.061 416.009 146.142C408.316 140.295 399.376 133.163 394.296 127.96C383.115 116.507 381.023 103.021 384.36 94.2274C386.028 89.8329 389.037 86.632 392.925 85.3746C396.808 84.1186 401.671 84.7692 407.115 88.2862Z" fill="#FFE712" stroke="#333333" stroke-width="0.999999"/>
</svg>
