<svg width="1565" height="925" viewBox="0 0 1565 925" fill="none" xmlns="http://www.w3.org/2000/svg">
<g opacity="0.3">
<path d="M1564.45 657.297H1484.48V794.909H1347.8V657.297H1064.21V559.666L1355.24 131.021H1484.48V548.508H1564.45V657.297ZM1347.8 436C1347.8 425.463 1347.8 413.065 1347.8 398.808C1348.42 383.931 1349.04 369.364 1349.66 355.106C1350.28 340.229 1350.9 327.212 1351.52 316.054C1352.14 304.277 1352.76 296.218 1353.38 291.879H1349.66C1344.08 304.277 1338.19 316.364 1331.99 328.142C1325.79 339.919 1318.35 352.007 1309.68 364.405L1187.87 548.508H1347.8V436Z" fill="#333333"/>
<path d="M1013.75 462.965C1013.75 516.274 1009.41 564.005 1000.73 606.156C992.67 648.308 979.342 684.261 960.746 714.015C942.77 743.149 918.904 765.465 889.15 780.962C860.016 796.459 824.063 804.207 781.292 804.207C727.982 804.207 684.281 790.57 650.188 763.295C616.094 736.021 590.679 696.968 573.943 646.139C557.826 595.309 549.768 534.251 549.768 462.965C549.768 391.059 557.206 329.691 572.083 278.861C586.96 228.032 611.445 188.979 645.539 161.705C679.632 134.43 724.883 120.793 781.292 120.793C834.601 120.793 878.302 134.43 912.396 161.705C946.489 188.359 971.904 227.412 988.64 278.861C1005.38 329.691 1013.75 391.059 1013.75 462.965ZM689.24 462.965C689.24 513.175 692.029 555.327 697.608 589.42C703.187 622.893 712.485 648.308 725.503 665.665C739.14 682.401 757.736 690.77 781.292 690.77C804.847 690.77 823.133 682.401 836.151 665.665C849.788 648.928 859.396 623.823 864.975 590.35C871.174 556.256 874.273 513.795 874.273 462.965C874.273 412.135 871.174 369.983 864.975 336.51C859.396 302.417 849.788 277.002 836.151 260.265C823.133 242.909 804.847 234.23 781.292 234.23C757.736 234.23 739.14 242.909 725.503 260.265C712.485 277.002 703.187 302.417 697.608 336.51C692.029 369.983 689.24 412.135 689.24 462.965Z" fill="#333333"/>
<path d="M500.241 657.297H420.277V794.909H283.594V657.297H0V559.666L291.032 131.021H420.277V548.508H500.241V657.297ZM283.594 436C283.594 425.463 283.594 413.065 283.594 398.808C284.214 383.931 284.833 369.364 285.453 355.106C286.073 340.229 286.693 327.212 287.313 316.054C287.933 304.277 288.553 296.218 289.173 291.879H285.453C279.874 304.277 273.986 316.364 267.787 328.142C261.588 339.919 254.15 352.007 245.471 364.405L123.665 548.508H283.594V436Z" fill="#333333"/>
</g>
</svg>
