<svg width="300" height="358" viewBox="0 0 300 358" fill="none" xmlns="http://www.w3.org/2000/svg">
<g clip-path="url(#clip0_351_11537)">
<path d="M281.239 143.555C277.244 168.125 261.532 190.512 239.814 202.576C218.097 214.64 190.834 216.129 167.934 206.499C178.332 229.251 171.519 258.641 152.182 274.464C129.991 292.621 94.4497 290.408 73.5372 270.777C52.6274 251.146 47.711 217.08 60.7433 191.505C73.7784 165.933 90.7533 157.799 119.368 159.122C107.005 143.794 102.84 129.664 103.066 112.118C103.292 94.5711 113.427 78.2767 126.841 67.0073C140.254 55.738 156.715 48.8099 173.172 42.8403C173.172 42.8403 254.998 9.06672 282.417 29.2514C288.978 63.3431 281.236 143.55 281.236 143.55L281.239 143.555Z" fill="#FFFF00"/>
<path d="M83.8041 137.068C97.5519 143.763 107.943 156.966 111.199 171.876C114.455 186.786 110.509 203.088 100.794 214.857C116.017 212.764 132.102 221.97 137.991 236.144C144.747 252.411 137.16 272.928 121.912 281.759C106.665 290.587 85.7545 287.455 73.014 275.264C60.2756 263.073 58.493 251.648 64.3318 235.048C53.1279 239.611 44.0789 239.561 33.7963 236.325C23.5138 233.089 15.7205 224.244 11.4632 214.36C7.20596 204.476 6.04174 193.566 5.44043 182.829C5.44043 182.829 0.0441898 128.718 16.7683 116.158C37.9848 118.327 83.8005 137.068 83.8005 137.068L83.8041 137.068Z" fill="#FFFF00"/>
<path d="M265.1 267.992C266.26 242.371 213.571 219.177 147.417 216.187C81.2624 213.196 26.6938 231.541 25.5342 257.161C24.3746 282.782 77.0632 305.976 143.218 308.966C209.372 311.957 263.941 293.612 265.1 267.992Z" fill="#12120F"/>
<path d="M142.568 259.31C163.022 257.223 198.779 248.689 215.969 244.396C219.043 243.145 222.316 242.296 225.721 241.911C225.725 241.911 225.738 241.907 225.738 241.907C227.652 241.692 229.603 241.621 231.588 241.713C252.05 242.64 267.888 259.969 266.96 280.419C266.078 299.88 250.334 315.143 231.182 315.776C231.165 315.776 231.153 315.789 231.14 315.789C223.492 316.844 174.953 313.797 149.333 309.445C146.963 309.043 144.896 308.716 143.065 308.451C138.603 283.802 141.143 266.18 142.572 259.306L142.568 259.31Z" fill="#12120F"/>
<path d="M134.468 259.778C136.739 259.795 139.485 259.621 142.572 259.306C141.143 266.18 138.603 283.806 143.065 308.451C125.084 305.843 130.023 309.093 99.9616 304.311C66.8428 299.044 74.9009 262.006 78.5342 258.693C82.1635 255.377 111.852 259.621 134.472 259.778H134.468Z" fill="white"/>
<path d="M228.977 241.692C228.977 241.692 222.166 241.547 215.973 244.396C215.973 244.396 164.19 256.917 153.899 257.782" stroke="#12120F" stroke-width="1.79" stroke-miterlimit="10" stroke-linecap="round"/>
<path d="M143.831 265.165C123.647 261.24 88.8129 249.505 72.0795 243.68C69.1297 242.16 65.952 241.013 62.5921 240.326C62.5879 240.326 62.5755 240.317 62.5755 240.317C60.6905 239.932 58.7516 239.684 56.7671 239.593C36.305 238.665 18.9667 254.495 18.0387 274.946C17.1563 294.407 31.4578 311.027 50.4739 313.391C50.4905 313.391 50.4988 313.404 50.5154 313.408C58.039 315.151 106.652 316.501 132.562 314.485C134.957 314.298 137.049 314.162 138.897 314.062C145.571 289.918 144.635 272.134 143.831 265.161V265.165Z" fill="#12120F"/>
<path d="M151.86 266.366C149.598 266.176 146.876 265.757 143.835 265.165C144.639 272.138 145.575 289.922 138.901 314.066C157.043 313.093 151.835 315.884 182.199 313.839C215.662 311.586 210.984 273.972 207.666 270.345C204.347 266.718 174.402 268.258 151.86 266.37V266.366Z" fill="white"/>
<path d="M56.7671 239.597C56.7671 239.597 64.7216 239.199 72.0795 243.68C72.0795 243.68 128.618 262.859 141.64 264.722" stroke="#12120F" stroke-width="1.79" stroke-miterlimit="10" stroke-linecap="round"/>
<path d="M251.258 185.636L249.183 175.711C248.971 174.709 248.081 174.001 247.057 174.026L244.961 174.075C240.582 163.21 232.718 147.372 219.527 131.278C195.871 102.417 180.82 99.8294 164.989 98.9392C162.309 98.7901 120.734 98.7901 118.054 98.9392C102.224 99.8294 87.1764 102.417 63.516 131.278C50.3207 147.372 42.4573 163.214 38.0824 174.079L35.87 174.026C34.8467 174.001 33.9518 174.709 33.7447 175.711L31.6691 185.636C31.3956 186.953 32.3982 188.187 33.7447 188.187H81.5875C79.8475 199.047 77.4943 218.351 79.4291 234.761C79.5575 235.833 80.1127 236.76 80.9081 237.402C80.9495 237.435 80.991 237.473 81.0365 237.506C81.1318 237.576 81.2271 237.638 81.3307 237.7C81.4135 237.754 81.5005 237.8 81.5875 237.849C81.6745 237.895 81.7616 237.936 81.8486 237.974C81.9687 238.023 82.0888 238.069 82.2131 238.106C82.2877 238.131 82.3581 238.156 82.4327 238.177C82.6357 238.23 82.847 238.272 83.0624 238.288C91.1371 239.034 113.724 240.781 141.524 240.011C169.319 240.781 191.906 239.034 199.985 238.288C200.2 238.268 200.412 238.226 200.615 238.177C200.689 238.156 200.76 238.131 200.834 238.106C200.959 238.065 201.083 238.023 201.199 237.974C201.29 237.936 201.373 237.895 201.46 237.849C201.547 237.804 201.634 237.754 201.717 237.7C201.816 237.638 201.916 237.576 202.011 237.506C202.056 237.473 202.094 237.435 202.139 237.402C202.935 236.76 203.494 235.833 203.618 234.761C205.557 218.351 203.204 199.043 201.46 188.187H249.183C250.529 188.187 251.532 186.949 251.258 185.636Z" fill="#12120F"/>
<path d="M42.2004 174.038H80.4938" stroke="#12120F" stroke-width="1.79" stroke-miterlimit="10" stroke-linecap="round"/>
<path d="M202.989 174.038H241.282" stroke="#12120F" stroke-width="1.79" stroke-miterlimit="10" stroke-linecap="round"/>
<path d="M40.4936 177.793L39.2383 184.476" stroke="#12120F" stroke-width="1.79" stroke-miterlimit="10" stroke-linecap="round"/>
<path d="M48.622 177.793L47.3708 184.476" stroke="#12120F" stroke-width="1.79" stroke-miterlimit="10" stroke-linecap="round"/>
<path d="M57.0861 177.793L55.8308 184.476" stroke="#12120F" stroke-width="1.79" stroke-miterlimit="10" stroke-linecap="round"/>
<path d="M65.2146 177.793L63.9634 184.476" stroke="#12120F" stroke-width="1.79" stroke-miterlimit="10" stroke-linecap="round"/>
<path d="M73.5668 177.793L72.3157 184.476" stroke="#12120F" stroke-width="1.79" stroke-miterlimit="10" stroke-linecap="round"/>
<path d="M243.051 177.793L244.302 184.476" stroke="#12120F" stroke-width="1.79" stroke-miterlimit="10" stroke-linecap="round"/>
<path d="M234.918 177.793L236.17 184.476" stroke="#12120F" stroke-width="1.79" stroke-miterlimit="10" stroke-linecap="round"/>
<path d="M226.458 177.793L227.71 184.476" stroke="#12120F" stroke-width="1.79" stroke-miterlimit="10" stroke-linecap="round"/>
<path d="M218.326 177.793L219.577 184.476" stroke="#12120F" stroke-width="1.79" stroke-miterlimit="10" stroke-linecap="round"/>
<path d="M209.974 177.793L211.225 184.476" stroke="#12120F" stroke-width="1.79" stroke-miterlimit="10" stroke-linecap="round"/>
<path d="M186.558 127.808C186.558 127.808 199.529 142.768 197.014 177.934" stroke="#12120F" stroke-width="1.79" stroke-miterlimit="10" stroke-linecap="round"/>
<path d="M96.6597 127.808C96.6597 127.808 83.6881 142.768 86.2029 177.934" stroke="#12120F" stroke-width="1.79" stroke-miterlimit="10" stroke-linecap="round"/>
<path d="M83.6424 188.187H36.7193C33.2931 198.53 23.2381 230.529 26.9585 239.584C26.9585 239.584 27.5136 244.868 44.2263 244.868H83.4353L83.6466 188.187H83.6424Z" fill="white"/>
<path fill-rule="evenodd" clip-rule="evenodd" d="M35.9971 187.187H84.6503L84.4316 245.868H44.2263C35.7897 245.868 31.2648 244.539 28.8152 243.086C27.5798 242.354 26.8673 241.587 26.4612 240.944C26.2594 240.625 26.1381 240.344 26.0657 240.126C26.032 240.024 26.0091 239.936 25.9936 239.865C24.9977 237.343 24.9708 233.461 25.4379 229.082C25.9173 224.587 26.943 219.368 28.186 214.137C30.6729 203.671 34.0538 193.053 35.77 187.872L35.9971 187.187ZM26.9585 239.584C26.9585 239.584 27.5137 244.868 44.2263 244.868H83.4348L83.6466 188.187H36.7193C33.2931 198.53 23.2381 230.529 26.9585 239.584Z" fill="#12120F"/>
<path d="M59.3564 195.511C59.3564 195.511 70.6833 193.47 83.4022 196.439" stroke="#12120F" stroke-width="1.79" stroke-miterlimit="10" stroke-linecap="round"/>
<path d="M199.525 188.187H246.452C249.883 198.53 259.934 230.529 256.213 239.584C256.213 239.584 255.658 244.868 238.945 244.868H199.736L199.525 188.187Z" fill="white"/>
<path fill-rule="evenodd" clip-rule="evenodd" d="M198.521 187.187H247.174L247.401 187.872C249.12 193.053 252.501 203.671 254.987 214.137C256.23 219.368 257.255 224.587 257.734 229.082C258.201 233.461 258.174 237.343 257.178 239.865C257.162 239.936 257.14 240.024 257.106 240.126C257.033 240.344 256.912 240.625 256.71 240.944C256.304 241.587 255.592 242.354 254.356 243.086C251.907 244.539 247.382 245.868 238.945 245.868H198.74L198.521 187.187ZM256.213 239.584C259.933 230.529 249.883 198.53 246.452 188.187H199.525L199.736 244.868H238.945C255.658 244.868 256.213 239.584 256.213 239.584Z" fill="#12120F"/>
<path d="M223.815 195.511C223.815 195.511 212.488 193.47 199.77 196.439" stroke="#12120F" stroke-width="1.79" stroke-miterlimit="10" stroke-linecap="round"/>
<path fill-rule="evenodd" clip-rule="evenodd" d="M124.674 54.5926L124.804 54.4342C131.502 46.285 139.579 45.6951 145.894 47.146C149.031 47.8668 151.741 49.0884 153.662 50.1241C154.624 50.643 155.394 51.1182 155.925 51.4657C156.191 51.6396 156.398 51.7817 156.541 51.8818C156.612 51.9318 156.667 51.9713 156.705 51.999L156.749 52.0316L156.762 52.0409L156.766 52.0438L156.767 52.0448C156.767 52.0452 156.768 52.0455 156.168 52.8456C156.168 52.8456 138.37 39.5045 125.576 55.0692L124.616 54.7894L124.674 54.5926ZM134.473 88.8746C115.988 87.9665 125.576 55.0692 125.576 55.0692C124.616 54.7894 124.617 54.7888 124.616 54.7894L124.614 54.798L124.608 54.8196L124.585 54.901C124.565 54.9719 124.536 55.0757 124.499 55.2103C124.426 55.4794 124.322 55.8714 124.199 56.3682C123.952 57.3614 123.625 58.7751 123.302 60.4637C122.658 63.8335 122.025 68.3319 122.096 72.7817C122.166 77.2029 122.933 81.7305 125.223 85.0331C127.146 87.8057 130.071 89.6124 134.25 89.8634C133.703 92.0647 132.42 94.5124 131.215 96.4742C130.603 97.4707 130.025 98.3207 129.6 98.9209C129.387 99.2208 129.214 99.4576 129.094 99.6183C129.034 99.6987 128.988 99.7601 128.957 99.8007L128.923 99.846L128.914 99.8566L128.913 99.8588L128.759 100.057L128.717 100.304L129.703 100.471C128.717 100.304 128.717 100.304 128.717 100.305L128.717 100.307L128.716 100.311L128.714 100.322L128.71 100.353C128.706 100.377 128.702 100.41 128.697 100.451C128.687 100.533 128.676 100.646 128.667 100.786C128.65 101.067 128.644 101.458 128.683 101.925C128.762 102.858 129.024 104.116 129.764 105.397C131.282 108.026 134.622 110.45 141.527 110.737C141.527 110.737 141.527 110.737 141.527 110.737C148.463 111.028 152.429 108.756 154.645 106.257C155.737 105.027 156.373 103.775 156.736 102.828C156.918 102.354 157.033 101.953 157.104 101.664C157.139 101.52 157.163 101.404 157.179 101.319C157.187 101.277 157.193 101.243 157.197 101.218L157.202 101.187L157.203 101.176L157.204 101.172L157.204 101.171C157.204 101.17 157.204 101.169 156.214 101.03L157.204 101.169L157.273 100.677L156.923 100.326L156.923 100.325C156.922 100.325 156.922 100.325 156.214 101.03L156.923 100.325L156.918 100.32L156.892 100.293C156.867 100.267 156.828 100.226 156.774 100.168C156.666 100.051 156.5 99.8684 156.275 99.6098C155.826 99.0925 155.143 98.2735 154.226 97.0829C154.13 96.9583 153.971 96.614 153.808 95.9504C153.655 95.3239 153.523 94.5263 153.412 93.6039C153.191 91.7617 153.065 89.508 152.996 87.307C152.948 85.7886 152.928 84.3047 152.922 83.0124C154 81.7361 154.754 80.3871 155.27 79.0583C156.179 76.7194 156.342 74.468 156.284 72.8125C156.273 72.5078 156.255 72.2222 156.232 71.9588C156.839 72.1536 157.573 72.3003 158.345 72.2474C159.461 72.171 160.609 71.6766 161.485 70.4577C162.328 69.2846 162.863 67.5194 163.008 64.9937C163.154 62.4554 162.777 60.6279 161.984 59.3655C161.164 58.061 159.979 57.4852 158.822 57.311C157.889 57.1706 156.973 57.2881 156.245 57.4577L157.275 52.4254L156.768 52.0455L156.168 52.8456L154.917 58.9614C154.917 58.9614 155.358 58.7446 156.022 58.5502C158.119 57.9353 162.435 57.5433 162.01 64.9363C161.598 72.0914 157.982 71.6053 156.096 70.8467C155.417 70.5737 154.962 70.2653 154.962 70.2653C154.962 70.2653 155.086 70.7382 155.183 71.5339C155.427 73.5522 155.495 77.6471 152.922 81.3698C152.625 81.7996 152.292 82.2244 151.921 82.6405C151.922 83.0936 151.925 83.5737 151.93 84.0735M141.569 109.738C128.22 109.183 129.703 100.471 129.703 100.471C129.703 100.471 134.153 94.7284 135.267 89.9087C135.268 89.9036 135.269 89.8985 135.271 89.8934C135.348 89.56 135.421 89.2257 135.491 88.8923C135.142 88.8968 134.803 88.8908 134.473 88.8746" fill="#12120F"/>
<path d="M125.576 55.0694C125.576 55.0694 115.099 91.0184 137.164 88.7949C159.23 86.5714 154.962 70.2655 154.962 70.2655C154.962 70.2655 161.45 74.667 162.01 64.9365C162.569 55.206 154.917 58.9616 154.917 58.9616L156.168 52.8458C156.168 52.8458 138.37 39.5047 125.576 55.0694Z" fill="white"/>
<path d="M151.951 78.7913C151.951 78.7913 151.578 95.2834 153.434 97.6933C155.29 100.103 156.214 101.031 156.214 101.031C156.214 101.031 154.917 110.297 141.569 109.738C128.22 109.184 129.703 100.472 129.703 100.472C129.703 100.472 134.153 94.7286 135.267 89.9089C136.382 85.0892 136.75 80.0873 136.75 80.0873L151.955 78.7913H151.951Z" fill="white"/>
<path d="M156.737 63.4912C156.737 63.4912 158.187 64.0419 158.684 65.5905" stroke="#12120F" stroke-width="1.79" stroke-miterlimit="10" stroke-linecap="round"/>
<path d="M155.974 64.6587C155.974 64.6587 157.085 60.576 159.981 62.3979" stroke="#12120F" stroke-width="1.79" stroke-miterlimit="10" stroke-linecap="round"/>
<path d="M162.031 34.3659C157.341 28.95 152.362 34.3659 152.362 34.3659C149.901 25.5422 140.939 19 130.255 19C117.673 19 107.477 28.0721 107.477 39.2602C107.477 47.3634 112.83 54.3569 120.56 57.5949C120.134 60.7584 120.593 64.2655 123.336 67.1308C123.336 67.1308 123.742 62.6755 124.554 59.2677C124.583 59.1477 124.608 59.0234 124.629 58.8951C126.427 59.3009 128.312 59.5203 130.251 59.5203C134.688 59.5203 138.831 58.3858 142.332 56.4355C144.204 58.9696 146.839 60.5513 149.76 60.5513C149.917 60.5513 150.075 60.5431 150.232 60.5348C151.218 65.3131 153.397 65.6526 153.397 65.6526C152.693 59.57 154.91 58.9572 154.91 58.9572C160.13 55.9428 166.721 39.7777 162.031 34.3576V34.3659Z" fill="#12120F"/>
<path d="M193.841 176.887H89.1903C85.9915 176.887 83.3984 179.478 83.3984 182.675V251.994C83.3984 255.191 85.9915 257.782 89.1903 257.782H193.841C197.04 257.782 199.633 255.191 199.633 251.994V182.675C199.633 179.478 197.04 176.887 193.841 176.887Z" fill="#FFFF00"/>
<path d="M144.569 203.337L138.433 203.321L135.347 208.625L138.404 213.945L144.54 213.962L147.623 208.658L144.569 203.337Z" fill="#12120F"/>
<path d="M238.463 336.002C238.463 336.002 267.674 343.591 281.677 324.8C267.433 317.452 235.384 327.15 235.174 327.42C234.963 327.691 231.943 335.582 238.464 336.002H238.463Z" fill="#12120F"/>
<path fill-rule="evenodd" clip-rule="evenodd" d="M268.433 321.985C273.449 322.106 278.138 322.878 281.716 324.724C281.739 324.735 281.755 324.756 281.761 324.781C281.767 324.806 281.761 324.832 281.746 324.852C274.723 334.277 263.888 337.082 254.823 337.534C250.29 337.76 246.195 337.399 243.234 336.98C241.753 336.771 240.555 336.548 239.728 336.376C239.314 336.291 238.992 336.218 238.774 336.167C238.665 336.142 238.582 336.121 238.526 336.107C238.498 336.101 238.477 336.095 238.463 336.092C238.457 336.09 238.452 336.089 238.449 336.088C236.805 335.98 235.749 335.4 235.101 334.575C234.454 333.752 234.225 332.696 234.208 331.657C234.191 330.616 234.386 329.583 234.598 328.794C234.704 328.399 234.815 328.065 234.906 327.82C234.951 327.697 234.992 327.597 235.025 327.522C235.042 327.484 235.056 327.453 235.069 327.428C235.081 327.405 235.093 327.383 235.106 327.367L235.174 327.42L235.106 327.367C235.106 327.367 235.106 327.367 235.106 327.367C235.118 327.351 235.135 327.341 235.14 327.338L235.141 327.338C235.149 327.333 235.16 327.327 235.17 327.322C235.191 327.313 235.22 327.301 235.254 327.287C235.323 327.261 235.421 327.226 235.547 327.184C235.798 327.099 236.161 326.984 236.623 326.846C237.549 326.569 238.875 326.196 240.504 325.78C243.763 324.947 248.236 323.938 253.149 323.168C258.062 322.398 263.415 321.865 268.433 321.985ZM238.491 335.921C238.495 335.921 238.499 335.923 238.505 335.924C238.519 335.928 238.54 335.933 238.568 335.94C238.623 335.954 238.706 335.974 238.814 335.999C239.031 336.05 239.351 336.122 239.763 336.207C240.587 336.378 241.781 336.6 243.258 336.809C246.211 337.226 250.295 337.587 254.814 337.362C263.83 336.912 274.565 334.131 281.546 324.831C278.013 323.036 273.392 322.277 268.429 322.158C263.425 322.038 258.083 322.569 253.176 323.339C248.27 324.108 243.802 325.115 240.547 325.947C238.92 326.363 237.596 326.735 236.673 327.011C236.211 327.15 235.85 327.264 235.602 327.347C235.478 327.389 235.382 327.423 235.317 327.449C235.284 327.461 235.26 327.471 235.244 327.479C235.241 327.48 235.239 327.481 235.237 327.482C235.233 327.488 235.229 327.496 235.223 327.507C235.213 327.528 235.199 327.556 235.184 327.591C235.152 327.662 235.113 327.759 235.068 327.88C234.979 328.12 234.87 328.449 234.765 328.839C234.556 329.619 234.364 330.635 234.381 331.654C234.398 332.673 234.623 333.686 235.237 334.469C235.849 335.249 236.858 335.812 238.469 335.916C238.477 335.917 238.484 335.918 238.491 335.921ZM235.229 327.487C235.228 327.487 235.227 327.488 235.227 327.488C235.227 327.488 235.227 327.487 235.229 327.487ZM235.242 327.473C235.242 327.473 235.242 327.473 235.242 327.473L235.242 327.473Z" fill="#12120F"/>
<path d="M267.052 261.609C267.052 261.609 287.475 280.125 272.699 295.851C266.902 301.296 255.31 299.907 255.31 299.907C255.31 299.907 259.231 311.437 255.31 319.434C251.389 327.43 238.943 332.704 238.943 332.704L231.945 331.51L248.947 275.456L267.051 261.61L267.052 261.609Z" fill="#12120F"/>
<path d="M193.757 331.51C193.757 331.51 179.134 323.776 181.308 283.122C194.344 291.072 202.736 316.84 197.907 331.51C195.25 331.545 193.758 331.51 193.758 331.51H193.757Z" fill="white"/>
<path fill-rule="evenodd" clip-rule="evenodd" d="M181.267 283.046C181.294 283.032 181.327 283.033 181.353 283.049C187.896 287.039 193.262 295.49 196.389 304.769C199.516 314.048 200.412 324.177 197.989 331.537C197.977 331.572 197.945 331.596 197.908 331.596C196.579 331.614 195.541 331.614 194.835 331.61C194.482 331.607 194.213 331.604 194.031 331.601C193.94 331.6 193.871 331.599 193.825 331.598L193.794 331.597L193.76 331.596L193.758 331.596H193.757M193.757 331.51C193.716 331.586 193.716 331.586 193.716 331.586L193.713 331.584L193.708 331.582L193.704 331.58C193.697 331.576 193.686 331.57 193.672 331.561C193.643 331.545 193.601 331.52 193.547 331.486C193.439 331.419 193.281 331.314 193.081 331.168C192.682 330.874 192.116 330.41 191.444 329.727C190.101 328.36 188.335 326.115 186.639 322.599C183.248 315.567 180.134 303.455 181.221 283.118C181.223 283.087 181.241 283.06 181.267 283.046M193.78 331.424C193.791 331.424 193.808 331.425 193.829 331.425C193.874 331.426 193.943 331.427 194.034 331.429C194.215 331.431 194.484 331.435 194.836 331.437C195.53 331.441 196.545 331.441 197.844 331.424C200.226 324.118 199.337 314.059 196.225 304.824C193.124 295.622 187.824 287.263 181.387 283.272C180.323 303.501 183.427 315.542 186.795 322.524C188.483 326.023 190.238 328.252 191.568 329.606C192.233 330.283 192.792 330.74 193.184 331.029C193.38 331.173 193.534 331.274 193.639 331.34C193.691 331.373 193.731 331.396 193.758 331.412C193.767 331.417 193.774 331.421 193.78 331.424Z" fill="#12120F"/>
<path d="M231.247 331.654C239.067 330.152 246.081 324.921 249.741 317.863C253.4 310.806 253.628 302.07 250.34 294.832C257.709 297.951 267.044 295.503 271.927 289.173C277.53 281.908 276.498 270.558 270.031 264.047C263.563 257.537 252.626 256.275 244.568 260.677C236.51 265.081 234.064 270.586 234.748 279.728C229.734 275.912 225.179 274.709 219.57 274.942C213.962 275.174 208.845 278.565 205.364 282.959C201.883 287.353 199.818 292.682 198.059 298.001C198.059 298.001 188.007 324.487 194.711 333.074C205.671 334.862 231.246 331.653 231.246 331.653L231.247 331.654Z" fill="white"/>
<path fill-rule="evenodd" clip-rule="evenodd" d="M244.526 260.602C252.616 256.182 263.595 257.447 270.092 263.986C276.588 270.526 277.626 281.924 271.995 289.226C267.133 295.53 257.881 298.001 250.507 294.996C253.712 302.219 253.455 310.887 249.817 317.903C246.146 324.984 239.109 330.232 231.263 331.739C231.257 331.74 231.25 331.741 231.244 331.741L231.182 331.748C231.133 331.754 231.061 331.763 230.966 331.775C230.776 331.798 230.495 331.831 230.135 331.874C229.414 331.958 228.372 332.076 227.087 332.213C224.518 332.486 220.977 332.831 217.094 333.12C209.332 333.699 200.188 334.055 194.696 333.16C194.675 333.156 194.655 333.145 194.642 333.127C192.948 330.957 192.319 327.667 192.319 323.971C192.318 320.272 192.948 316.149 193.786 312.299C194.624 308.448 195.672 304.867 196.51 302.248C196.929 300.938 197.296 299.869 197.558 299.128C197.689 298.757 197.794 298.468 197.866 298.271C197.902 298.173 197.93 298.098 197.949 298.047C197.958 298.022 197.966 298.003 197.97 297.99L197.977 297.973C199.736 292.653 201.805 287.312 205.295 282.906C208.787 278.498 213.926 275.089 219.566 274.855C225.137 274.625 229.677 275.807 234.648 279.544C234.331 275.053 234.781 271.433 236.302 268.387C237.846 265.297 240.487 262.809 244.526 260.602ZM198.059 298.001C198.14 298.032 198.14 298.032 198.14 298.032L198.139 298.033L198.132 298.051C198.128 298.064 198.121 298.083 198.111 298.108C198.092 298.158 198.065 298.233 198.029 298.331C197.957 298.526 197.852 298.815 197.721 299.185C197.46 299.925 197.094 300.993 196.675 302.3C195.838 304.916 194.792 308.492 193.955 312.336C193.118 316.18 192.491 320.289 192.492 323.971C192.492 327.641 193.115 330.87 194.758 332.994C200.23 333.88 209.332 333.526 217.081 332.948C220.962 332.659 224.5 332.314 227.069 332.041C228.353 331.905 229.394 331.786 230.115 331.702C230.475 331.66 230.755 331.626 230.945 331.603C231.04 331.592 231.112 331.583 231.161 331.577L231.23 331.568L231.233 331.568L231.234 331.568C231.234 331.568 231.234 331.568 231.234 331.569C231.234 331.569 231.234 331.569 231.235 331.569L231.234 331.568C231.237 331.567 231.24 331.567 231.243 331.567C239.032 330.067 246.018 324.854 249.663 317.824C253.31 310.79 253.537 302.082 250.26 294.868C250.246 294.836 250.252 294.797 250.277 294.772C250.302 294.747 250.34 294.739 250.373 294.753C257.706 297.856 266.999 295.42 271.858 289.12C277.433 281.892 276.408 270.59 269.969 264.108C263.53 257.627 252.636 256.368 244.609 260.753C240.59 262.95 237.98 265.415 236.457 268.464C234.934 271.514 234.493 275.158 234.834 279.721C234.837 279.755 234.819 279.787 234.789 279.804C234.759 279.82 234.722 279.817 234.695 279.796C229.699 275.994 225.163 274.796 219.574 275.028C213.998 275.259 208.902 278.632 205.431 283.013C201.96 287.394 199.899 292.711 198.141 298.028C198.141 298.029 198.14 298.03 198.14 298.03C198.14 298.031 198.14 298.031 198.14 298.032L198.059 298.001ZM231.245 331.653C231.244 331.645 231.243 331.637 231.242 331.63L231.245 331.653Z" fill="#12120F"/>
<path fill-rule="evenodd" clip-rule="evenodd" d="M263.842 268.138C263.889 268.129 263.934 268.16 263.943 268.207C263.951 268.254 263.92 268.299 263.873 268.308L263.857 268.223L263.842 268.138ZM263.841 268.138C263.842 268.138 263.842 268.138 263.857 268.223C263.873 268.308 263.873 268.308 263.873 268.308L263.872 268.308L263.869 268.308C263.866 268.309 263.861 268.31 263.855 268.311C263.843 268.314 263.824 268.317 263.799 268.323C263.748 268.333 263.673 268.35 263.572 268.374C263.371 268.423 263.069 268.502 262.672 268.622C261.876 268.863 260.694 269.27 259.152 269.934C256.066 271.262 251.537 273.62 245.771 277.736C234.24 285.969 217.758 301.236 197.977 329.373C197.949 329.412 197.895 329.421 197.856 329.394C197.817 329.366 197.808 329.312 197.835 329.273C217.625 301.125 234.12 285.842 245.671 277.596C251.446 273.473 255.986 271.109 259.083 269.775C260.632 269.108 261.82 268.699 262.622 268.457C263.022 268.336 263.327 268.256 263.531 268.206C263.633 268.182 263.711 268.165 263.763 268.154C263.789 268.148 263.808 268.144 263.821 268.142C263.828 268.14 263.833 268.139 263.836 268.139L263.84 268.138L263.841 268.138Z" fill="#12120F"/>
<path fill-rule="evenodd" clip-rule="evenodd" d="M214.494 307.757C214.494 307.757 214.494 307.757 214.476 307.673C214.458 307.589 214.458 307.589 214.458 307.589L214.458 307.588L214.46 307.588L214.468 307.586C214.475 307.585 214.485 307.583 214.498 307.58C214.525 307.575 214.564 307.567 214.616 307.557C214.719 307.538 214.872 307.51 215.071 307.478C215.469 307.414 216.051 307.332 216.786 307.261C218.257 307.118 220.344 307.018 222.809 307.186C227.74 307.523 234.19 308.934 240.259 313.235C240.298 313.263 240.307 313.317 240.28 313.356C240.252 313.394 240.198 313.404 240.159 313.376C234.123 309.099 227.707 307.694 222.797 307.359C220.343 307.191 218.266 307.291 216.803 307.433C216.071 307.504 215.494 307.585 215.099 307.648C214.902 307.68 214.75 307.708 214.648 307.727C214.597 307.737 214.558 307.744 214.533 307.749C214.52 307.752 214.51 307.754 214.504 307.755L214.497 307.757L214.495 307.757L214.494 307.757ZM214.391 307.691C214.381 307.645 214.411 307.599 214.458 307.589L214.476 307.673L214.494 307.757C214.448 307.768 214.401 307.738 214.391 307.691Z" fill="#12120F"/>
<path fill-rule="evenodd" clip-rule="evenodd" d="M208.861 291.458C208.889 291.419 208.943 291.41 208.982 291.438L208.931 291.508C208.982 291.438 208.982 291.438 208.982 291.438L208.982 291.438L208.983 291.439L208.988 291.442C208.992 291.446 208.999 291.45 209.007 291.456C209.023 291.468 209.047 291.486 209.078 291.509C209.139 291.556 209.229 291.627 209.341 291.72C209.567 291.906 209.884 292.184 210.254 292.551C210.994 293.285 211.944 294.376 212.788 295.808C214.476 298.673 215.735 302.899 214.026 308.335C214.011 308.38 213.963 308.406 213.917 308.391C213.872 308.377 213.846 308.329 213.861 308.283C215.553 302.901 214.307 298.726 212.638 295.896C211.804 294.479 210.863 293.399 210.132 292.673C209.766 292.31 209.453 292.036 209.231 291.853C209.12 291.761 209.032 291.692 208.972 291.646C208.942 291.624 208.919 291.606 208.904 291.595C208.896 291.589 208.89 291.585 208.887 291.582L208.882 291.579L208.881 291.579L208.881 291.578C208.881 291.578 208.881 291.578 208.881 291.578C208.881 291.578 208.881 291.578 208.896 291.557L208.881 291.578C208.842 291.551 208.833 291.497 208.861 291.458Z" fill="#12120F"/>
<path fill-rule="evenodd" clip-rule="evenodd" d="M244.907 278.19C244.908 278.142 244.948 278.105 244.995 278.106C249.124 278.202 253.279 279.171 256.401 280.114C257.962 280.586 259.265 281.052 260.179 281.4C260.635 281.574 260.995 281.718 261.24 281.819C261.362 281.87 261.456 281.91 261.52 281.937C261.552 281.95 261.576 281.961 261.592 281.968C261.6 281.971 261.606 281.974 261.61 281.976L261.616 281.978L261.617 281.978C261.617 281.978 261.617 281.978 261.582 282.057C261.547 282.136 261.547 282.136 261.547 282.136L261.547 282.136L261.541 282.134C261.537 282.132 261.531 282.13 261.523 282.126C261.507 282.119 261.483 282.109 261.452 282.096C261.389 282.069 261.296 282.029 261.174 281.979C260.93 281.879 260.572 281.735 260.117 281.561C259.207 281.214 257.907 280.75 256.351 280.28C253.236 279.339 249.098 278.374 244.991 278.278C244.943 278.277 244.906 278.238 244.907 278.19ZM261.661 282.092C261.642 282.136 261.591 282.156 261.547 282.136L261.582 282.057L261.617 281.978C261.66 281.998 261.68 282.049 261.661 282.092Z" fill="#12120F"/>
<path fill-rule="evenodd" clip-rule="evenodd" d="M253.553 263.565C253.6 263.555 253.646 263.584 253.656 263.631L253.571 263.649C253.656 263.631 253.656 263.631 253.656 263.631L253.656 263.631L253.656 263.632L253.657 263.635C253.657 263.638 253.658 263.642 253.659 263.647C253.661 263.657 253.664 263.672 253.668 263.692C253.676 263.731 253.686 263.789 253.699 263.865C253.724 264.017 253.756 264.238 253.786 264.518C253.846 265.079 253.896 265.878 253.855 266.829C253.773 268.731 253.331 271.248 251.885 273.7C251.86 273.742 251.807 273.755 251.766 273.731C251.725 273.707 251.711 273.654 251.735 273.613C253.163 271.192 253.601 268.705 253.682 266.822C253.722 265.88 253.673 265.091 253.614 264.537C253.585 264.26 253.553 264.042 253.528 263.893C253.516 263.819 253.505 263.762 253.498 263.724C253.494 263.705 253.491 263.691 253.49 263.681C253.489 263.677 253.488 263.673 253.487 263.671L253.487 263.668L253.487 263.668L253.487 263.667C253.476 263.621 253.506 263.575 253.553 263.565Z" fill="#12120F"/>
<path fill-rule="evenodd" clip-rule="evenodd" d="M225.035 281.512C225.076 281.486 225.129 281.498 225.155 281.539L225.082 281.585L225.009 281.631C224.983 281.591 224.995 281.538 225.035 281.512ZM226.442 294.504C228.067 291.615 227.76 288.401 227.045 285.904C226.68 284.631 226.208 283.54 225.827 282.768C225.636 282.382 225.469 282.075 225.348 281.864C225.288 281.759 225.24 281.678 225.207 281.623C225.19 281.595 225.177 281.574 225.168 281.56C225.164 281.553 225.161 281.548 225.158 281.544L225.156 281.54L225.155 281.539L225.155 281.539C225.155 281.539 225.155 281.539 225.082 281.585C225.009 281.631 225.009 281.631 225.009 281.631L225.009 281.632L225.009 281.632L225.012 281.636C225.014 281.64 225.017 281.645 225.021 281.651C225.03 281.665 225.042 281.685 225.059 281.712C225.091 281.766 225.139 281.846 225.198 281.95C225.317 282.158 225.483 282.461 225.672 282.844C226.049 283.61 226.517 284.69 226.878 285.951C227.601 288.475 227.894 291.705 226.201 294.576C226.183 294.605 226.185 294.642 226.204 294.67C226.224 294.697 226.258 294.711 226.291 294.705L226.275 294.62C226.291 294.705 226.291 294.705 226.291 294.705L226.293 294.704L226.298 294.703C226.303 294.703 226.311 294.701 226.32 294.699C226.34 294.696 226.369 294.691 226.407 294.684C226.484 294.672 226.598 294.654 226.746 294.633C227.042 294.591 227.476 294.537 228.024 294.492C229.12 294.4 230.673 294.34 232.497 294.465C236.145 294.714 240.877 295.702 245.217 298.654C245.256 298.681 245.31 298.671 245.337 298.631C245.364 298.592 245.354 298.538 245.314 298.511C240.941 295.536 236.177 294.543 232.509 294.292C230.674 294.167 229.113 294.228 228.01 294.32C227.458 294.365 227.021 294.419 226.722 294.462C226.608 294.478 226.515 294.492 226.442 294.504Z" fill="#12120F"/>
</g>
<defs>
<clipPath id="clip0_351_11537">
<rect width="300" height="358" fill="white"/>
</clipPath>
</defs>
</svg>
