<svg width="300" height="272" viewBox="0 0 300 272" fill="none" xmlns="http://www.w3.org/2000/svg">
<g clip-path="url(#clip0_351_11806)">
<path d="M168.739 80.4133C168.739 80.4133 172.749 75.321 165.885 74.2205C163.124 73.7821 160.382 73.8847 157.845 74.2671C158.302 70.3872 152.38 70.4525 148.957 73.4743C147.139 75.0785 146.131 76.5241 145.562 77.5967C144.471 76.5894 142.988 76.0298 141.496 76.0671C140.647 76.0858 140.647 77.4008 141.496 77.3822C142.568 77.3542 143.632 77.7086 144.471 78.3894C142.475 78.4454 138.334 78.9024 136.646 81.5232C134.37 85.0486 138.511 85.7761 138.511 85.7761C130.071 88.7979 129.856 96.2871 132.095 98.4509C133.802 100.102 135.154 99.9432 135.154 99.9432C135.154 99.9432 132.123 104.513 135.303 109.484C137.43 112.804 143.734 113.364 143.734 113.364C143.734 113.364 165.68 100.792 168.655 99.3089C171.639 97.8167 169.205 92.2487 169.205 92.2487C169.205 92.2487 174.064 94.2912 174.381 90.057C174.699 85.8227 168.739 80.4133 168.739 80.4133Z" fill="#12120F"/>
<path d="M130.369 125.526C130.369 125.526 135.163 125.526 137.532 124.799C139.901 124.071 144.461 106.929 144.461 106.929L158.684 115.5C158.684 115.5 156.316 127.354 156.129 129.173C155.942 131.001 161.035 135.431 161.035 135.431C161.035 135.431 157.388 145.951 152.464 162.058C147.539 178.165 130.313 200.763 128.746 201.435C127.179 202.106 125.836 168.326 125.836 156.91C125.836 145.494 130.369 125.517 130.369 125.517V125.526Z" fill="white"/>
<path d="M144.294 107.526C144.126 108.15 143.827 109.223 143.436 110.547C143.184 111.788 143.119 113.075 143.324 114.325C144.079 118.997 148.155 122.541 152.585 123.67C154.021 124.034 155.504 124.183 156.987 124.155C157.733 120.219 158.675 115.5 158.675 115.5L144.611 107.031C144.49 107.143 144.378 107.32 144.294 107.526Z" fill="#12120F"/>
<path d="M156.129 129.182C156.129 129.098 156.148 128.995 156.166 128.874C152.576 129.676 148.808 129.611 145.198 128.632C143.184 128.091 141.179 127.326 139.341 126.328C138.623 125.936 137.858 125.461 137.178 124.901C134.715 125.535 130.36 125.526 130.36 125.526C130.36 125.526 125.827 145.513 125.827 156.919C125.827 168.326 127.17 202.116 128.737 201.444C130.304 200.773 147.53 178.174 152.455 162.068C157.379 145.961 161.026 135.44 161.026 135.44C161.026 135.44 155.943 131.001 156.12 129.182H156.129Z" fill="#12120F"/>
<path d="M162.537 136.914C158.666 138.117 154.702 139.003 150.692 139.544C149.675 139.684 148.649 139.852 147.623 139.889C147.493 139.889 147.288 139.936 147.176 139.861C147.045 139.768 146.989 139.217 146.943 139.059C146.812 138.574 146.681 138.089 146.551 137.604C146.019 135.627 145.497 133.659 144.965 131.682C145.049 131.607 145.124 131.523 145.208 131.448C145.814 130.87 144.975 129.854 144.359 130.441C142.886 131.849 141.421 133.258 139.948 134.666C139.211 135.366 138.474 136.074 137.737 136.774C137.523 136.979 137.318 137.175 137.103 137.38C137.066 137.417 137.028 137.445 136.991 137.483C136.833 137.11 136.544 136.737 136.329 136.401C134.436 133.454 131.89 130.973 130.211 127.886C129.81 127.149 128.616 127.699 129.026 128.445C130.901 131.887 133.811 134.601 135.769 137.986C135.984 138.369 136.198 138.77 136.655 138.891C137.103 139.012 137.467 138.816 137.793 138.527C138.614 137.818 139.369 137.016 140.153 136.27C141.393 135.086 142.634 133.901 143.874 132.717C144.247 134.116 144.62 135.515 144.993 136.904C145.227 137.772 145.46 138.63 145.684 139.497C145.879 140.234 146.075 140.952 146.915 141.148C147.651 141.316 148.528 141.111 149.265 141.027C150.151 140.924 151.037 140.812 151.923 140.682C153.62 140.43 155.309 140.113 156.978 139.74C158.918 139.301 160.839 138.788 162.742 138.192C163.535 137.94 163.311 136.643 162.499 136.895L162.537 136.914Z" fill="#FFFF00"/>
<path d="M168.217 96.3804C168.105 98.423 169.14 115.472 165.12 120.135C162.994 122.597 157.472 121.646 154.749 121.376C146.364 120.555 141.431 115.593 141.067 108.692C141.067 108.692 132.514 105.073 137.122 98.8427C140.209 94.6737 143.865 99.6447 143.865 99.6447C143.865 99.6447 146.01 97.5929 147.353 91.8104C149.34 84.2373 163.451 80.917 166.09 88.1264C166.09 88.1264 168.412 93.0229 168.226 96.3804H168.217Z" fill="white"/>
<path d="M143.865 99.6446C143.865 99.6446 143.51 102.181 143.958 102.331C144.406 102.48 145.525 103.301 145.823 102.331C146.122 101.361 146.346 95.6901 146.719 94.7948C147.092 93.8994 148.435 93.0787 149.479 91.5865C150.524 90.0942 150.524 87.7066 150.972 87.1843C151.419 86.662 154.702 88.5273 157.314 88.5273C159.925 88.5273 160.224 86.5128 160.224 86.5128C160.224 86.5128 166.193 90.4673 168.431 90.3927C170.669 90.318 169.476 85.6175 163.283 83.0806C157.09 80.5438 152.249 82.5583 149.713 84.5729C147.176 86.5874 143.874 99.6353 143.874 99.6353L143.865 99.6446Z" fill="#12120F"/>
<path d="M80.1834 257.814C82.5337 261.171 114.748 268.894 120.791 265.536L60.6072 21.3879C59.1191 27.4026 44.4719 87.2227 47.9788 97.4156C49.9668 103.194 61.8693 122.681 72.3322 139.81C81.3073 154.504 89.2231 167.464 88.9131 168.549C88.2416 170.9 84.5483 184.656 82.5337 207.143C80.5192 229.629 79.3907 256.676 80.1834 257.814ZM80.1834 257.814L80.5937 257.528C80.5935 257.528 80.5932 257.527 80.593 257.527L80.1834 257.814ZM171.553 197.82C171.553 197.82 171.553 197.82 171.229 198.035L170.652 197.961L171.136 198.087C170.652 197.961 170.652 197.961 170.652 197.961L170.652 197.962L170.652 197.963L170.65 197.968L170.645 197.988L170.625 198.067C170.608 198.136 170.582 198.237 170.549 198.369C170.483 198.633 170.388 199.018 170.272 199.502C170.04 200.471 169.725 201.839 169.388 203.438C168.715 206.634 167.955 210.767 167.616 214.484L168.114 214.529L167.616 214.484C167.444 216.382 167.638 220.245 168.015 224.921C168.393 229.616 168.96 235.179 169.548 240.507C170.136 245.837 170.745 250.935 171.206 254.7C171.437 256.583 171.632 258.133 171.768 259.212L171.818 259.609C171.863 259.959 171.899 260.244 171.926 260.456C171.648 260.524 171.242 260.622 170.724 260.744C169.679 260.992 168.181 261.342 166.366 261.747C162.736 262.559 157.846 263.595 152.801 264.495C147.752 265.396 142.562 266.157 138.327 266.424C136.208 266.557 134.344 266.565 132.865 266.409C131.358 266.25 130.352 265.93 129.848 265.494L129.847 265.493C129.743 265.404 129.563 265.15 129.323 264.685C129.094 264.241 128.841 263.665 128.572 262.997C128.037 261.663 127.458 259.995 126.922 258.359C126.387 256.725 125.898 255.129 125.542 253.942C125.364 253.348 125.22 252.857 125.12 252.514C125.07 252.343 125.032 252.209 125.005 252.118L124.976 252.014L124.968 251.987L124.966 251.981L124.966 251.979L124.966 251.979C124.966 251.978 124.966 251.978 124.485 252.115L124.966 251.978L123.987 252.063L123.987 252.064L123.987 252.065L123.987 252.071L123.984 252.096L123.973 252.196C123.963 252.284 123.948 252.413 123.929 252.578C123.89 252.909 123.831 253.383 123.753 253.956C123.597 255.104 123.364 256.645 123.057 258.227C122.748 259.811 122.368 261.42 121.919 262.708C121.695 263.353 121.459 263.902 121.214 264.323C120.963 264.754 120.734 264.997 120.549 265.099L120.548 265.099C119.892 265.464 118.818 265.705 117.372 265.807C115.942 265.909 114.206 265.871 112.266 265.72C108.388 265.418 103.744 264.667 99.2061 263.704C94.6686 262.742 90.2512 261.571 86.8276 260.435C85.1147 259.866 83.6606 259.309 82.5681 258.795C82.0215 258.538 81.5746 258.296 81.2344 258.073C80.9065 257.858 80.7099 257.681 80.6109 257.552C80.6082 257.543 80.6045 257.53 80.6001 257.512C80.5853 257.452 80.569 257.363 80.5528 257.24C80.5207 256.994 80.4939 256.65 80.4736 256.209C80.4332 255.33 80.42 254.103 80.4329 252.583C80.4586 249.544 80.588 245.361 80.8053 240.506C81.2399 230.798 82.0252 218.422 83.0317 207.187C85.0431 184.736 88.7298 171.011 89.3939 168.687C89.4316 168.555 89.424 168.426 89.4126 168.336C89.4001 168.237 89.3756 168.133 89.3453 168.029C89.2846 167.821 89.1877 167.569 89.0633 167.282C88.8135 166.706 88.4313 165.943 87.9395 165.023C86.9544 163.179 85.5095 160.669 83.75 157.698C80.7689 152.664 76.8737 146.286 72.7582 139.549C72.0144 138.331 71.2635 137.102 70.5095 135.866C65.5813 127.792 60.5197 119.46 56.4596 112.477C52.3872 105.473 49.3554 99.8798 48.4516 97.2529C48.0225 96.0059 47.8699 93.8859 47.9659 91.0627C48.0613 88.2598 48.3984 84.8276 48.9084 80.9973C49.9282 73.3378 51.6347 64.1221 53.4583 55.2329C55.2816 46.3454 57.2204 37.7922 58.7035 31.4603C59.4451 28.2946 60.0726 25.6845 60.5147 23.866C60.7358 22.9567 60.9105 22.2454 61.0299 21.7615C61.0482 21.6874 61.0652 21.6186 61.0808 21.5552L77.3284 27.2927L77.3217 27.4644C77.3078 27.8169 77.2874 28.3348 77.2611 28.996C77.2085 30.3184 77.1324 32.2139 77.0386 34.5065C76.8509 39.0917 76.5921 45.2649 76.3077 51.6172C75.7379 64.3434 75.0673 77.7298 74.6614 80.5662L74.6614 80.5664C74.6366 80.7401 74.6703 80.9258 74.7083 81.0777C74.7498 81.2441 74.8142 81.4356 74.8952 81.6456C75.0576 82.0664 75.3017 82.5998 75.612 83.2237C76.2335 84.4734 77.1387 86.1223 78.2366 88.029C80.4335 91.8444 83.4162 96.717 86.4811 101.545C89.546 106.373 92.6965 111.161 95.2295 114.807C96.4954 116.63 97.6107 118.172 98.4858 119.294C98.9228 119.853 99.3051 120.315 99.6196 120.656C99.7767 120.826 99.9225 120.972 100.054 121.088C100.177 121.195 100.319 121.305 100.468 121.369C100.819 121.519 101.559 121.695 102.517 121.887C103.498 122.084 104.765 122.309 106.214 122.55C109.113 123.032 112.756 123.579 116.322 124.095C119.889 124.61 123.382 125.094 125.983 125.449C127.284 125.627 128.362 125.772 129.114 125.873C129.259 125.893 129.392 125.91 129.512 125.927C129.634 125.943 129.743 125.957 129.838 125.97L129.819 126.361C129.792 126.916 129.753 127.73 129.704 128.764C129.605 130.833 129.467 133.788 129.309 137.328C128.991 144.408 128.592 153.833 128.262 163.211C127.933 172.587 127.674 181.921 127.637 188.817C127.619 192.263 127.657 195.111 127.77 197.053C127.826 198.019 127.903 198.785 128.006 199.293C128.055 199.534 128.121 199.776 128.227 199.953C128.278 200.038 128.379 200.179 128.558 200.253C128.779 200.343 128.989 200.285 129.131 200.188C129.278 200.088 129.419 199.917 129.54 199.755C129.674 199.576 129.83 199.344 130.004 199.067C130.354 198.511 130.796 197.749 131.315 196.814C132.352 194.943 133.709 192.359 135.27 189.306C138.395 183.2 142.348 175.204 146.23 167.258C150.112 159.312 153.924 151.413 156.765 145.502C158.186 142.546 159.364 140.087 160.187 138.366C160.598 137.506 160.921 136.831 161.141 136.37L161.212 136.221C161.372 136.344 161.569 136.495 161.799 136.673C162.488 137.202 163.478 137.964 164.68 138.895C167.085 140.756 170.339 143.289 173.74 145.979C180.562 151.376 187.917 157.36 190.235 159.844C190.777 160.424 191.564 161.633 192.553 163.374C193.534 165.1 194.69 167.306 195.971 169.843C198.112 174.086 200.594 179.241 203.177 184.606C203.684 185.659 204.195 186.72 204.708 187.783C207.833 194.264 211.034 200.846 213.895 206.313C216.746 211.76 219.289 216.158 221.095 218.225C221.278 218.434 221.565 218.615 221.875 218.774C222.2 218.941 222.605 219.112 223.073 219.287C224.008 219.636 225.23 220.011 226.63 220.397C229.431 221.169 232.983 221.995 236.469 222.752C239.956 223.51 243.384 224.2 245.939 224.701C247.217 224.951 248.277 225.154 249.018 225.295C249.169 225.323 249.307 225.35 249.431 225.373C249.506 225.387 249.576 225.4 249.64 225.412L243.688 246.211C243.46 246.202 243.137 246.188 242.727 246.169C241.857 246.128 240.599 246.062 239.048 245.959C235.946 245.753 231.674 245.402 226.995 244.82C217.609 243.654 206.685 241.572 200.238 237.933C200.085 237.846 199.822 237.626 199.444 237.238C199.077 236.861 198.633 236.358 198.122 235.745C197.1 234.517 195.827 232.867 194.394 230.936C191.528 227.073 188.036 222.107 184.65 217.2C181.266 212.293 177.991 207.448 175.563 203.829C174.349 202.02 173.346 200.517 172.647 199.467C172.298 198.942 172.024 198.53 171.838 198.25L171.626 197.93L171.571 197.848L171.558 197.827L171.554 197.822L171.553 197.82ZM61.2018 21.0676L77.8424 26.944C77.8424 26.944 75.9771 74.9012 75.1564 80.6371L61.2018 21.0676Z" fill="#FFFF00" stroke="#12120F"/>
<path d="M176.713 176.094C176.424 176.579 177.142 177.083 177.432 176.598C181.116 170.377 185.452 164.548 190.349 159.241C190.162 159.055 189.957 158.85 189.733 158.635C186.255 162.403 183.046 166.423 180.164 170.666C178.961 172.448 177.805 174.257 176.713 176.104V176.094Z" fill="#12120F"/>
<path d="M100.524 120.816C102.679 127.979 103.527 135.496 103.005 142.966C102.968 143.526 103.845 143.526 103.882 142.966C104.395 135.626 103.593 128.221 101.532 121.161C101.131 121.068 100.832 120.984 100.664 120.909C100.627 120.89 100.571 120.862 100.524 120.825V120.816Z" fill="#12120F"/>
<path d="M155.905 172.998C157.193 171.347 158.461 169.696 159.72 168.027C160.97 166.376 162.276 164.744 163.423 163.028C164.038 162.114 164.271 161.191 164.066 160.109C163.842 158.924 163.488 157.74 163.199 156.574L162.052 151.976C163.022 151.705 163.992 151.435 164.962 151.164C165.82 150.922 166.864 150.782 167.629 150.316C168.375 149.868 168.478 149.113 168.534 148.311C168.599 147.303 168.655 146.296 168.692 145.289C168.748 144.011 168.767 142.724 168.785 141.446C168.338 141.101 167.899 140.756 167.48 140.43C167.48 141.689 167.461 142.948 167.424 144.207C167.396 145.139 167.349 146.081 167.303 147.014C167.275 147.443 167.256 147.872 167.228 148.311C167.2 148.712 167.228 149.057 166.836 149.252C166.51 149.42 166.109 149.476 165.754 149.579C165.279 149.71 164.794 149.849 164.318 149.98C163.46 150.222 162.602 150.456 161.744 150.698L161.362 149.15C161.156 148.329 159.888 148.674 160.093 149.495C160.625 151.612 161.147 153.739 161.679 155.856C161.94 156.919 162.21 157.973 162.471 159.036C162.714 159.997 163.096 160.967 162.593 161.909C162.145 162.729 161.511 163.466 160.951 164.222C160.336 165.052 159.72 165.882 159.095 166.703C157.845 168.363 156.586 170.013 155.309 171.655C150.282 178.128 145.049 184.451 139.64 190.607C136.572 194.095 133.438 197.536 130.257 200.922C129.679 201.537 130.603 202.47 131.19 201.854C136.973 195.708 142.568 189.385 147.959 182.893C150.664 179.638 153.322 176.337 155.924 172.989L155.905 172.998Z" fill="#12120F"/>
<path d="M125.548 238.349C125.371 241.334 125.193 244.318 125.025 247.303C124.979 248.152 126.294 248.142 126.341 247.303C126.956 236.745 127.581 226.178 128.197 215.621C128.374 212.608 128.551 209.605 128.728 206.592C128.747 206.322 128.616 206.135 128.439 206.042C128.532 205.912 128.56 205.734 128.476 205.52C124.932 196.818 122.731 187.65 121.276 178.38C119.812 169.044 119.094 159.605 118.422 150.185C118.376 149.523 118.31 148.861 118.282 148.199C118.254 147.537 118.422 147.061 118.823 146.548C119.644 145.503 120.577 144.543 121.453 143.545C123.356 141.372 125.268 139.199 127.171 137.016C127.73 136.382 126.798 135.449 126.238 136.084L124.914 137.594C123.841 136.718 122.787 135.813 121.771 134.871C121.565 134.675 121.08 134.367 120.968 134.116C120.857 133.873 121.174 133.463 121.286 133.22C121.631 132.511 121.985 131.803 122.349 131.103C123.431 128.995 124.596 126.934 125.828 124.91C125.38 124.845 124.904 124.78 124.41 124.714C123.114 126.888 121.882 129.098 120.745 131.355C120.381 132.082 119.905 132.847 119.653 133.621C119.392 134.442 119.915 134.936 120.465 135.449C121.621 136.531 122.815 137.576 124.046 138.574C123.058 139.702 122.069 140.831 121.08 141.95C120.222 142.929 119.364 143.909 118.506 144.888C117.788 145.699 117.061 146.501 116.958 147.63C116.865 148.758 117.07 149.962 117.154 151.081C117.238 152.293 117.331 153.496 117.424 154.709C117.602 157.096 117.797 159.484 118.003 161.872C118.851 171.469 120.036 181.075 122.293 190.457C123.552 195.699 125.156 200.857 127.189 205.846C127.264 206.024 127.385 206.135 127.525 206.21C127.45 206.303 127.404 206.425 127.394 206.574C126.77 217.159 126.154 227.745 125.529 238.331L125.548 238.349Z" fill="#12120F"/>
<path d="M63.0503 25.3864C63.0503 25.3864 60.0844 23.4465 60.7186 20.9377C61.3435 18.4288 66.0068 18.9045 66.0068 18.9045L63.0596 25.3864H63.0503Z" fill="#12120F"/>
<path d="M74.4752 11.5553V268.353C74.4752 270.601 76.3032 272.429 78.5509 272.419L242.736 272.196C244.984 272.196 246.802 270.368 246.802 268.129V11.5553C246.802 9.30757 244.984 7.48889 242.736 7.48889H78.5509C76.3032 7.48889 74.4845 9.30757 74.4845 11.5553H74.4752ZM232.924 180.292H88.3624C86.1147 180.292 84.296 178.473 84.296 176.225V33.5753C84.296 31.3276 86.1147 29.5089 88.3624 29.5089H232.924C235.172 29.5089 236.991 31.3276 236.991 33.5753V176.225C236.991 178.473 235.172 180.292 232.924 180.292Z" fill="#12120F"/>
<path d="M123.403 189.973C123.403 189.973 124.513 189.227 125.259 189.068C126.005 188.909 127.488 193.041 127.749 193.153C128.01 193.256 130.556 186.102 131.358 186C132.151 185.897 134.324 186.102 134.277 186.373C134.222 186.634 129.614 196.287 129.241 196.716C128.868 197.135 126.163 196.93 126.163 196.93C126.163 196.93 122.927 190.094 123.403 189.982V189.973Z" fill="#FFFF00"/>
<path d="M123.403 206.751C123.403 206.751 124.513 206.005 125.259 205.846C126.005 205.688 127.488 209.819 127.749 209.931C128.01 210.034 130.556 202.88 131.358 202.778C132.151 202.675 134.324 202.88 134.277 203.151C134.222 203.412 129.614 213.065 129.241 213.494C128.868 213.914 126.163 213.709 126.163 213.709C126.163 213.709 122.927 206.872 123.403 206.76V206.751Z" fill="#FFFF00"/>
<path d="M85.0235 222.429C85.0235 222.429 86.1334 221.683 86.8795 221.524C87.6256 221.366 89.1085 225.497 89.3697 225.609C89.6308 225.712 92.177 218.558 92.9791 218.456C93.7811 218.353 95.9449 218.558 95.8983 218.829C95.8423 219.09 91.235 228.743 90.8619 229.172C90.4889 229.592 87.7842 229.387 87.7842 229.387C87.7842 229.387 84.5478 222.55 85.0235 222.438V222.429Z" fill="#FFFF00"/>
<path d="M85.0235 239.655C85.0235 239.655 86.1334 238.909 86.8795 238.751C87.6256 238.592 89.1085 242.724 89.3697 242.836C89.6308 242.938 92.177 235.785 92.9791 235.682C93.7718 235.58 95.9449 235.785 95.8983 236.055C95.8423 236.316 91.235 245.969 90.8619 246.398C90.4889 246.818 87.7842 246.613 87.7842 246.613C87.7842 246.613 84.5478 239.777 85.0235 239.665V239.655Z" fill="#FFFF00"/>
<path d="M85.0235 256.881C85.0235 256.881 86.1334 256.135 86.8795 255.977C87.6256 255.818 89.1085 259.95 89.3697 260.062C89.6308 260.164 92.177 253.011 92.9791 252.908C93.7811 252.806 95.9449 253.011 95.8983 253.281C95.8423 253.542 91.235 263.195 90.8619 263.624C90.4889 264.044 87.7842 263.839 87.7842 263.839C87.7842 263.839 84.5478 257.002 85.0235 256.891V256.881Z" fill="#FFFF00"/>
<path d="M235.088 186.009H141.45C140.285 186.009 139.342 186.952 139.342 188.116V194.552C139.342 195.716 140.285 196.66 141.45 196.66H235.088C236.252 196.66 237.196 195.716 237.196 194.552V188.116C237.196 186.952 236.252 186.009 235.088 186.009Z" fill="white"/>
<path d="M235.088 202.479H141.45C140.285 202.479 139.342 203.423 139.342 204.587V211.023C139.342 212.187 140.285 213.13 141.45 213.13H235.088C236.252 213.13 237.196 212.187 237.196 211.023V204.587C237.196 203.423 236.252 202.479 235.088 202.479Z" fill="white"/>
<path d="M235.088 219.361H103.574C102.41 219.361 101.466 220.304 101.466 221.469V227.904C101.466 229.068 102.41 230.012 103.574 230.012H235.088C236.252 230.012 237.196 229.068 237.196 227.904V221.469C237.196 220.304 236.252 219.361 235.088 219.361Z" fill="white"/>
<path d="M235.088 236.241H102.968C101.804 236.241 100.86 237.185 100.86 238.349V244.785C100.86 245.949 101.804 246.892 102.968 246.892H235.088C236.252 246.892 237.196 245.949 237.196 244.785V238.349C237.196 237.185 236.252 236.241 235.088 236.241Z" fill="white"/>
<path d="M235.088 253.123H103.07C101.906 253.123 100.963 254.066 100.963 255.23V261.666C100.963 262.83 101.906 263.774 103.07 263.774H235.088C236.252 263.774 237.196 262.83 237.196 261.666V255.23C237.196 254.066 236.252 253.123 235.088 253.123Z" fill="white"/>
<path d="M114.29 185.505H87.6164C85.8084 185.505 84.3428 186.971 84.3428 188.779V205.221C84.3428 207.029 85.8084 208.495 87.6164 208.495H114.29C116.098 208.495 117.564 207.029 117.564 205.221V188.779C117.564 186.971 116.098 185.505 114.29 185.505Z" fill="#FFFF00"/>
<path d="M89.9016 13.6909L91.0581 16.0226C91.1327 16.1811 91.2913 16.293 91.4685 16.321L94.0426 16.6941C94.481 16.7594 94.6582 17.3003 94.3411 17.6174L92.4758 19.4361C92.3452 19.5573 92.2892 19.7345 92.3172 19.9117L92.7556 22.4765C92.8302 22.9149 92.3732 23.2507 91.9721 23.0455L89.6685 21.833C89.5099 21.7491 89.3234 21.7491 89.1648 21.833L86.8612 23.0455C86.4695 23.2507 86.0031 22.9149 86.0777 22.4765L86.5161 19.9117C86.5441 19.7345 86.4881 19.5573 86.3575 19.4361L84.4922 17.6174C84.1751 17.3096 84.3523 16.7594 84.7907 16.6941L87.3648 16.321C87.542 16.293 87.6912 16.1811 87.7752 16.0226L88.9317 13.6909C89.1275 13.2899 89.6965 13.2899 89.9016 13.6909Z" fill="#FFFF00"/>
<path d="M103.873 13.6909L105.029 16.0226C105.104 16.1811 105.262 16.293 105.44 16.321L108.014 16.6941C108.452 16.7594 108.629 17.3003 108.312 17.6174L106.447 19.4361C106.316 19.5573 106.26 19.7345 106.288 19.9117L106.727 22.4765C106.801 22.9149 106.344 23.2507 105.943 23.0455L103.64 21.833C103.481 21.7491 103.295 21.7491 103.136 21.833L100.832 23.0455C100.441 23.2507 99.9743 22.9149 100.049 22.4765L100.487 19.9117C100.515 19.7345 100.459 19.5573 100.329 19.4361L98.4634 17.6174C98.1463 17.3096 98.3235 16.7594 98.7618 16.6941L101.336 16.321C101.513 16.293 101.662 16.1811 101.746 16.0226L102.903 13.6909C103.099 13.2899 103.668 13.2899 103.873 13.6909Z" fill="#FFFF00"/>
<path d="M117.834 13.6909L118.991 16.0226C119.065 16.1811 119.224 16.293 119.401 16.321L121.975 16.6941C122.414 16.7594 122.591 17.3003 122.274 17.6174L120.409 19.4361C120.278 19.5573 120.222 19.7345 120.25 19.9117L120.688 22.4765C120.763 22.9149 120.306 23.2507 119.905 23.0455L117.601 21.833C117.443 21.7491 117.256 21.7491 117.098 21.833L114.794 23.0455C114.402 23.2507 113.936 22.9149 114.01 22.4765L114.449 19.9117C114.477 19.7345 114.421 19.5573 114.29 19.4361L112.425 17.6174C112.108 17.3096 112.285 16.7594 112.723 16.6941L115.298 16.321C115.475 16.293 115.624 16.1811 115.708 16.0226L116.864 13.6909C117.06 13.2899 117.629 13.2899 117.834 13.6909Z" fill="#FFFF00"/>
<path d="M131.806 13.6909L132.962 16.0226C133.037 16.1811 133.195 16.293 133.372 16.321L135.947 16.6941C136.385 16.7594 136.562 17.3003 136.245 17.6174L134.38 19.4361C134.249 19.5573 134.193 19.7345 134.221 19.9117L134.659 22.4765C134.734 22.9149 134.277 23.2507 133.876 23.0455L131.572 21.833C131.414 21.7491 131.227 21.7491 131.069 21.833L128.765 23.0455C128.373 23.2507 127.907 22.9149 127.982 22.4765L128.42 19.9117C128.448 19.7345 128.392 19.5573 128.261 19.4361L126.396 17.6174C126.079 17.3096 126.256 16.7594 126.695 16.6941L129.269 16.321C129.446 16.293 129.595 16.1811 129.679 16.0226L130.836 13.6909C131.031 13.2899 131.6 13.2899 131.806 13.6909Z" fill="#FFFF00"/>
<path d="M145.777 13.6909L146.933 16.0226C147.008 16.1811 147.166 16.293 147.344 16.321L149.918 16.6941C150.356 16.7594 150.533 17.3003 150.216 17.6174L148.351 19.4361C148.22 19.5573 148.164 19.7345 148.192 19.9117L148.631 22.4765C148.705 22.9149 148.248 23.2507 147.847 23.0455L145.544 21.833C145.385 21.7491 145.199 21.7491 145.04 21.833L142.736 23.0455C142.345 23.2507 141.878 22.9149 141.953 22.4765L142.391 19.9117C142.419 19.7345 142.363 19.5573 142.233 19.4361L140.367 17.6174C140.05 17.3096 140.227 16.7594 140.666 16.6941L143.24 16.321C143.417 16.293 143.566 16.1811 143.65 16.0226L144.807 13.6909C145.003 13.2899 145.572 13.2899 145.777 13.6909Z" fill="white"/>
<path d="M74.4845 29.0145C74.4845 29.0145 66.5662 27.3636 63.0501 25.3864C63.0501 25.3864 65.904 16.5915 66.6781 15.4909C67.4523 14.3904 67.4523 9.11155 67.7787 6.91981C68.1051 4.71873 73.1694 3.17985 75.4731 2.62958C77.7861 2.07931 79.325 8.23485 80.0898 9.22347C80.8639 10.2121 79.4276 11.2007 77.8887 10.6504C76.3498 10.1002 75.5757 8.78512 75.5757 8.78512C75.5757 8.78512 74.5031 9.64316 74.4658 11.5644C74.4285 13.4857 74.4752 29.0145 74.4752 29.0145H74.4845Z" fill="white"/>
<path d="M68.8326 22.3089C67.4243 21.8985 65.9413 21.3949 64.645 20.6394C63.8056 23.0457 63.0501 25.3773 63.0501 25.3773C66.5662 27.3545 74.4845 29.0053 74.4845 29.0053C74.4845 29.0053 74.4845 26.5245 74.4658 23.4281C72.5632 23.2135 70.6699 22.8405 68.8326 22.2995V22.3089Z" fill="white"/>
<path d="M73.6452 3.51572C73.6452 3.51572 74.1115 1.17475 75.9862 0.512561C77.8608 -0.140299 78.8961 1.25869 80.2018 0.792358C81.5168 0.32603 82.7293 -0.522688 84.2308 0.419296C85.7324 1.36128 85.6392 1.54781 87.8869 1.92087C90.1346 2.29394 90.1346 6.22975 90.89 7.45153C91.6361 8.67331 88.9221 8.85984 87.7003 7.91786C87.7003 7.91786 88.5397 9.7925 86.9542 10.3521C85.3594 10.9117 84.52 8.38419 83.7645 8.75725C83.0184 9.13031 83.2982 10.0723 82.3562 10.3521C81.4142 10.6319 79.2598 7.82459 78.3271 6.78934C77.3851 5.75409 73.6359 3.50639 73.6359 3.50639L73.6452 3.51572Z" fill="white"/>
<path d="M246.961 242.612C246.961 242.612 249.125 243.022 248.919 240.112C248.826 238.751 251.736 238.825 251.12 235.188C250.468 231.299 252.324 233.313 252.715 231.206C252.911 230.142 251.773 227.568 252.529 226.617C254.562 224.033 252.893 221.403 251.307 219.305C250.738 218.549 250.645 217.384 250.085 216.992C248.22 215.677 246.802 215.313 246.802 215.313V217.132C246.802 217.132 244.89 216.591 240.945 215.556C237.159 214.558 235.471 216.731 239.779 219.445C244.088 222.168 245.748 222.812 244.844 223.716C243.939 224.621 236.366 220.778 233.642 221.459C230.919 222.14 232.104 224.5 233.689 225.861C232.607 226.001 231.637 228.314 234.529 230.739C237.774 233.444 242.801 236.876 242.801 236.876C242.801 236.876 236.916 234.339 235.89 235.664C234.435 237.538 236.123 238.76 239.854 240.504C245.086 242.966 246.961 242.603 246.961 242.603V242.612Z" fill="white"/>
</g>
<defs>
<clipPath id="clip0_351_11806">
<rect width="300" height="272" fill="white"/>
</clipPath>
</defs>
</svg>
