<svg width="300" height="324" viewBox="0 0 300 324" fill="none" xmlns="http://www.w3.org/2000/svg">
<path d="M248.7 259.175C248.7 259.175 277.911 266.764 291.914 247.973C277.67 240.625 245.621 250.322 245.411 250.593C245.2 250.864 242.18 258.754 248.7 259.175H248.7Z" fill="#12120F"/>
<path fill-rule="evenodd" clip-rule="evenodd" d="M278.67 245.158C283.686 245.278 288.375 246.05 291.953 247.896C291.976 247.908 291.992 247.929 291.998 247.953C292.003 247.978 291.998 248.004 291.983 248.024C284.959 257.45 274.125 260.255 265.06 260.707C260.526 260.933 256.432 260.571 253.47 260.153C251.99 259.943 250.792 259.72 249.964 259.549C249.551 259.463 249.229 259.391 249.011 259.34C248.902 259.314 248.819 259.294 248.763 259.28C248.735 259.273 248.714 259.268 248.699 259.264C248.694 259.263 248.689 259.261 248.685 259.261C247.042 259.153 245.985 258.573 245.338 257.748C244.691 256.924 244.462 255.869 244.445 254.829C244.428 253.789 244.623 252.756 244.835 251.967C244.941 251.572 245.052 251.237 245.143 250.992C245.188 250.87 245.229 250.769 245.262 250.694C245.278 250.657 245.293 250.626 245.306 250.601C245.318 250.578 245.33 250.555 245.342 250.54L245.411 250.593L245.342 250.54C245.342 250.54 245.342 250.54 245.342 250.54C245.355 250.524 245.371 250.514 245.377 250.51L245.377 250.51C245.386 250.505 245.396 250.5 245.407 250.495C245.428 250.485 245.457 250.473 245.491 250.46C245.56 250.433 245.658 250.398 245.783 250.356C246.034 250.272 246.397 250.157 246.86 250.018C247.786 249.741 249.112 249.369 250.741 248.952C254 248.119 258.473 247.111 263.386 246.341C268.298 245.57 273.652 245.038 278.67 245.158ZM248.728 259.093C248.732 259.094 248.736 259.095 248.742 259.097C248.756 259.1 248.777 259.105 248.805 259.112C248.86 259.126 248.942 259.146 249.051 259.172C249.267 259.222 249.587 259.295 250 259.38C250.824 259.55 252.018 259.773 253.495 259.982C256.448 260.399 260.532 260.76 265.051 260.534C274.066 260.085 284.802 257.303 291.783 248.003C288.25 246.208 283.628 245.449 278.666 245.331C273.662 245.211 268.319 245.742 263.413 246.511C258.507 247.281 254.039 248.288 250.784 249.12C249.157 249.536 247.833 249.908 246.91 250.184C246.448 250.322 246.087 250.436 245.839 250.52C245.714 250.562 245.619 250.596 245.554 250.621C245.521 250.634 245.496 250.644 245.48 250.651C245.478 250.653 245.475 250.654 245.473 250.655C245.47 250.661 245.465 250.669 245.46 250.679C245.449 250.7 245.436 250.728 245.42 250.764C245.389 250.835 245.35 250.932 245.305 251.052C245.216 251.292 245.107 251.622 245.002 252.011C244.793 252.791 244.601 253.808 244.618 254.826C244.634 255.846 244.86 256.859 245.474 257.641C246.086 258.421 247.095 258.985 248.706 259.089C248.714 259.089 248.721 259.091 248.728 259.093ZM245.465 250.659C245.464 250.66 245.464 250.66 245.464 250.66C245.464 250.66 245.464 250.66 245.465 250.659ZM245.479 250.646C245.479 250.646 245.479 250.646 245.479 250.646L245.479 250.646Z" fill="#12120F"/>
<path d="M277.289 184.782C277.289 184.782 297.712 203.297 282.936 219.024C277.139 224.468 265.547 223.08 265.547 223.08C265.547 223.08 269.468 234.609 265.547 242.606C261.625 250.603 249.18 255.877 249.18 255.877L242.182 254.682L259.184 198.629L277.288 184.783L277.289 184.782Z" fill="#12120F"/>
<path d="M203.993 254.682C203.993 254.682 189.371 246.948 191.545 206.295C204.581 214.245 212.973 240.012 208.143 254.682C205.486 254.718 203.994 254.682 203.994 254.682H203.993Z" fill="white"/>
<path fill-rule="evenodd" clip-rule="evenodd" d="M191.504 206.218C191.531 206.204 191.564 206.205 191.59 206.221C198.133 210.211 203.499 218.663 206.626 227.941C209.753 237.22 210.648 247.35 208.226 254.709C208.214 254.744 208.182 254.768 208.145 254.769C206.816 254.787 205.778 254.787 205.072 254.782C204.719 254.78 204.449 254.777 204.268 254.774C204.177 254.772 204.108 254.771 204.062 254.77L204.031 254.77L203.997 254.769L203.994 254.769H203.994M203.994 254.682C203.953 254.759 203.953 254.759 203.953 254.759L203.95 254.757L203.945 254.754L203.941 254.752C203.934 254.748 203.923 254.742 203.908 254.734C203.88 254.717 203.838 254.693 203.784 254.659C203.676 254.591 203.518 254.487 203.318 254.34C202.919 254.047 202.353 253.583 201.681 252.899C200.337 251.532 198.572 249.287 196.876 245.771C193.484 238.739 190.371 226.627 191.458 206.29C191.46 206.26 191.477 206.233 191.504 206.218M204.017 254.597C204.028 254.597 204.044 254.597 204.065 254.598C204.111 254.598 204.18 254.6 204.27 254.601C204.452 254.604 204.721 254.607 205.073 254.609C205.767 254.614 206.782 254.614 208.08 254.597C210.463 247.291 209.574 237.231 206.462 227.996C203.361 218.795 198.061 210.435 191.623 206.445C190.56 226.674 193.664 238.714 197.032 245.696C198.72 249.196 200.475 251.425 201.805 252.778C202.47 253.455 203.029 253.913 203.421 254.201C203.617 254.345 203.771 254.447 203.876 254.512C203.928 254.545 203.968 254.569 203.995 254.584C204.004 254.589 204.011 254.593 204.017 254.597Z" fill="#12120F"/>
<path d="M241.484 254.827C249.304 253.325 256.318 248.094 259.978 241.036C263.637 233.978 263.864 225.243 260.576 218.005C267.946 221.124 277.281 218.676 282.164 212.345C287.767 205.08 286.735 193.731 280.268 187.22C273.8 180.71 262.863 179.448 254.805 183.85C246.747 188.254 244.301 193.758 244.985 202.9C239.971 199.085 235.415 197.882 229.807 198.114C224.199 198.347 219.081 201.738 215.6 206.132C212.12 210.526 210.054 215.855 208.296 221.174C208.296 221.174 198.243 247.659 204.947 256.247C215.908 258.035 241.482 254.826 241.482 254.826L241.484 254.827Z" fill="white"/>
<path fill-rule="evenodd" clip-rule="evenodd" d="M254.763 183.774C262.853 179.355 273.832 180.62 280.329 187.159C286.825 193.699 287.863 205.097 282.232 212.398C277.37 218.702 268.118 221.174 260.744 218.168C263.949 225.391 263.692 234.059 260.054 241.076C256.383 248.157 249.346 253.405 241.5 254.912C241.494 254.913 241.487 254.913 241.481 254.913L241.419 254.921C241.37 254.927 241.298 254.936 241.203 254.947C241.012 254.97 240.732 255.004 240.372 255.046C239.651 255.13 238.609 255.249 237.324 255.385C234.754 255.658 231.214 256.004 227.331 256.293C219.569 256.872 210.425 257.228 204.933 256.332C204.912 256.329 204.892 256.317 204.879 256.3C203.185 254.13 202.556 250.84 202.555 247.144C202.555 243.445 203.184 239.322 204.023 235.472C204.861 231.621 205.909 228.039 206.747 225.42C207.166 224.111 207.533 223.042 207.795 222.3C207.926 221.929 208.031 221.64 208.103 221.444C208.139 221.346 208.167 221.271 208.186 221.22C208.195 221.195 208.202 221.176 208.207 221.163L208.214 221.145C209.973 215.825 212.042 210.484 215.532 206.078C219.024 201.671 224.162 198.262 229.803 198.028C235.373 197.797 239.914 198.979 244.884 202.716C244.568 198.225 245.018 194.606 246.539 191.56C248.082 188.47 250.724 185.982 254.763 183.774ZM208.295 221.174C208.376 221.205 208.376 221.205 208.376 221.205L208.376 221.206L208.369 221.224C208.364 221.236 208.357 221.255 208.348 221.28C208.329 221.331 208.301 221.405 208.266 221.503C208.194 221.699 208.089 221.987 207.958 222.358C207.697 223.098 207.331 224.165 206.912 225.473C206.075 228.088 205.029 231.665 204.192 235.508C203.355 239.353 202.728 243.462 202.729 247.144C202.729 250.814 203.352 254.043 204.995 256.167C210.467 257.052 219.569 256.698 227.318 256.121C231.199 255.831 234.737 255.486 237.306 255.214C238.59 255.077 239.631 254.959 240.352 254.875C240.712 254.832 240.992 254.799 241.182 254.776C241.277 254.764 241.349 254.755 241.398 254.749L241.467 254.741L241.47 254.74L241.471 254.74C241.471 254.74 241.471 254.74 241.471 254.741C241.471 254.741 241.471 254.741 241.471 254.741L241.471 254.74C241.474 254.74 241.477 254.74 241.48 254.74C249.268 253.239 256.255 248.027 259.9 240.996C263.547 233.962 263.774 225.255 260.497 218.041C260.482 218.008 260.489 217.97 260.514 217.945C260.539 217.919 260.577 217.911 260.61 217.925C267.943 221.029 277.236 218.592 282.095 212.293C287.67 205.064 286.645 193.763 280.206 187.281C273.767 180.8 262.873 179.541 254.846 183.926C250.827 186.122 248.217 188.588 246.694 191.637C245.17 194.687 244.73 198.331 245.071 202.894C245.073 202.928 245.056 202.96 245.026 202.976C244.996 202.992 244.959 202.99 244.932 202.969C239.935 199.167 235.4 197.969 229.81 198.201C224.235 198.432 219.139 201.804 215.668 206.185C212.197 210.566 210.136 215.883 208.378 221.201C208.377 221.202 208.377 221.202 208.377 221.203C208.377 221.203 208.377 221.204 208.376 221.205L208.295 221.174ZM241.482 254.826C241.481 254.817 241.48 254.809 241.479 254.802L241.482 254.826Z" fill="#12120F"/>
<path fill-rule="evenodd" clip-rule="evenodd" d="M274.079 191.31C274.126 191.302 274.171 191.333 274.179 191.38C274.188 191.426 274.157 191.471 274.11 191.48L274.094 191.395L274.079 191.31ZM274.078 191.31C274.079 191.31 274.079 191.31 274.094 191.395C274.11 191.48 274.11 191.48 274.11 191.48L274.109 191.48L274.106 191.481C274.103 191.481 274.098 191.482 274.092 191.484C274.079 191.486 274.061 191.49 274.035 191.495C273.985 191.506 273.909 191.523 273.809 191.547C273.607 191.595 273.306 191.674 272.909 191.795C272.113 192.035 270.931 192.442 269.388 193.106C266.303 194.435 261.774 196.792 256.008 200.909C244.476 209.141 227.995 224.409 208.214 252.545C208.186 252.584 208.132 252.594 208.093 252.566C208.054 252.539 208.044 252.485 208.072 252.446C227.862 224.297 244.357 209.014 255.908 200.768C261.683 196.645 266.222 194.281 269.32 192.948C270.869 192.281 272.057 191.872 272.858 191.629C273.259 191.508 273.564 191.428 273.768 191.379C273.87 191.354 273.947 191.337 273.999 191.326C274.025 191.321 274.045 191.317 274.058 191.314C274.065 191.313 274.07 191.312 274.073 191.311L274.077 191.31L274.078 191.31Z" fill="#12120F"/>
<path fill-rule="evenodd" clip-rule="evenodd" d="M224.731 230.93C224.731 230.93 224.731 230.93 224.713 230.845C224.694 230.761 224.695 230.761 224.695 230.761L224.695 230.761L224.697 230.76L224.705 230.759C224.712 230.757 224.722 230.755 224.735 230.753C224.762 230.747 224.801 230.739 224.853 230.73C224.956 230.71 225.109 230.682 225.308 230.65C225.706 230.586 226.288 230.505 227.023 230.433C228.494 230.291 230.58 230.191 233.046 230.359C237.977 230.695 244.427 232.107 250.496 236.408C250.535 236.435 250.544 236.489 250.516 236.528C250.489 236.567 250.435 236.576 250.396 236.548C244.36 232.271 237.944 230.866 233.034 230.531C230.58 230.364 228.503 230.464 227.04 230.605C226.308 230.676 225.73 230.757 225.336 230.821C225.138 230.853 224.987 230.88 224.885 230.899C224.834 230.909 224.795 230.917 224.77 230.922C224.757 230.925 224.747 230.927 224.741 230.928L224.733 230.929L224.732 230.93L224.731 230.93ZM224.628 230.864C224.618 230.817 224.648 230.771 224.694 230.761L224.713 230.845L224.731 230.93C224.684 230.94 224.638 230.91 224.628 230.864Z" fill="#12120F"/>
<path fill-rule="evenodd" clip-rule="evenodd" d="M219.098 214.63C219.125 214.591 219.179 214.582 219.218 214.61L219.168 214.68C219.218 214.61 219.218 214.61 219.218 214.61L219.219 214.61L219.22 214.611L219.225 214.615C219.229 214.618 219.235 214.622 219.244 214.628C219.26 214.64 219.284 214.658 219.314 214.682C219.376 214.729 219.466 214.799 219.578 214.892C219.803 215.078 220.121 215.356 220.491 215.723C221.23 216.457 222.181 217.549 223.024 218.981C224.713 221.846 225.972 226.071 224.263 231.507C224.248 231.553 224.2 231.578 224.154 231.564C224.109 231.55 224.083 231.501 224.097 231.456C225.79 226.074 224.543 221.899 222.875 219.068C222.041 217.652 221.1 216.572 220.369 215.846C220.003 215.483 219.689 215.208 219.468 215.025C219.357 214.934 219.269 214.865 219.209 214.819C219.179 214.796 219.156 214.779 219.141 214.767C219.133 214.762 219.127 214.758 219.123 214.755L219.119 214.752L219.118 214.751L219.118 214.751C219.118 214.751 219.118 214.751 219.118 214.751C219.118 214.751 219.118 214.751 219.133 214.73L219.118 214.751C219.079 214.723 219.07 214.669 219.098 214.63Z" fill="#12120F"/>
<path fill-rule="evenodd" clip-rule="evenodd" d="M255.144 201.363C255.145 201.315 255.184 201.277 255.232 201.278C259.361 201.375 263.516 202.344 266.638 203.287C268.199 203.759 269.502 204.225 270.416 204.572C270.872 204.746 271.231 204.891 271.477 204.992C271.599 205.043 271.693 205.082 271.757 205.109C271.789 205.123 271.813 205.133 271.829 205.14C271.837 205.144 271.843 205.146 271.847 205.148L271.853 205.151L271.853 205.151C271.853 205.151 271.853 205.151 271.819 205.23C271.784 205.309 271.784 205.309 271.784 205.309L271.783 205.309L271.778 205.306C271.774 205.305 271.768 205.302 271.76 205.299C271.744 205.292 271.72 205.282 271.689 205.268C271.626 205.241 271.532 205.202 271.411 205.152C271.167 205.051 270.809 204.907 270.354 204.734C269.444 204.387 268.144 203.923 266.587 203.452C263.473 202.511 259.335 201.547 255.228 201.451C255.18 201.45 255.142 201.41 255.144 201.363ZM271.898 205.265C271.879 205.308 271.827 205.328 271.784 205.309L271.819 205.23L271.853 205.151C271.897 205.17 271.917 205.221 271.898 205.265Z" fill="#12120F"/>
<path fill-rule="evenodd" clip-rule="evenodd" d="M263.79 186.737C263.836 186.727 263.882 186.757 263.893 186.803L263.808 186.822C263.893 186.803 263.893 186.803 263.893 186.804L263.893 186.804L263.893 186.805L263.893 186.808C263.894 186.81 263.895 186.814 263.896 186.819C263.898 186.829 263.901 186.844 263.905 186.864C263.912 186.904 263.923 186.962 263.936 187.038C263.961 187.189 263.993 187.41 264.023 187.691C264.083 188.252 264.132 189.05 264.092 190.002C264.01 191.904 263.568 194.421 262.121 196.873C262.097 196.914 262.044 196.928 262.003 196.904C261.962 196.879 261.948 196.826 261.972 196.785C263.4 194.364 263.838 191.877 263.919 189.994C263.959 189.053 263.91 188.263 263.851 187.709C263.821 187.432 263.789 187.214 263.765 187.066C263.753 186.992 263.742 186.935 263.735 186.897C263.731 186.878 263.728 186.863 263.726 186.854C263.725 186.849 263.725 186.845 263.724 186.843L263.724 186.841L263.723 186.84L263.723 186.84C263.713 186.793 263.743 186.747 263.79 186.737Z" fill="#12120F"/>
<path fill-rule="evenodd" clip-rule="evenodd" d="M235.272 204.685C235.312 204.659 235.366 204.671 235.392 204.711L235.318 204.758L235.245 204.804C235.22 204.764 235.232 204.71 235.272 204.685ZM236.679 217.676C238.303 214.788 237.997 211.574 237.281 209.076C236.917 207.803 236.445 206.713 236.064 205.94C235.873 205.554 235.706 205.247 235.585 205.037C235.525 204.932 235.477 204.851 235.444 204.796C235.427 204.768 235.414 204.747 235.405 204.733C235.401 204.726 235.397 204.72 235.395 204.717L235.392 204.713L235.392 204.712L235.392 204.711C235.392 204.711 235.392 204.711 235.318 204.758C235.245 204.804 235.245 204.804 235.245 204.804L235.246 204.804L235.246 204.805L235.249 204.809C235.251 204.812 235.254 204.817 235.258 204.824C235.267 204.838 235.279 204.858 235.295 204.885C235.328 204.939 235.376 205.019 235.435 205.123C235.554 205.33 235.72 205.634 235.908 206.017C236.286 206.782 236.754 207.863 237.115 209.124C237.838 211.647 238.131 214.878 236.437 217.749C236.42 217.778 236.422 217.815 236.441 217.842C236.461 217.87 236.495 217.884 236.528 217.877L236.512 217.792C236.528 217.877 236.528 217.877 236.528 217.877L236.53 217.877L236.535 217.876C236.54 217.875 236.547 217.874 236.557 217.872C236.576 217.869 236.605 217.863 236.644 217.857C236.721 217.844 236.834 217.826 236.983 217.805C237.279 217.763 237.713 217.71 238.261 217.664C239.357 217.573 240.91 217.513 242.734 217.637C246.382 217.887 251.113 218.875 255.453 221.827C255.493 221.854 255.547 221.843 255.574 221.804C255.601 221.765 255.59 221.711 255.551 221.684C251.177 218.709 246.413 217.716 242.745 217.465C240.911 217.34 239.35 217.4 238.247 217.492C237.695 217.538 237.258 217.592 236.958 217.634C236.845 217.65 236.751 217.665 236.679 217.676Z" fill="#12120F"/>
<path d="M27.153 107.303C27.153 107.303 33.412 99.9704 33.779 85.9499C34.0689 74.8705 34.0793 63.3134 41.763 59.2313C57.9473 50.6335 64.0722 80.63 57.7733 86.6582C53.8372 90.425 51.8094 89.6796 51.8094 89.6796L47.9113 107.135C47.9113 107.135 29.5321 109.51 27.153 107.303Z" fill="white"/>
<path fill-rule="evenodd" clip-rule="evenodd" d="M51.9326 59.1154C49.2101 57.4361 45.8258 57.1709 41.8036 59.3076C37.9953 61.3309 36.0803 65.2098 35.0831 69.9843C34.1569 74.4185 34.026 79.6071 33.8959 84.764C33.8859 85.1604 33.8759 85.5566 33.8655 85.9522C33.6817 92.9752 32.0221 98.3246 30.4073 101.919C29.6 103.717 28.8039 105.075 28.2092 105.985C27.9118 106.44 27.6647 106.783 27.4918 107.012C27.4053 107.127 27.3373 107.213 27.2908 107.271C27.2847 107.279 27.2789 107.286 27.2735 107.293C27.5645 107.526 28.0673 107.709 28.745 107.845C29.4691 107.99 30.3772 108.078 31.4039 108.121C33.4569 108.209 35.9737 108.119 38.4187 107.961C40.8632 107.802 43.2337 107.574 44.9932 107.386C45.8729 107.292 46.5997 107.208 47.1066 107.147C47.3601 107.117 47.5585 107.093 47.6936 107.076C47.7564 107.068 47.8055 107.062 47.84 107.057L51.7249 89.6609C51.7303 89.6366 51.746 89.6158 51.7679 89.6038C51.7898 89.5919 51.8157 89.59 51.8391 89.5986C51.8392 89.5986 51.8392 89.5986 51.8393 89.5986L51.8393 89.5986C51.8398 89.5988 51.8408 89.5991 51.8423 89.5996C51.8452 89.6006 51.8502 89.6021 51.857 89.6041C51.8708 89.6081 51.8923 89.6137 51.9217 89.6198C51.9804 89.6319 52.0704 89.6457 52.1915 89.651C52.4335 89.6616 52.8007 89.6383 53.2915 89.4985C54.2734 89.2189 55.7525 88.4725 57.7134 86.5959C58.486 85.8566 59.0733 84.7442 59.4746 83.3722C59.8757 82.001 60.0892 80.3763 60.1185 78.6192C60.177 75.1046 59.498 71.0696 58.1186 67.4911C56.7386 63.911 54.6618 60.7988 51.9326 59.1154ZM51.8742 89.7863C51.8782 89.7872 51.8824 89.7881 51.8867 89.7889C51.9542 89.8029 52.0534 89.8179 52.1839 89.8236C52.4451 89.835 52.8309 89.8093 53.339 89.6646C54.3551 89.3752 55.858 88.6108 57.8332 86.7206C58.6354 85.9529 59.2346 84.8092 59.6408 83.4206C60.0472 82.0311 60.2621 80.3904 60.2915 78.622C60.3504 75.0855 59.6676 71.0285 58.2801 67.4291C56.8933 63.8312 54.7979 60.6797 52.0236 58.9684C49.2428 57.2532 45.7923 56.993 41.7223 59.1551C37.847 61.214 35.915 65.1546 34.9136 69.9491C33.9841 74.3994 33.8529 79.6033 33.7229 84.7556C33.7129 85.1534 33.7029 85.5509 33.6925 85.9477C33.5093 92.9453 31.8559 98.2723 30.2494 101.849C29.4461 103.637 28.6545 104.988 28.0642 105.891C27.769 106.342 27.5242 106.682 27.3535 106.909C27.2681 107.022 27.2012 107.107 27.1558 107.163C27.1331 107.191 27.1158 107.212 27.1042 107.226C27.0984 107.233 27.0941 107.239 27.0912 107.242L27.088 107.246L27.0873 107.247L27.0871 107.247C27.0871 107.247 27.0871 107.247 27.1487 107.299L27.0871 107.247C27.057 107.282 27.0601 107.335 27.094 107.366C27.4103 107.66 27.9788 107.867 28.711 108.014C29.4474 108.162 30.3655 108.25 31.3965 108.294C33.4587 108.382 35.9827 108.292 38.4299 108.133C40.8776 107.974 43.2507 107.746 45.0116 107.558C45.8921 107.464 46.6197 107.379 47.1272 107.319C47.381 107.288 47.5797 107.264 47.715 107.247C47.7362 107.245 47.7558 107.242 47.7738 107.24C47.8134 107.235 47.8454 107.231 47.8694 107.228C47.8848 107.226 47.8969 107.224 47.9057 107.223L47.909 107.223L47.919 107.221L47.9215 107.221L47.9222 107.221C47.9223 107.221 47.9224 107.221 47.9113 107.135L47.9224 107.221C47.9585 107.216 47.9878 107.19 47.9958 107.154L51.8742 89.7863Z" fill="#12120F"/>
<path d="M134.787 164.441C134.787 164.441 145.698 170.141 145.611 177.985C146.109 181.741 143.605 183.795 143.605 183.795C143.605 183.795 131.652 171.904 131.547 170.174C131.442 168.444 134.786 164.44 134.786 164.44L134.787 164.441Z" fill="white"/>
<path fill-rule="evenodd" clip-rule="evenodd" d="M134.833 164.368L134.835 164.369C134.841 164.372 134.849 164.376 134.859 164.382C134.88 164.393 134.911 164.41 134.951 164.432C135.032 164.476 135.149 164.541 135.299 164.627C135.598 164.799 136.025 165.053 136.537 165.382C137.561 166.041 138.926 167.001 140.289 168.207C143.009 170.615 145.738 174.021 145.697 177.98C145.948 179.877 145.441 181.347 144.87 182.342C144.585 182.84 144.283 183.219 144.053 183.474C143.938 183.601 143.84 183.698 143.771 183.763C143.737 183.795 143.709 183.82 143.69 183.837C143.681 183.845 143.674 183.851 143.669 183.855C143.666 183.858 143.664 183.859 143.663 183.86L143.661 183.862L143.661 183.862L143.66 183.862C143.66 183.862 143.66 183.862 143.605 183.796C143.544 183.857 143.544 183.857 143.544 183.857L143.51 183.823C143.487 183.8 143.454 183.766 143.41 183.723C143.322 183.635 143.194 183.506 143.03 183.342C142.703 183.014 142.235 182.542 141.674 181.971C140.552 180.829 139.054 179.288 137.552 177.693C136.051 176.098 134.546 174.448 133.409 173.088C132.84 172.408 132.363 171.799 132.024 171.305C131.854 171.058 131.718 170.838 131.622 170.652C131.528 170.467 131.468 170.306 131.46 170.179C131.433 169.723 131.631 169.131 131.931 168.511C132.232 167.887 132.643 167.22 133.055 166.61C133.468 166 133.884 165.444 134.197 165.04C134.353 164.839 134.484 164.675 134.575 164.562C134.621 164.505 134.657 164.461 134.682 164.431C134.694 164.416 134.704 164.405 134.71 164.397L134.717 164.388L134.72 164.385C134.72 164.385 134.72 164.385 134.786 164.441L134.72 164.385C134.735 164.367 134.758 164.355 134.782 164.354C134.8 164.353 134.818 164.358 134.833 164.368ZM143.605 183.796L143.544 183.857C143.576 183.888 143.626 183.891 143.66 183.862L143.605 183.796ZM143.609 183.677C143.622 183.666 143.636 183.652 143.653 183.637C143.719 183.575 143.813 183.482 143.924 183.358C144.148 183.111 144.442 182.741 144.72 182.256C145.276 181.286 145.771 179.852 145.525 177.996C145.524 177.992 145.524 177.988 145.524 177.984C145.567 174.102 142.887 170.738 140.174 168.336C138.82 167.137 137.463 166.182 136.444 165.527C135.934 165.2 135.51 164.947 135.213 164.777C135.064 164.691 134.947 164.626 134.868 164.583C134.845 164.57 134.824 164.559 134.808 164.55C134.784 164.579 134.751 164.62 134.71 164.67C134.619 164.783 134.489 164.945 134.334 165.146C134.023 165.547 133.609 166.1 133.199 166.707C132.789 167.314 132.383 167.973 132.087 168.586C131.789 169.203 131.608 169.76 131.633 170.169C131.639 170.258 131.684 170.393 131.776 170.573C131.867 170.75 131.999 170.964 132.166 171.207C132.501 171.695 132.974 172.299 133.542 172.977C134.675 174.333 136.178 175.98 137.678 177.575C139.179 179.168 140.676 180.708 141.798 181.85C142.359 182.421 142.826 182.892 143.153 183.22C143.316 183.385 143.445 183.513 143.532 183.601C143.563 183.631 143.589 183.657 143.609 183.677Z" fill="#12120F"/>
<path d="M52.0167 108.8C52.0167 108.8 72.9101 128.561 91.5316 140.744C120.127 158.232 136.35 163.11 136.35 163.11C136.547 168.531 134.547 169.67 132.219 171.445C119.905 181.585 100.901 168.366 74.9067 165.291C48.9123 162.217 46.6569 152.277 46.6569 152.277" fill="#FFFF00"/>
<path fill-rule="evenodd" clip-rule="evenodd" d="M51.9542 108.741C51.987 108.706 52.0418 108.705 52.0765 108.737L52.017 108.8L51.9575 108.863C51.9228 108.83 51.9213 108.775 51.9542 108.741ZM91.5782 140.671C82.2724 134.583 72.3974 126.6 64.8477 120.138C61.0729 116.907 57.88 114.057 55.6308 112.014C54.5062 110.993 53.6175 110.174 53.0101 109.61C52.7063 109.328 52.4729 109.11 52.3154 108.962C52.2367 108.888 52.1769 108.832 52.1369 108.794C52.1169 108.775 52.1018 108.761 52.0917 108.752L52.0768 108.738C52.0766 108.737 52.0765 108.737 52.017 108.8C51.9575 108.863 51.9575 108.863 51.9577 108.863L51.9727 108.877C51.9829 108.887 51.998 108.901 52.0181 108.92C52.0582 108.958 52.1181 109.014 52.1969 109.088C52.3546 109.236 52.5882 109.454 52.8922 109.736C53.5001 110.301 54.3892 111.12 55.5143 112.142C57.7645 114.185 60.9587 117.037 64.735 120.269C72.287 126.733 82.169 134.722 91.4844 140.817L91.4851 140.817L91.4866 140.818C105.787 149.564 116.995 155.157 124.629 158.564C128.446 160.267 131.369 161.424 133.338 162.155C134.323 162.521 135.069 162.78 135.57 162.948C135.82 163.032 136.009 163.093 136.135 163.133C136.191 163.151 136.235 163.164 136.266 163.174C136.355 165.838 135.907 167.442 135.159 168.598C134.496 169.622 133.595 170.301 132.594 171.053C132.453 171.159 132.311 171.266 132.167 171.376C132.166 171.377 132.165 171.378 132.164 171.378C126.044 176.419 118.255 175.662 108.715 173.24C106.083 172.572 103.32 171.778 100.424 170.945C92.8321 168.763 84.3306 166.319 74.9172 165.206C61.9298 163.67 54.8834 160.42 51.0862 157.563C49.1878 156.134 48.1008 154.803 47.489 153.832C47.183 153.347 46.9956 152.951 46.8851 152.678C46.8298 152.541 46.7936 152.435 46.7715 152.364C46.7604 152.328 46.7528 152.301 46.748 152.284C46.7456 152.275 46.7439 152.268 46.7429 152.264C46.7424 152.262 46.742 152.26 46.7418 152.259L46.7415 152.258C46.7415 152.258 46.7415 152.258 46.7415 152.258C46.7309 152.212 46.6846 152.183 46.638 152.193C46.5914 152.204 46.5622 152.25 46.5727 152.296L46.6571 152.277C46.5727 152.296 46.5727 152.297 46.5728 152.297L46.5729 152.297L46.5733 152.299C46.5737 152.3 46.5742 152.303 46.5748 152.305C46.5761 152.311 46.5781 152.318 46.5808 152.328C46.5861 152.348 46.5944 152.377 46.6061 152.415C46.6297 152.491 46.6674 152.602 46.7246 152.743C46.8389 153.025 47.0308 153.43 47.3424 153.924C47.9658 154.914 49.0673 156.26 50.982 157.701C54.8111 160.582 61.8898 163.839 74.8968 165.377C84.2952 166.489 92.775 168.926 100.363 171.108C103.262 171.941 106.032 172.737 108.672 173.407C118.21 175.829 126.08 176.612 132.273 171.513C132.416 171.404 132.557 171.298 132.697 171.192C133.696 170.441 134.624 169.744 135.305 168.692C136.084 167.488 136.536 165.828 136.437 163.107C136.435 163.07 136.411 163.038 136.375 163.027L136.35 163.11C136.375 163.027 136.375 163.027 136.375 163.027L136.375 163.027L136.372 163.026L136.364 163.023C136.356 163.021 136.344 163.017 136.328 163.013C136.297 163.003 136.25 162.988 136.187 162.968C136.062 162.928 135.874 162.868 135.625 162.784C135.126 162.617 134.382 162.358 133.399 161.993C131.433 161.263 128.513 160.108 124.7 158.406C117.073 155.002 105.872 149.413 91.5782 140.671Z" fill="#12120F"/>
<path d="M81.4855 157.588C90.0424 185.368 65.1766 181.336 45.0578 181.336C24.9391 181.336 8.63013 186.652 8.63013 157.588C8.63013 128.525 19.5169 95.0333 39.6348 95.0333C59.7527 95.0333 72.823 129.467 81.4847 157.588H81.4855Z" fill="#FFFF00"/>
<path fill-rule="evenodd" clip-rule="evenodd" d="M16.6676 115.447C11.4369 127.439 8.71667 143.066 8.71667 157.589C8.71667 164.848 9.73536 169.95 11.5698 173.521C13.4022 177.089 16.0513 179.135 19.3281 180.28C22.6091 181.427 26.5211 181.671 30.8775 181.627C32.8079 181.607 34.8235 181.531 36.9086 181.452C37.1757 181.442 37.4438 181.432 37.7131 181.422C40.0845 181.333 42.5412 181.25 45.0578 181.25C47.3162 181.25 49.6343 181.301 51.9571 181.352C52.2221 181.358 52.4871 181.364 52.7522 181.369C55.3409 181.425 57.9279 181.474 60.4396 181.446C65.4646 181.39 70.1807 181.026 73.9985 179.798C77.814 178.571 80.7232 176.484 82.1527 172.986C83.5832 169.486 83.5396 164.556 81.4062 157.625C81.4046 157.622 81.4031 157.618 81.4019 157.614C77.0713 143.554 71.6406 127.923 64.7805 115.808C61.3505 109.751 57.5656 104.577 53.3859 100.918C49.2071 97.2602 44.6375 95.12 39.6348 95.12C29.6308 95.12 21.9009 103.448 16.6676 115.447ZM16.5089 115.378C21.7484 103.365 29.5209 94.9472 39.6348 94.9472C44.691 94.9472 49.2994 97.1112 53.5001 100.788C57.7 104.465 61.4961 109.657 64.9312 115.723C71.7993 127.852 77.2335 143.494 81.5639 157.552C81.5656 157.556 81.5671 157.559 81.5683 157.563C83.71 164.516 83.7662 169.496 82.313 173.052C80.858 176.611 77.8978 178.725 74.0516 179.962C70.2077 181.199 65.4699 181.563 60.4415 181.619C57.9266 181.647 55.3371 181.598 52.7485 181.542C52.4833 181.536 52.2181 181.531 51.953 181.525C49.63 181.474 47.314 181.423 45.0578 181.423C42.5447 181.423 40.0908 181.506 37.7195 181.595C37.4504 181.605 37.1824 181.615 36.9154 181.625C34.8305 181.704 32.8123 181.78 30.8793 181.8C26.5194 181.844 22.5819 181.6 19.2708 180.443C15.9555 179.284 13.27 177.21 11.4157 173.6C9.56351 169.994 8.54358 164.861 8.54358 157.589C8.54358 143.048 11.2667 127.397 16.5089 115.378Z" fill="#12120F"/>
<path d="M139.953 258.992C137.626 254.619 129.384 249.184 124.778 246.388C121.284 250.967 113.474 251.475 108.853 248.214C107.705 250.351 106.368 253.103 105.608 255.589C116.72 263.152 128.877 269.462 142.078 270.56C142.321 270.56 142.572 270.514 142.827 270.445C143.058 267.514 142.067 262.964 139.953 258.992Z" fill="white"/>
<path fill-rule="evenodd" clip-rule="evenodd" d="M124.709 246.335C124.736 246.3 124.785 246.291 124.823 246.314C127.127 247.713 130.342 249.772 133.273 252.03C136.2 254.285 138.856 256.747 140.03 258.951C142.15 262.934 143.146 267.5 142.914 270.452C142.911 270.488 142.885 270.519 142.85 270.528C142.591 270.599 142.332 270.646 142.078 270.646C142.076 270.646 142.073 270.646 142.071 270.646C128.847 269.546 116.676 263.226 105.559 255.66C105.528 255.638 105.514 255.599 105.525 255.563C106.288 253.07 107.628 250.311 108.777 248.173C108.789 248.151 108.809 248.135 108.833 248.13C108.858 248.124 108.883 248.129 108.903 248.143C111.194 249.76 114.28 250.445 117.23 250.155C120.179 249.865 122.98 248.601 124.709 246.335ZM124.799 246.502C123.031 248.776 120.204 250.036 117.247 250.327C114.297 250.617 111.205 249.944 108.884 248.34C107.756 250.446 106.46 253.125 105.709 255.553C116.802 263.096 128.925 269.378 142.081 270.474C142.295 270.473 142.517 270.436 142.746 270.377C142.957 267.464 141.971 262.966 139.877 259.032C138.723 256.864 136.094 254.422 133.167 252.167C130.272 249.936 127.096 247.898 124.799 246.502Z" fill="#12120F"/>
<path d="M124.778 246.388C122.885 245.238 121.603 244.533 121.603 244.533H110.979C110.979 244.533 110.011 246.061 108.854 248.214C113.474 251.475 121.284 250.967 124.778 246.388Z" fill="#12120F"/>
<path d="M142.078 270.56C128.877 269.462 116.72 263.152 105.608 255.589C105.23 256.826 104.991 257.997 104.991 258.992C124.307 269.596 138.794 274.175 141.305 273.452C142.199 273.195 142.699 272.067 142.827 270.445C142.572 270.514 142.321 270.56 142.078 270.56Z" fill="#12120F"/>
<path d="M176.075 244.484L183.371 250.606C183.371 250.606 177.089 258.366 168.059 253.883L165.885 250.124L176.075 244.484Z" fill="#12120F"/>
<path d="M198.993 260.968C196.373 256.764 187.778 251.903 182.992 249.427C179.819 254.233 172.062 255.273 167.229 252.333C166.228 254.543 165.084 257.38 164.496 259.912C176.1 266.7 188.659 272.168 201.905 272.364C202.147 272.347 202.395 272.284 202.645 272.199C202.675 269.258 201.375 264.787 198.994 260.968H198.993Z" fill="white"/>
<path fill-rule="evenodd" clip-rule="evenodd" d="M182.919 249.379C182.944 249.342 182.992 249.329 183.032 249.35C185.426 250.589 188.774 252.425 191.853 254.478C194.923 256.525 197.738 258.797 199.061 260.913C199.064 260.916 199.066 260.919 199.068 260.922C201.455 264.752 202.762 269.239 202.731 272.199C202.731 272.236 202.708 272.268 202.673 272.28C202.419 272.367 202.164 272.433 201.911 272.45C201.908 272.45 201.906 272.45 201.904 272.45C188.635 272.253 176.061 266.777 164.452 259.986C164.419 259.967 164.403 259.929 164.411 259.892C165.002 257.352 166.149 254.509 167.15 252.297C167.16 252.275 167.18 252.258 167.203 252.25C167.227 252.243 167.253 252.246 167.274 252.259C169.67 253.717 172.796 254.189 175.719 253.699C178.641 253.209 181.349 251.757 182.919 249.379ZM183.021 249.539C181.412 251.928 178.678 253.378 175.747 253.869C172.824 254.36 169.694 253.9 167.268 252.457C166.286 254.635 165.177 257.395 164.595 259.869C176.178 266.639 188.701 272.081 201.903 272.277C202.115 272.262 202.334 272.21 202.559 272.136C202.57 269.218 201.281 264.802 198.927 261.023C198.924 261.02 198.922 261.017 198.92 261.014C197.62 258.929 194.831 256.671 191.757 254.621C188.715 252.593 185.407 250.776 183.021 249.539Z" fill="#12120F"/>
<path d="M201.904 272.363C188.659 272.167 176.099 266.7 164.495 259.912C164.201 261.171 164.044 262.356 164.112 263.349C184.109 272.613 198.875 276.194 201.331 275.302C202.205 274.984 202.627 273.825 202.644 272.198C202.394 272.285 202.146 272.347 201.904 272.363Z" fill="#12120F"/>
<path fill-rule="evenodd" clip-rule="evenodd" d="M185.581 249.845C185.609 249.807 185.664 249.799 185.702 249.828C185.74 249.857 185.747 249.911 185.718 249.949L185.65 249.897L185.581 249.845ZM182.236 257.22C182.359 257.327 182.524 257.333 182.752 257.222C182.982 257.11 183.252 256.891 183.553 256.592C184.047 256.103 184.608 255.421 185.194 254.708C185.324 254.551 185.454 254.393 185.585 254.234C186.309 253.361 187.056 252.496 187.741 251.95C188.083 251.677 188.416 251.478 188.73 251.402C189.048 251.324 189.347 251.373 189.603 251.596C190.1 252.029 190.175 252.685 190.05 253.41C189.924 254.137 189.595 254.959 189.25 255.755C189.18 255.917 189.109 256.078 189.039 256.237C188.764 256.863 188.502 257.458 188.344 257.97C188.245 258.291 188.188 258.571 188.192 258.801C188.196 259.03 188.26 259.199 188.389 259.312C188.452 259.366 188.511 259.384 188.568 259.381C188.629 259.377 188.7 259.348 188.782 259.286C188.949 259.161 189.135 258.924 189.34 258.603C189.545 258.285 189.762 257.895 189.995 257.471C190.029 257.409 190.064 257.346 190.098 257.282C190.3 256.914 190.511 256.528 190.732 256.151C191.249 255.267 191.827 254.415 192.468 253.946C192.79 253.71 193.133 253.567 193.497 253.571C193.862 253.575 194.234 253.726 194.612 254.056C194.648 254.087 194.652 254.142 194.62 254.178C194.589 254.213 194.534 254.217 194.498 254.186C194.143 253.877 193.809 253.747 193.495 253.744C193.18 253.74 192.872 253.864 192.57 254.085C191.962 254.531 191.399 255.354 190.881 256.238C190.662 256.613 190.452 256.997 190.251 257.364C190.216 257.428 190.181 257.492 190.146 257.554C189.914 257.977 189.694 258.373 189.486 258.697C189.28 259.018 189.08 259.279 188.886 259.424C188.789 259.497 188.686 259.546 188.579 259.553C188.47 259.56 188.367 259.522 188.276 259.442C188.096 259.286 188.024 259.063 188.019 258.804C188.015 258.547 188.077 258.246 188.179 257.919C188.34 257.397 188.607 256.79 188.883 256.163C188.952 256.005 189.022 255.846 189.091 255.686C189.436 254.889 189.757 254.085 189.879 253.381C190.001 252.676 189.918 252.099 189.489 251.726C189.282 251.546 189.043 251.503 188.771 251.569C188.494 251.637 188.183 251.818 187.849 252.085C187.18 252.618 186.444 253.469 185.718 254.344C185.589 254.501 185.459 254.658 185.331 254.815C184.744 255.528 184.176 256.219 183.675 256.715C183.37 257.016 183.084 257.253 182.828 257.377C182.571 257.502 182.321 257.523 182.122 257.35C181.933 257.186 181.864 256.934 181.871 256.643C181.878 256.351 181.962 256.004 182.095 255.627C182.363 254.874 182.841 253.98 183.356 253.125C183.872 252.269 184.428 251.449 184.855 250.844C185.068 250.541 185.25 250.291 185.378 250.117C185.442 250.03 185.492 249.962 185.527 249.916C185.544 249.893 185.558 249.875 185.567 249.863L185.577 249.849L185.581 249.845C185.581 249.845 185.581 249.845 185.65 249.897C185.718 249.949 185.719 249.949 185.718 249.949L185.715 249.954L185.705 249.967C185.696 249.979 185.683 249.996 185.666 250.019C185.631 250.065 185.581 250.133 185.517 250.219C185.39 250.393 185.209 250.641 184.997 250.943C184.571 251.547 184.018 252.363 183.504 253.214C182.991 254.066 182.52 254.948 182.258 255.685C182.127 256.054 182.05 256.381 182.044 256.647C182.038 256.913 182.102 257.103 182.236 257.22Z" fill="#12120F"/>
<path d="M52.7371 210.984C52.7371 210.984 103.722 208.092 116.815 202.886C135.123 242.796 166.995 251.912 166.995 251.912C166.995 251.912 172.5 249.448 177.426 244.532C168.154 213.298 137.441 168.182 120.636 164.712C103.831 161.241 66.7439 172.81 66.7439 172.81" fill="#12120F"/>
<path fill-rule="evenodd" clip-rule="evenodd" d="M105.117 164.427C110.96 163.83 116.439 163.757 120.653 164.627C124.88 165.5 129.966 168.986 135.355 174.193C140.748 179.404 146.456 186.35 151.927 194.161C162.868 209.783 172.869 228.879 177.509 244.507C177.518 244.537 177.509 244.57 177.487 244.592C175.018 247.057 172.405 248.906 170.409 250.139C169.411 250.755 168.567 251.218 167.972 251.526C167.675 251.681 167.44 251.796 167.279 251.874C167.198 251.912 167.136 251.941 167.094 251.961C167.073 251.971 167.058 251.978 167.047 251.983L167.035 251.988L167.031 251.99L167.031 251.99L167.03 251.99C167.03 251.99 167.03 251.99 166.995 251.911C166.971 251.994 166.971 251.994 166.971 251.994L166.969 251.994L166.965 251.993L166.964 251.992C166.961 251.991 166.955 251.99 166.947 251.987C166.932 251.983 166.908 251.976 166.878 251.967C166.816 251.948 166.725 251.92 166.606 251.881C166.367 251.805 166.015 251.687 165.56 251.523C164.651 251.195 163.332 250.682 161.693 249.942C158.415 248.462 153.854 246.073 148.72 242.435C138.466 235.169 125.929 222.923 116.77 202.997C113.476 204.29 107.862 205.438 101.292 206.433C94.6689 207.437 87.0666 208.286 79.8744 208.973C72.682 209.66 65.899 210.184 60.9142 210.537C58.4217 210.713 56.3787 210.847 54.9588 210.936C54.2489 210.98 53.6947 211.014 53.318 211.036C53.1296 211.048 52.9857 211.056 52.8888 211.062C52.8403 211.065 52.8036 211.067 52.779 211.068L52.7426 211.07C52.7422 211.07 52.742 211.07 52.7371 210.984C52.7322 210.898 52.7323 210.898 52.7327 210.898L52.7724 210.895C52.7969 210.894 52.8324 210.892 52.8787 210.889C52.9755 210.884 53.1194 210.875 53.3077 210.864C53.6842 210.842 54.2382 210.808 54.948 210.763C56.3674 210.674 58.41 210.541 60.9019 210.365C65.8859 210.012 72.6674 209.488 79.8579 208.801C87.0486 208.115 94.6474 207.265 101.266 206.262C107.888 205.259 113.52 204.103 116.783 202.806C116.826 202.789 116.874 202.808 116.894 202.85C126.04 222.79 138.575 235.035 148.821 242.295C153.944 245.925 158.495 248.309 161.765 249.785C163.399 250.523 164.714 251.034 165.619 251.361C166.072 251.524 166.422 251.641 166.659 251.717C166.778 251.755 166.868 251.783 166.928 251.801C166.95 251.808 166.967 251.813 166.981 251.817L166.988 251.819C166.997 251.815 167.008 251.81 167.021 251.804C167.063 251.785 167.124 251.756 167.204 251.718C167.363 251.641 167.596 251.526 167.892 251.373C168.484 251.066 169.324 250.606 170.318 249.992C172.296 248.77 174.882 246.941 177.328 244.507C172.689 228.91 162.707 209.855 151.785 194.26C146.318 186.454 140.617 179.518 135.235 174.318C129.849 169.114 124.794 165.659 120.618 164.796C116.43 163.931 110.972 164.003 105.135 164.599C99.2988 165.195 93.0908 166.315 87.4064 167.543C81.7222 168.772 76.5628 170.109 72.8243 171.139C70.9552 171.654 69.4413 172.092 68.3949 172.402C67.8716 172.557 67.4652 172.679 67.1897 172.763C67.0519 172.805 66.9469 172.837 66.8763 172.859C66.841 172.87 66.8143 172.878 66.7965 172.883L66.7701 172.892C66.7698 172.892 66.7697 172.892 66.7439 172.809C66.718 172.727 66.7182 172.727 66.7185 172.727L66.7451 172.719C66.7631 172.713 66.7898 172.705 66.8252 172.694C66.896 172.672 67.0013 172.64 67.1392 172.598C67.4152 172.514 67.822 172.391 68.3457 172.236C69.3931 171.927 70.908 171.488 72.7783 170.973C76.5189 169.942 81.6815 168.604 87.3697 167.375C93.0577 166.145 99.2725 165.024 105.117 164.427ZM66.7439 172.809L66.718 172.727C66.6724 172.741 66.647 172.79 66.6613 172.835C66.6755 172.881 66.7241 172.906 66.7697 172.892L66.7439 172.809ZM52.7371 210.984L52.7322 210.898C52.6844 210.9 52.6479 210.941 52.6507 210.989C52.6534 211.037 52.6943 211.073 52.742 211.07L52.7371 210.984ZM166.995 251.911L166.971 251.994C166.991 252 167.012 251.999 167.03 251.99L166.995 251.911Z" fill="#12120F"/>
<path d="M123.727 246.045C118.269 251.494 109.47 246.045 109.47 246.045C101.408 223.766 98.368 202.209 99.1937 182.698C99.1937 182.698 83.218 214.456 55.792 217.951C6.95172 224.174 9.70565 168.539 9.70565 168.539L9.73594 168.542L40.0699 171.748C40.0699 171.748 69.3297 151.697 108.633 151.697C147.935 151.697 131.151 228.173 123.727 246.045Z" fill="#12120F"/>
<path fill-rule="evenodd" clip-rule="evenodd" d="M40.1194 171.819C40.1192 171.819 40.1191 171.819 40.0701 171.748L40.1191 171.819C40.1021 171.831 40.0815 171.836 40.061 171.834L9.78848 168.634C9.78773 168.653 9.78688 168.676 9.78598 168.701C9.78227 168.806 9.77754 168.961 9.77342 169.164C9.76519 169.569 9.75946 170.163 9.76949 170.916C9.78956 172.423 9.87266 174.57 10.1249 177.126C10.6293 182.24 11.81 188.991 14.514 195.545C17.2179 202.1 21.4432 208.455 28.0343 212.783C34.6242 217.111 43.5881 219.419 55.7813 217.865C69.4639 216.122 80.2966 207.326 87.713 198.957C91.4203 194.773 94.2717 190.697 96.1961 187.668C97.1583 186.154 97.8887 184.901 98.3784 184.027C98.6232 183.59 98.8079 183.248 98.9313 183.015C98.993 182.898 99.0394 182.809 99.0703 182.749C99.0858 182.719 99.0974 182.697 99.1051 182.681C99.109 182.674 99.1118 182.668 99.1138 182.664L99.1159 182.66L99.1164 182.659C99.1165 182.659 99.1166 182.659 99.1939 182.698L99.1166 182.659C99.1349 182.622 99.1762 182.604 99.2157 182.614C99.2551 182.624 99.2821 182.661 99.2804 182.701C98.4556 202.193 101.491 223.728 109.542 245.987C109.558 245.997 109.583 246.011 109.615 246.03C109.68 246.068 109.776 246.124 109.901 246.193C110.151 246.33 110.514 246.521 110.967 246.733C111.874 247.157 113.138 247.665 114.572 248.004C117.437 248.681 120.957 248.677 123.654 245.996C127.363 237.058 133.405 213.497 133.616 192.168C133.722 181.496 132.367 171.395 128.539 163.965C126.626 160.251 124.096 157.206 120.823 155.09C117.551 152.974 113.531 151.783 108.633 151.783C88.9958 151.783 71.8666 156.792 59.6458 161.802C53.5356 164.307 48.6531 166.812 45.2984 168.69C43.6211 169.629 42.3258 170.412 41.4501 170.959C41.0122 171.233 40.6792 171.448 40.4558 171.595C40.3441 171.668 40.2598 171.724 40.2035 171.762C40.1754 171.781 40.1542 171.795 40.1401 171.805C40.1331 171.809 40.1278 171.813 40.1243 171.815L40.1194 171.819ZM99.0916 183.082C99.0892 183.086 99.0868 183.091 99.0843 183.095C98.9603 183.33 98.775 183.673 98.5294 184.111C98.0384 184.988 97.3064 186.243 96.3423 187.761C94.4142 190.796 91.5575 194.878 87.8427 199.071C80.4147 207.454 69.5466 216.285 55.8032 218.037C43.5763 219.594 34.5693 217.281 27.9392 212.928C21.3104 208.575 17.0666 202.187 14.3539 195.611C11.6414 189.035 10.458 182.267 9.95259 177.143C9.69984 174.581 9.61653 172.43 9.59641 170.918C9.58636 170.163 9.5921 169.567 9.60036 169.16C9.6045 168.957 9.60926 168.801 9.61299 168.695C9.61486 168.643 9.61647 168.602 9.61762 168.576C9.61819 168.562 9.61865 168.552 9.61896 168.545L9.61932 168.537L9.61942 168.535C9.61944 168.535 9.61945 168.535 9.7059 168.539L9.61945 168.535C9.62061 168.511 9.63126 168.489 9.64895 168.474C9.66664 168.458 9.68986 168.451 9.71327 168.453L9.74355 168.455L9.7453 168.456L40.0476 171.659C40.0539 171.654 40.0612 171.649 40.0697 171.644C40.0803 171.636 40.0928 171.628 40.107 171.619C40.1638 171.58 40.2486 171.524 40.3608 171.45C40.5852 171.303 40.9192 171.087 41.3582 170.813C42.2361 170.264 43.5338 169.48 45.2137 168.539C48.5735 166.658 53.4624 164.15 59.58 161.642C71.8149 156.627 88.9669 151.61 108.633 151.61C113.56 151.61 117.614 152.809 120.917 154.945C124.22 157.081 126.769 160.151 128.693 163.886C132.54 171.353 133.895 181.488 133.789 192.169C133.578 213.534 127.524 237.132 123.807 246.078C123.803 246.088 123.797 246.098 123.789 246.106C121.028 248.861 117.427 248.856 114.532 248.172C113.084 247.83 111.808 247.317 110.894 246.889C110.437 246.675 110.07 246.483 109.817 246.344C109.691 246.274 109.593 246.218 109.527 246.179C109.494 246.16 109.468 246.144 109.451 246.134C109.443 246.129 109.436 246.125 109.432 246.122L109.427 246.119L109.425 246.118L109.425 246.118C109.425 246.118 109.425 246.118 109.437 246.099L109.425 246.118C109.408 246.108 109.396 246.092 109.389 246.074C101.377 223.932 98.3218 202.502 99.0916 183.082Z" fill="#12120F"/>
<path d="M40.0699 171.748C35.7901 174.369 9.82251 171 9.82251 171L9.73596 168.542L40.0699 171.748Z" fill="#12120F"/>
<path fill-rule="evenodd" clip-rule="evenodd" d="M9.70652 168.51C9.71569 168.501 9.72811 168.497 9.74058 168.499L40.0745 171.705C40.0929 171.707 40.1081 171.72 40.1122 171.738C40.1162 171.756 40.1084 171.775 40.0926 171.785C39.5496 172.117 38.6682 172.352 37.5476 172.511C36.4255 172.67 35.0581 172.753 33.539 172.78C30.5008 172.832 26.8521 172.657 23.3382 172.4C19.8241 172.142 16.4438 171.803 13.9421 171.528C12.6913 171.391 11.6601 171.269 10.9415 171.182C10.5822 171.139 10.3011 171.104 10.1098 171.08C10.0142 171.068 9.94099 171.059 9.8917 171.052C9.86705 171.049 9.84838 171.047 9.83587 171.045L9.81729 171.043C9.81709 171.043 9.81699 171.043 9.82257 171L9.81699 171.043C9.796 171.04 9.78007 171.022 9.77932 171.001L9.69278 168.543C9.69234 168.531 9.69735 168.518 9.70652 168.51ZM9.86453 170.962C9.87502 170.963 9.88775 170.965 9.90269 170.967C9.95192 170.973 10.0251 170.982 10.1206 170.994C10.3118 171.018 10.5928 171.053 10.9519 171.097C11.6702 171.184 12.7011 171.305 13.9516 171.442C16.4526 171.717 19.8318 172.056 23.3445 172.313C26.8574 172.571 30.5031 172.746 33.5375 172.693C35.0548 172.667 36.4182 172.584 37.5354 172.425C38.5766 172.278 39.3992 172.066 39.933 171.777L9.78102 168.59L9.86453 170.962Z" fill="#12120F"/>
<path d="M33.5089 89.9017C33.5089 89.9017 46.143 89.9294 45.9266 84.0256C45.7094 78.1218 42.4301 74.7626 44.7851 74.6771C47.14 74.5916 50.2739 76.5005 50.2029 74.5709C50.132 72.6413 59.4765 65.9238 58.3237 63.1261C57.17 60.3284 53.3948 52.0761 43.5553 56.3638C39.4823 58.1388 32.9264 60.4338 30.4044 65.2881C26.8317 72.1671 28.0123 81.5889 33.5089 89.9008V89.9017Z" fill="#12120F"/>
<path d="M212.865 47.0863H83.7599C81.0239 47.0863 78.8059 49.2998 78.8059 52.0304V79.8132C78.8059 82.5437 81.0239 84.7573 83.7599 84.7573H212.865C215.601 84.7573 217.819 82.5437 217.819 79.8132V52.0304C217.819 49.2998 215.601 47.0863 212.865 47.0863Z" fill="#12120F"/>
<path fill-rule="evenodd" clip-rule="evenodd" d="M83.7599 47.1294C81.0478 47.1294 78.8492 49.3236 78.8492 52.0303V79.8131C78.8492 82.5198 81.0478 84.714 83.7599 84.714H212.865C215.577 84.714 217.776 82.5198 217.776 79.8131V52.0303C217.776 49.3236 215.577 47.1294 212.865 47.1294H83.7599ZM78.7627 52.0303C78.7627 49.2759 81 47.043 83.7599 47.043H212.865C215.625 47.043 217.862 49.2759 217.862 52.0303V79.8131C217.862 82.5675 215.625 84.8004 212.865 84.8004H83.7599C81 84.8004 78.7627 82.5675 78.7627 79.8131V52.0303Z" fill="#12120F"/>
<path d="M207.592 47.0863H78.4872C75.7512 47.0863 73.5332 49.2998 73.5332 52.0304V79.8132C73.5332 82.5437 75.7512 84.7573 78.4872 84.7573H207.592C210.328 84.7573 212.546 82.5437 212.546 79.8132V52.0304C212.546 49.2998 210.328 47.0863 207.592 47.0863Z" fill="white"/>
<path fill-rule="evenodd" clip-rule="evenodd" d="M78.4873 47.1727C75.7991 47.1727 73.6199 49.3476 73.6199 52.0305V79.8132C73.6199 82.4961 75.7991 84.671 78.4873 84.671H207.592C210.281 84.671 212.46 82.4961 212.46 79.8132V52.0305C212.46 49.3476 210.281 47.1727 207.592 47.1727H78.4873ZM73.4468 52.0305C73.4468 49.2522 75.7035 47 78.4873 47H207.592C210.376 47 212.633 49.2522 212.633 52.0305V79.8132C212.633 82.5915 210.376 84.8438 207.592 84.8438H78.4873C75.7035 84.8438 73.4468 82.5915 73.4468 79.8132V52.0305Z" fill="#12120F"/>
<path d="M99.6248 56.7657L101.644 60.8486C101.814 61.1924 102.142 61.4299 102.522 61.4852L107.038 62.14C107.994 62.279 108.376 63.452 107.684 64.1257L104.417 67.3044C104.142 67.5721 104.016 67.9574 104.081 68.3348L104.852 72.8229C105.016 73.7739 104.015 74.4986 103.159 74.0503L99.1202 71.9315C98.7801 71.7536 98.3742 71.7536 98.0349 71.9315L93.9958 74.0503C93.1398 74.4995 92.1402 73.7739 92.3029 72.8229L93.074 68.3348C93.139 67.9574 93.0135 67.5721 92.7382 67.3044L89.4711 64.1257C88.7787 63.452 89.1604 62.279 90.1176 62.14L94.6328 61.4852C95.0127 61.4299 95.3407 61.1924 95.5112 60.8486L97.5304 56.7657C97.9579 55.9002 99.1947 55.9002 99.6222 56.7657H99.6248Z" fill="#12120F"/>
<path d="M121.984 56.7657L124.004 60.8486C124.173 61.1924 124.502 61.4299 124.882 61.4852L129.397 62.14C130.354 62.279 130.736 63.452 130.044 64.1257L126.777 67.3044C126.501 67.5721 126.376 67.9574 126.441 68.3348L127.212 72.8229C127.375 73.7739 126.375 74.4986 125.519 74.0503L121.48 71.9315C121.14 71.7536 120.734 71.7536 120.395 71.9315L116.355 74.0503C115.499 74.4995 114.5 73.7739 114.663 72.8229L115.434 68.3348C115.499 67.9574 115.373 67.5721 115.098 67.3044L111.831 64.1257C111.138 63.452 111.52 62.279 112.477 62.14L116.992 61.4852C117.372 61.4299 117.7 61.1924 117.871 60.8486L119.89 56.7657C120.318 55.9002 121.554 55.9002 121.982 56.7657H121.984Z" fill="#12120F"/>
<path d="M144.343 56.7657L146.362 60.8486C146.532 61.1924 146.86 61.4299 147.24 61.4852L151.756 62.14C152.712 62.279 153.094 63.452 152.402 64.1257L149.135 67.3044C148.86 67.5721 148.734 67.9574 148.799 68.3348L149.57 72.8229C149.734 73.7739 148.733 74.4986 147.877 74.0503L143.838 71.9315C143.498 71.7536 143.092 71.7536 142.753 71.9315L138.714 74.0503C137.858 74.4995 136.858 73.7739 137.021 72.8229L137.792 68.3348C137.857 67.9574 137.731 67.5721 137.456 67.3044L134.189 64.1257C133.497 63.452 133.878 62.279 134.836 62.14L139.351 61.4852C139.731 61.4299 140.059 61.1924 140.229 60.8486L142.248 56.7657C142.676 55.9002 143.913 55.9002 144.34 56.7657H144.343Z" fill="#12120F"/>
<path d="M166.702 56.7657L168.721 60.8486C168.891 61.1924 169.22 61.4299 169.6 61.4852L174.115 62.14C175.071 62.279 175.454 63.452 174.762 64.1257L171.494 67.3044C171.219 67.5721 171.094 67.9574 171.159 68.3348L171.93 72.8229C172.093 73.7739 171.093 74.4986 170.237 74.0503L166.198 71.9315C165.858 71.7536 165.452 71.7536 165.112 71.9315L161.073 74.0503C160.217 74.4995 159.218 73.7739 159.38 72.8229L160.151 68.3348C160.216 67.9574 160.091 67.5721 159.816 67.3044L156.549 64.1257C155.856 63.452 156.239 62.279 157.195 62.14L161.71 61.4852C162.09 61.4299 162.418 61.1924 162.589 60.8486L164.608 56.7657C165.035 55.9002 166.272 55.9002 166.7 56.7657H166.702Z" fill="#12120F"/>
<path d="M189.012 56.7657L191.031 60.8486C191.201 61.1924 191.53 61.4299 191.91 61.4852L196.425 62.14C197.381 62.279 197.764 63.452 197.071 64.1257L193.804 67.3044C193.529 67.5721 193.403 67.9574 193.468 68.3348L194.239 72.8229C194.403 73.7739 193.403 74.4986 192.547 74.0503L188.507 71.9315C188.167 71.7536 187.761 71.7536 187.422 71.9315L183.383 74.0503C182.527 74.4995 181.527 73.7739 181.69 72.8229L182.461 68.3348C182.526 67.9574 182.401 67.5721 182.125 67.3044L178.858 64.1257C178.166 63.452 178.548 62.279 179.505 62.14L184.02 61.4852C184.4 61.4299 184.728 61.1924 184.898 60.8486L186.918 56.7657C187.345 55.9002 188.582 55.9002 189.009 56.7657H189.012Z" fill="#12120F"/>
<path d="M129.672 90.6031C129.672 90.6031 138.935 77.7867 140.213 72.0867C140.81 70.4706 143.14 69.4212 143.055 71.6333C142.97 73.8453 141.236 77.645 141.236 77.645C141.236 77.645 143.734 78.9432 145.667 80.7088C148.396 83.2024 146.379 88.7883 144.76 90.2343C143.14 91.6802 139.986 88.873 139.986 88.873C139.986 88.873 138.281 93.4103 136.746 94.1756C134.189 93.4103 129.671 90.6031 129.671 90.6031H129.672Z" fill="white"/>
<path fill-rule="evenodd" clip-rule="evenodd" d="M140.297 72.1113C139.974 73.5471 139.151 75.4229 138.104 77.4246C137.054 79.4305 135.775 81.5691 134.537 83.5285C133.298 85.488 132.1 87.2692 131.211 88.5604C130.766 89.206 130.399 89.7292 130.143 90.0911C130.015 90.272 129.915 90.4126 129.847 90.508C129.827 90.5353 129.81 90.5589 129.796 90.5786C129.827 90.5978 129.867 90.6222 129.915 90.6515C130.044 90.7296 130.23 90.8421 130.461 90.9795C130.924 91.2542 131.568 91.6286 132.292 92.0267C133.728 92.8173 135.472 93.6976 136.738 94.0828C137.092 93.8943 137.465 93.4908 137.829 92.9745C138.201 92.4464 138.556 91.8117 138.864 91.1986C139.172 90.5859 139.432 89.9967 139.616 89.5605C139.707 89.3425 139.78 89.1628 139.829 89.0378C139.854 88.9752 139.873 88.9264 139.886 88.8932C139.892 88.8766 139.897 88.8639 139.9 88.8554L139.904 88.8458L139.905 88.8434L139.905 88.8427C139.905 88.8427 139.905 88.8427 139.986 88.873L139.905 88.8427C139.915 88.816 139.937 88.796 139.965 88.7891C139.993 88.7823 140.022 88.7896 140.044 88.8085L140.042 88.81C140.044 88.8085 140.044 88.8085 140.044 88.8085L140.044 88.8086L140.046 88.8103L140.052 88.8161C140.056 88.8191 140.06 88.8229 140.065 88.8276C140.069 88.8309 140.073 88.8346 140.078 88.8387C140.101 88.8586 140.136 88.8877 140.18 88.9243C140.268 88.9975 140.397 89.1006 140.556 89.22C140.875 89.4589 141.316 89.7617 141.806 90.0194C142.297 90.2776 142.832 90.4876 143.341 90.5458C143.847 90.6037 144.321 90.5104 144.702 90.1699C145.095 89.8189 145.519 89.2097 145.891 88.4487C146.262 87.6892 146.578 86.7847 146.759 85.848C147.123 83.9694 146.94 81.9886 145.608 80.7725C144.647 79.8946 143.545 79.1317 142.681 78.5879C142.249 78.3161 141.878 78.0994 141.614 77.9506C141.483 77.8763 141.378 77.8189 141.306 77.7802C141.271 77.7609 141.243 77.7462 141.225 77.7363C141.215 77.7314 141.208 77.7277 141.204 77.7253L141.198 77.7225L141.197 77.7217C141.197 77.7217 141.197 77.7216 141.237 77.645C141.158 77.6092 141.158 77.6092 141.158 77.6092L141.158 77.6091L141.158 77.6086L141.163 77.5985C141.165 77.5941 141.167 77.5884 141.17 77.5814C141.172 77.577 141.175 77.572 141.177 77.5665C141.19 77.5384 141.208 77.4966 141.232 77.4427C141.279 77.3349 141.347 77.1783 141.429 76.9834C141.592 76.5936 141.811 76.0509 142.033 75.4393C142.476 74.213 142.927 72.7213 142.968 71.63C142.989 71.0885 142.861 70.7714 142.674 70.6088C142.489 70.4478 142.221 70.4181 141.914 70.5074C141.298 70.6865 140.588 71.329 140.297 72.1113ZM141.237 77.645L141.158 77.6092C141.139 77.651 141.156 77.7004 141.197 77.7216L141.237 77.645ZM141.349 77.6067C141.361 77.6131 141.374 77.6203 141.389 77.6283C141.461 77.6675 141.567 77.7254 141.7 77.8003C141.965 77.9501 142.339 78.1683 142.773 78.4418C143.641 78.9884 144.754 79.7575 145.725 80.6451C147.124 81.9226 147.297 83.9816 146.929 85.8808C146.745 86.8331 146.424 87.752 146.046 88.5244C145.67 89.2955 145.234 89.9267 144.818 90.2987C144.389 90.6811 143.861 90.7792 143.321 90.7174C142.782 90.6558 142.225 90.4352 141.725 90.1723C141.224 89.9089 140.775 89.6004 140.452 89.3581C140.29 89.2369 140.16 89.132 140.069 89.0573C140.052 89.0432 140.037 89.0302 140.023 89.0184C140.013 89.0425 140.002 89.0702 139.99 89.1011C139.94 89.2272 139.868 89.408 139.775 89.6273C139.591 90.0658 139.329 90.6588 139.019 91.276C138.709 91.8929 138.35 92.536 137.971 93.0739C137.594 93.6089 137.189 94.0514 136.785 94.2529C136.765 94.2627 136.743 94.2647 136.722 94.2583C135.433 93.8727 133.657 92.9754 132.208 92.178C131.482 91.7787 130.837 91.4034 130.373 91.1279C130.141 90.9902 129.954 90.8774 129.825 90.799C129.761 90.7598 129.711 90.7292 129.677 90.7083C129.66 90.6979 129.647 90.69 129.639 90.6846L129.626 90.6766L129.626 90.6765C129.626 90.6764 129.626 90.6764 129.671 90.6031L129.626 90.6765C129.593 90.6561 129.577 90.6164 129.588 90.5794C129.592 90.5659 129.599 90.5539 129.608 90.5441L129.628 90.5158C129.646 90.4914 129.672 90.4552 129.706 90.4076C129.774 90.3124 129.874 90.1721 130.002 89.9914C130.258 89.6301 130.624 89.1075 131.068 88.4626C131.956 87.1726 133.153 85.3934 134.39 83.4363C135.627 81.4791 136.904 79.3448 137.95 77.3446C138.998 75.3427 139.812 73.4813 140.129 72.0679C140.13 72.0642 140.131 72.0605 140.132 72.0569C140.439 71.2255 141.191 70.5377 141.866 70.3415C142.205 70.2429 142.542 70.2647 142.788 70.4785C143.032 70.6908 143.163 71.072 143.141 71.6366" fill="#12120F"/>
<path d="M37.5765 128.851C37.5765 128.851 64.3681 145.505 97.1089 135.094C129.85 124.683 138.195 95.0344 138.195 95.0344C138.195 95.0344 139.326 88.9449 129.619 89.6678C103.338 115.601 68.7716 110.487 49.8628 98.1707" fill="#FFFF00"/>
<path fill-rule="evenodd" clip-rule="evenodd" d="M138.28 95.05C138.28 95.05 138.28 95.0501 138.252 95.0451L138.28 95.0502C138.279 95.0527 138.279 95.0553 138.278 95.0578L138.195 95.0344C138.278 95.0578 138.278 95.0579 138.278 95.0582L138.277 95.0593L138.276 95.0635L138.272 95.0799C138.267 95.0944 138.261 95.116 138.253 95.1444C138.236 95.2012 138.21 95.2855 138.175 95.3958C138.106 95.6164 138 95.9408 137.854 96.3573C137.561 97.1902 137.106 98.3911 136.458 99.8644C135.163 102.811 133.094 106.848 130 111.21C123.813 119.935 113.527 129.964 97.1352 135.176C80.745 140.388 65.8444 138.825 55.0427 135.96C49.6418 134.528 45.2649 132.77 42.2379 131.369C40.7244 130.669 39.5482 130.058 38.7501 129.622C38.3511 129.404 38.0466 129.23 37.8417 129.11C37.7392 129.05 37.6616 129.004 37.6096 128.973C37.5836 128.957 37.564 128.945 37.5508 128.937C37.5442 128.933 37.5393 128.93 37.5359 128.928L37.5321 128.926L37.5312 128.925C37.5309 128.925 37.5308 128.925 37.5765 128.851C37.6223 128.778 37.6224 128.778 37.6226 128.778L37.6234 128.779L37.627 128.781C37.6301 128.783 37.6349 128.786 37.6414 128.79C37.6542 128.798 37.6735 128.809 37.6992 128.825C37.7505 128.856 37.8274 128.902 37.9292 128.961C38.1327 129.08 38.4358 129.254 38.8332 129.471C39.6282 129.905 40.801 130.514 42.3107 131.213C45.3303 132.609 49.6976 134.364 55.0871 135.793C65.8664 138.653 80.732 140.211 97.0826 135.011C113.431 129.813 123.688 119.812 129.859 111.11C132.944 106.759 135.008 102.733 136.3 99.7949C136.946 98.326 137.399 97.1293 137.69 96.3001C137.836 95.8855 137.941 95.5629 138.01 95.3441C138.045 95.2346 138.07 95.1512 138.087 95.0952C138.092 95.0783 138.096 95.0639 138.099 95.052C138.102 95.0442 138.104 95.0376 138.105 95.032L138.108 95.0231L138.11 95.0162L138.11 95.0153C138.11 95.0152 138.11 95.0151 138.11 95.0151C138.111 95.0125 138.111 95.0085 138.112 95.0033C138.114 94.9925 138.116 94.9763 138.119 94.9548C138.125 94.912 138.132 94.8486 138.138 94.7679C138.15 94.6065 138.156 94.3759 138.133 94.1012C138.089 93.5516 137.93 92.8279 137.474 92.127C136.57 90.7351 134.471 89.3996 129.657 89.7517C103.343 115.695 68.7438 110.572 49.8155 98.2431C49.7755 98.217 49.7642 98.1635 49.7903 98.1235C49.8164 98.0836 49.8701 98.0723 49.9101 98.0984C68.794 110.398 103.313 115.504 129.558 89.6065C129.572 89.592 129.592 89.5833 129.612 89.5818C134.482 89.219 136.665 90.564 137.619 92.033C138.095 92.7642 138.259 93.5177 138.306 94.0872C138.329 94.3721 138.323 94.6117 138.311 94.7804C138.304 94.8648 138.297 94.9316 138.291 94.9776C138.288 95.0006 138.285 95.0184 138.283 95.0306C138.282 95.0367 138.281 95.0415 138.281 95.0447L138.28 95.0485L138.28 95.0496L138.28 95.05ZM37.5765 128.851L37.6223 128.778C37.5817 128.753 37.5284 128.765 37.5031 128.806C37.4778 128.846 37.4902 128.899 37.5308 128.925L37.5765 128.851Z" fill="#12120F"/>
<path fill-rule="evenodd" clip-rule="evenodd" d="M127.332 246.981C127.364 246.945 127.419 246.942 127.455 246.973C127.491 247.004 127.494 247.059 127.463 247.095L127.398 247.038L127.332 246.981ZM123.492 254.111C123.607 254.226 123.771 254.243 124.007 254.148C124.243 254.052 124.527 253.852 124.849 253.574C125.374 253.12 125.981 252.478 126.614 251.807C126.754 251.659 126.895 251.509 127.037 251.36C127.818 250.539 128.623 249.726 129.344 249.228C129.704 248.979 130.05 248.803 130.368 248.749C130.691 248.693 130.985 248.762 131.225 249.002C131.692 249.468 131.722 250.127 131.547 250.843C131.372 251.559 130.987 252.357 130.589 253.127C130.508 253.285 130.426 253.441 130.345 253.595C130.028 254.2 129.727 254.776 129.534 255.276C129.413 255.589 129.337 255.865 129.325 256.095C129.314 256.323 129.365 256.496 129.487 256.617C129.545 256.676 129.603 256.698 129.66 256.698C129.721 256.699 129.794 256.674 129.88 256.618C130.055 256.505 130.257 256.281 130.484 255.976C130.709 255.672 130.953 255.297 131.214 254.891C131.253 254.831 131.292 254.77 131.331 254.709C131.557 254.356 131.794 253.985 132.04 253.623C132.616 252.777 133.251 251.966 133.922 251.542C134.26 251.329 134.612 251.21 134.975 251.238C135.338 251.267 135.699 251.443 136.054 251.798C136.088 251.831 136.088 251.886 136.054 251.92C136.02 251.954 135.965 251.954 135.932 251.92C135.598 251.587 135.274 251.435 134.961 251.411C134.647 251.386 134.332 251.488 134.015 251.688C133.377 252.091 132.76 252.874 132.183 253.721C131.938 254.08 131.703 254.448 131.477 254.801C131.438 254.863 131.399 254.924 131.36 254.984C131.099 255.39 130.853 255.77 130.623 256.078C130.395 256.385 130.178 256.632 129.975 256.763C129.872 256.83 129.766 256.872 129.66 256.871C129.55 256.871 129.45 256.826 129.364 256.74C129.196 256.572 129.139 256.344 129.152 256.086C129.166 255.829 129.249 255.533 129.372 255.214C129.569 254.704 129.877 254.116 130.195 253.51C130.275 253.357 130.356 253.203 130.435 253.048C130.834 252.276 131.21 251.495 131.379 250.802C131.549 250.107 131.505 249.525 131.103 249.124C130.909 248.93 130.674 248.871 130.397 248.919C130.116 248.967 129.794 249.127 129.442 249.37C128.739 249.856 127.946 250.656 127.162 251.479C127.022 251.627 126.882 251.775 126.743 251.922C126.109 252.594 125.495 253.244 124.962 253.705C124.637 253.985 124.335 254.201 124.072 254.308C123.807 254.415 123.556 254.419 123.369 254.233C123.192 254.056 123.14 253.801 123.167 253.51C123.194 253.219 123.301 252.879 123.46 252.513C123.779 251.779 124.317 250.92 124.889 250.102C125.462 249.284 126.073 248.504 126.54 247.928C126.774 247.641 126.972 247.404 127.111 247.239C127.181 247.157 127.236 247.092 127.274 247.049C127.293 247.027 127.308 247.01 127.317 246.999L127.329 246.986L127.332 246.981C127.332 246.981 127.332 246.981 127.398 247.038C127.463 247.095 127.463 247.095 127.463 247.095L127.459 247.099L127.448 247.112C127.439 247.123 127.424 247.139 127.405 247.161C127.368 247.205 127.313 247.269 127.244 247.351C127.105 247.515 126.908 247.75 126.675 248.037C126.209 248.611 125.601 249.387 125.031 250.201C124.46 251.016 123.931 251.864 123.619 252.581C123.463 252.94 123.364 253.261 123.339 253.526C123.315 253.791 123.366 253.985 123.492 254.111Z" fill="#12120F"/>
<path fill-rule="evenodd" clip-rule="evenodd" d="M53.6064 172.723C53.6542 172.721 53.6943 172.758 53.6961 172.806L53.6097 172.809C53.6961 172.806 53.6961 172.806 53.6961 172.806L53.6962 172.808L53.6964 172.815C53.6966 172.82 53.6968 172.828 53.697 172.839C53.6975 172.86 53.698 172.892 53.6981 172.933C53.6984 173.014 53.6974 173.134 53.6921 173.286C53.6814 173.591 53.6536 174.027 53.5849 174.553C53.4475 175.604 53.1467 177.016 52.4921 178.46C51.1808 181.352 48.4515 184.364 42.7995 184.849C42.7519 184.853 42.71 184.818 42.7059 184.77C42.7018 184.723 42.7371 184.681 42.7847 184.677C48.3657 184.198 51.0452 181.233 52.3344 178.389C52.98 176.965 53.2774 175.57 53.4132 174.53C53.4811 174.011 53.5086 173.58 53.5191 173.28C53.5243 173.13 53.5253 173.013 53.525 172.933C53.5249 172.893 53.5244 172.863 53.524 172.843C53.5238 172.833 53.5236 172.825 53.5234 172.82L53.5232 172.814L53.5232 172.813L53.5232 172.813C53.5232 172.813 53.5236 172.813 53.5892 172.81L53.5232 172.813C53.5214 172.765 53.5586 172.725 53.6064 172.723Z" fill="#12120F"/>
<path d="M72.4741 218.406H19.2822V259.911H72.4741V218.406Z" fill="#12120F"/>
<path fill-rule="evenodd" clip-rule="evenodd" d="M19.239 218.406C19.239 218.383 19.2584 218.363 19.2823 218.363H72.4742C72.4981 218.363 72.5174 218.383 72.5174 218.406V259.912C72.5174 259.935 72.4981 259.955 72.4742 259.955H19.2823C19.2584 259.955 19.239 259.935 19.239 259.912V218.406ZM19.3256 218.45V259.868H72.4309V218.45H19.3256Z" fill="#12120F"/>
<path d="M61.2784 218.406H8.08655V259.911H61.2784V218.406Z" fill="white"/>
<path fill-rule="evenodd" clip-rule="evenodd" d="M8 218.406C8 218.359 8.03875 218.32 8.08655 218.32H61.2784C61.3262 218.32 61.365 218.359 61.365 218.406V259.912C61.365 259.959 61.3262 259.998 61.2784 259.998H8.08655C8.03875 259.998 8 259.959 8 259.912V218.406ZM8.17309 218.493V259.825H61.1919V218.493H8.17309Z" fill="#12120F"/>
</svg>
