<svg width="94" height="32" viewBox="0 0 94 32" fill="none" xmlns="http://www.w3.org/2000/svg">
<g clip-path="url(#clip0_378_884)">
<path d="M13.556 9.1839L11.3867 15.2558V9.1839H8.80762V22.7733H11.3867V15.8666L13.7906 22.7733H16.487L13.7906 15.4591L16.1938 9.1839H13.556Z" fill="black"/>
<rect x="20.7305" y="10.3784" width="1.66138" height="12.1081" fill="black"/>
<path d="M85.0829 18.3957C85.0829 18.9042 84.9627 19.3441 84.7223 19.7155C84.482 20.0868 84.1331 20.3733 83.6757 20.5751C83.226 20.7769 82.6872 20.8778 82.0592 20.8778C81.7568 20.8778 81.4661 20.8576 81.1869 20.8173C80.9156 20.785 80.6559 20.7325 80.4078 20.6599C80.1674 20.5872 79.9426 20.4984 79.7332 20.3935V18.9405C80.0821 19.102 80.4659 19.2513 80.8846 19.3885C81.3032 19.5177 81.7297 19.5823 82.1638 19.5823C82.4972 19.5823 82.7686 19.5379 82.9779 19.4491C83.195 19.3522 83.3539 19.2231 83.4547 19.0616C83.5555 18.8921 83.6059 18.6984 83.6059 18.4804C83.6059 18.2383 83.54 18.0324 83.4082 17.8629C83.2764 17.6934 83.0826 17.536 82.8267 17.3907C82.5709 17.2454 82.253 17.092 81.8731 16.9306C81.6172 16.8176 81.3653 16.6925 81.1172 16.5552C80.8768 16.4099 80.6597 16.2364 80.4659 16.0346C80.2721 15.8328 80.117 15.5947 80.0007 15.3202C79.8844 15.0458 79.8263 14.7229 79.8263 14.3516C79.8263 13.8592 79.9387 13.4354 80.1635 13.0802C80.3961 12.725 80.7179 12.4546 81.1288 12.269C81.5475 12.0833 82.032 11.9905 82.5825 11.9905C83.0244 11.9905 83.4392 12.0389 83.8269 12.1358C84.2145 12.2326 84.5983 12.3699 84.9782 12.5475L84.5014 13.7946C84.1603 13.6412 83.8307 13.5201 83.5129 13.4313C83.195 13.3426 82.8694 13.2982 82.536 13.2982C82.2724 13.2982 82.0475 13.3426 81.8615 13.4313C81.6754 13.5121 81.5358 13.6291 81.4428 13.7825C81.3498 13.9358 81.3032 14.1134 81.3032 14.3152C81.3032 14.5493 81.3614 14.7471 81.4777 14.9085C81.594 15.07 81.7723 15.2233 82.0126 15.3686C82.2607 15.5059 82.5786 15.6633 82.9663 15.8409C83.416 16.0427 83.7959 16.2525 84.106 16.4705C84.4161 16.6884 84.6565 16.9508 84.827 17.2575C84.9976 17.5642 85.0829 17.9436 85.0829 18.3957Z" fill="black"/>
<path d="M75.099 12.1116C75.8278 12.1116 76.4287 12.2044 76.9016 12.39C77.3745 12.5757 77.7273 12.8582 77.9599 13.2376C78.1925 13.6089 78.3088 14.0811 78.3088 14.6543C78.3088 15.074 78.2313 15.4332 78.0762 15.7319C77.9289 16.0306 77.7351 16.2808 77.4947 16.4826C77.2544 16.6763 76.9947 16.8337 76.7155 16.9548L79.0996 20.7567H77.4249L75.4363 17.3423H74.2268V20.7567H72.7382V12.1116H75.099ZM75.006 13.4071H74.2268V16.0709H75.0525C75.4634 16.0709 75.7968 16.0184 76.0527 15.9135C76.3085 15.8086 76.4946 15.6552 76.6109 15.4534C76.7349 15.2516 76.7969 15.0014 76.7969 14.7027C76.7969 14.3879 76.731 14.1377 76.5992 13.952C76.4674 13.7583 76.2697 13.621 76.0061 13.5403C75.7503 13.4515 75.4169 13.4071 75.006 13.4071Z" fill="black"/>
<path d="M70.975 20.7567H66.2533V12.1116H70.975V13.4071H67.7419V15.6108H70.7656V16.9064H67.7419V19.4491H70.975V20.7567Z" fill="black"/>
<path d="M64.0906 20.7567H62.2415L58.3107 13.9762H58.2641C58.2719 14.1538 58.2796 14.3435 58.2874 14.5453C58.3029 14.739 58.3145 14.9408 58.3223 15.1507C58.33 15.3525 58.3378 15.5583 58.3455 15.7682C58.3533 15.9781 58.361 16.188 58.3688 16.3978V20.7567H57.0314V12.1116H58.8689L62.7881 18.8437H62.823C62.8152 18.6822 62.8074 18.5087 62.7997 18.323C62.7919 18.1293 62.7842 17.9315 62.7764 17.7297C62.7764 17.5279 62.7726 17.3221 62.7648 17.1122C62.757 16.9023 62.7493 16.7005 62.7415 16.5068V12.1116H64.0906V20.7567Z" fill="black"/>
<path d="M53.3761 20.7567H51.8875V13.4192H49.5034V12.1116H55.7601V13.4192H53.3761V20.7567Z" fill="black"/>
<path d="M45.2413 12.1116C45.9701 12.1116 46.571 12.2044 47.0439 12.39C47.5168 12.5757 47.8696 12.8582 48.1022 13.2376C48.3348 13.6089 48.4511 14.0811 48.4511 14.6543C48.4511 15.074 48.3736 15.4332 48.2185 15.7319C48.0712 16.0306 47.8774 16.2808 47.637 16.4826C47.3967 16.6763 47.1369 16.8337 46.8578 16.9548L49.2419 20.7567H47.5672L45.5786 17.3423H44.3691V20.7567H42.8805V12.1116H45.2413ZM45.1483 13.4071H44.3691V16.0709H45.1948C45.6057 16.0709 45.9391 16.0184 46.1949 15.9135C46.4508 15.8086 46.6369 15.6552 46.7532 15.4534C46.8772 15.2516 46.9392 15.0014 46.9392 14.7027C46.9392 14.3879 46.8733 14.1377 46.7415 13.952C46.6097 13.7583 46.412 13.621 46.1484 13.5403C45.8926 13.4515 45.5592 13.4071 45.1483 13.4071Z" fill="black"/>
<path d="M40.2069 20.7567L39.4509 18.4683H36.3226L35.5783 20.7567H33.9966L37.0436 12.0752H38.7415L41.7885 20.7567H40.2069ZM38.3461 14.9085C38.3151 14.7955 38.2686 14.6422 38.2066 14.4484C38.1445 14.2547 38.0825 14.0569 38.0205 13.8551C37.9662 13.6453 37.9236 13.4717 37.8926 13.3345C37.8538 13.4959 37.8034 13.6816 37.7414 13.8915C37.6871 14.1013 37.6328 14.2991 37.5786 14.4847C37.532 14.6704 37.4933 14.8117 37.4623 14.9085L36.7296 17.1364H39.0672L38.3461 14.9085Z" fill="black"/>
<path d="M30.9341 12.1116C32.0118 12.1116 32.7949 12.3457 33.2833 12.8138C33.7795 13.282 34.0276 13.9278 34.0276 14.7511C34.0276 15.1224 33.9734 15.4776 33.8648 15.8166C33.7563 16.1476 33.5741 16.4463 33.3182 16.7126C33.0624 16.979 32.7251 17.1889 32.3064 17.3423C31.8955 17.4956 31.3838 17.5723 30.7713 17.5723H29.9456V20.7567H28.457V12.1116H30.9341ZM30.8411 13.395H29.9456V16.2889H30.6201C31.0233 16.2889 31.3644 16.2404 31.6435 16.1436C31.9304 16.0386 32.1475 15.8772 32.2948 15.6592C32.4421 15.4413 32.5158 15.1588 32.5158 14.8117C32.5158 14.3354 32.3801 13.9802 32.1087 13.7462C31.8374 13.5121 31.4148 13.395 30.8411 13.395Z" fill="black"/>
<path d="M13.7898 5.66371L15.5449 2.0036L13.6036 0.990723L11.8478 4.65084L10.9702 6.48089L12.9115 7.493L13.7898 5.66371Z" fill="black"/>
<path d="M18.0728 0V2.68928H91.4209V29.3107H2.5791V2.68928H9.22847V0H0V0.295072V2.68928V29.3107V32H91.4209H94V29.3107V2.68928V0.0894389V0H18.0728Z" fill="black"/>
</g>
<defs>
<clipPath id="clip0_378_884">
<rect width="94" height="32" fill="white"/>
</clipPath>
</defs>
</svg>
