<svg width="189" height="38" viewBox="0 0 189 38" fill="none" xmlns="http://www.w3.org/2000/svg">
<g clip-path="url(#clip0_378_196)">
<path d="M16.6659 26.8564L13.7703 18.8705V26.8564H10.6627V11.1437H13.7703V18.1634L16.3841 11.1437H19.5623L16.6667 18.3994L19.9156 26.8564H16.6667H16.6659Z" fill="#12120F"/>
<path d="M22.3192 11.1437H25.38V17.9752C25.38 18.7998 25.2854 19.8835 25.1211 20.8018L28.6995 11.1437H31.5721V26.8564H28.5114V19.978C28.5114 18.6584 28.6527 17.5748 28.7234 17.0807L25.1918 26.8573H22.3192V11.1437Z" fill="#12120F"/>
<path d="M39.4355 14.018V26.8564H36.3279V14.018H33.9032V11.1437H41.8603V14.018H39.4355Z" fill="#12120F"/>
<path d="M49.4305 26.8564L48.8413 24.218H45.7107L45.1454 26.8564H42.0378L45.7107 11.1437H48.9596L52.7262 26.8564H49.4305ZM48.3713 21.7918C48.018 20.2839 47.7353 18.7998 47.4765 17.2689C47.382 16.5857 47.2884 15.8795 47.2177 15.1963C47.0525 17.4342 46.6285 19.6015 46.1816 21.7918H48.3713Z" fill="#12120F"/>
<path d="M54.7623 11.1437H57.823V17.9752C57.823 18.7998 57.7285 19.8835 57.5642 20.8018L61.1426 11.1437H64.0143V26.8564H60.9535V19.978C60.9535 18.6584 61.0949 17.5748 61.1656 17.0807L57.634 26.8573H54.7623V11.1437Z" fill="#12120F"/>
<path d="M72.4739 19.978C71.7443 20.1663 71.0853 20.237 70.4493 20.237C69.2489 20.237 68.4247 19.9541 67.8594 19.5537C66.6113 18.6822 66.4938 17.2451 66.4938 15.9263V11.1445H69.6013V15.6435C69.6013 16.3736 69.7665 16.7271 69.9776 16.9392C70.2842 17.2451 70.8256 17.2928 71.1781 17.2928C71.6728 17.2928 72.0968 17.2221 72.4731 17.0807V11.1445H75.5806V26.8572H72.4731V19.9789L72.4739 19.978Z" fill="#12120F"/>
<path d="M78.281 26.8564V11.1437H84.52V14.0649H81.3886V17.4572H84.1428V20.4253H81.3886V23.959H84.5668V26.8564H78.281Z" fill="#12120F"/>
<path d="M92.9337 26.8564L90.0382 18.8705V26.8564H86.9306V11.1437H90.0382V18.1634L92.652 11.1437H95.8302L92.9346 18.3994L96.1835 26.8564H92.9346H92.9337Z" fill="#12120F"/>
<path d="M58.6975 6.40782L57.6393 8.52382L59.9792 9.69496L61.0366 7.57896L63.1513 3.34695L60.8122 2.1767L58.6975 6.40782Z" fill="#12120F"/>
<path d="M66.1802 0.5V3.60948H185.892V34.3905H3.10757V3.60948H55.5405V0.5H0V0.841177V3.60948V34.3905V37.5H189V34.6053V3.60948V0.5H66.1802Z" fill="#12120F"/>
<rect x="102" y="12.5" width="2" height="14" fill="#12120F"/>
<path d="M114.284 14.504C115.581 14.504 116.524 14.7747 117.112 15.316C117.709 15.8573 118.008 16.604 118.008 17.556C118.008 17.9853 117.943 18.396 117.812 18.788C117.681 19.1707 117.462 19.516 117.154 19.824C116.846 20.132 116.44 20.3747 115.936 20.552C115.441 20.7293 114.825 20.818 114.088 20.818H113.094V24.5H111.302V14.504H114.284ZM114.172 15.988H113.094V19.334H113.906C114.391 19.334 114.802 19.278 115.138 19.166C115.483 19.0447 115.745 18.858 115.922 18.606C116.099 18.354 116.188 18.0273 116.188 17.626C116.188 17.0753 116.025 16.6647 115.698 16.394C115.371 16.1233 114.863 15.988 114.172 15.988ZM125.447 24.5L124.537 21.854H120.771L119.875 24.5H117.971L121.639 14.462H123.683L127.351 24.5H125.447ZM123.207 17.738C123.169 17.6073 123.113 17.43 123.039 17.206C122.964 16.982 122.889 16.7533 122.815 16.52C122.749 16.2773 122.698 16.0767 122.661 15.918C122.614 16.1047 122.553 16.3193 122.479 16.562C122.413 16.8047 122.348 17.0333 122.283 17.248C122.227 17.4627 122.18 17.626 122.143 17.738L121.261 20.314H124.075L123.207 17.738ZM131.507 14.504C132.385 14.504 133.108 14.6113 133.677 14.826C134.247 15.0407 134.671 15.3673 134.951 15.806C135.231 16.2353 135.371 16.7813 135.371 17.444C135.371 17.9293 135.278 18.3447 135.091 18.69C134.914 19.0353 134.681 19.3247 134.391 19.558C134.102 19.782 133.789 19.964 133.453 20.104L136.323 24.5H134.307L131.913 20.552H130.457V24.5H128.665V14.504H131.507ZM131.395 16.002H130.457V19.082H131.451C131.946 19.082 132.347 19.0213 132.655 18.9C132.963 18.7787 133.187 18.6013 133.327 18.368C133.477 18.1347 133.551 17.8453 133.551 17.5C133.551 17.136 133.472 16.8467 133.313 16.632C133.155 16.408 132.917 16.2493 132.599 16.156C132.291 16.0533 131.89 16.002 131.395 16.002ZM141.3 24.5H139.508V16.016H136.638V14.504H144.17V16.016H141.3V24.5ZM154.198 24.5H151.972L147.24 16.66H147.184C147.194 16.8653 147.203 17.0847 147.212 17.318C147.231 17.542 147.245 17.7753 147.254 18.018C147.264 18.2513 147.273 18.4893 147.282 18.732C147.292 18.9747 147.301 19.2173 147.31 19.46V24.5H145.7V14.504H147.912L152.63 22.288H152.672C152.663 22.1013 152.654 21.9007 152.644 21.686C152.635 21.462 152.626 21.2333 152.616 21C152.616 20.7667 152.612 20.5287 152.602 20.286C152.593 20.0433 152.584 19.81 152.574 19.586V14.504H154.198V24.5ZM162.486 24.5H156.802V14.504H162.486V16.002H158.594V18.55H162.234V20.048H158.594V22.988H162.486V24.5ZM167.451 14.504C168.328 14.504 169.051 14.6113 169.621 14.826C170.19 15.0407 170.615 15.3673 170.895 15.806C171.175 16.2353 171.315 16.7813 171.315 17.444C171.315 17.9293 171.221 18.3447 171.035 18.69C170.857 19.0353 170.624 19.3247 170.335 19.558C170.045 19.782 169.733 19.964 169.397 20.104L172.267 24.5H170.251L167.857 20.552H166.401V24.5H164.609V14.504H167.451ZM167.339 16.002H166.401V19.082H167.395C167.889 19.082 168.291 19.0213 168.599 18.9C168.907 18.7787 169.131 18.6013 169.271 18.368C169.42 18.1347 169.495 17.8453 169.495 17.5C169.495 17.136 169.415 16.8467 169.257 16.632C169.098 16.408 168.86 16.2493 168.543 16.156C168.235 16.0533 167.833 16.002 167.339 16.002ZM179.469 21.77C179.469 22.358 179.325 22.8667 179.035 23.296C178.746 23.7253 178.326 24.0567 177.775 24.29C177.234 24.5233 176.585 24.64 175.829 24.64C175.465 24.64 175.115 24.6167 174.779 24.57C174.453 24.5327 174.14 24.472 173.841 24.388C173.552 24.304 173.281 24.2013 173.029 24.08V22.4C173.449 22.5867 173.911 22.7593 174.415 22.918C174.919 23.0673 175.433 23.142 175.955 23.142C176.357 23.142 176.683 23.0907 176.935 22.988C177.197 22.876 177.388 22.7267 177.509 22.54C177.631 22.344 177.691 22.12 177.691 21.868C177.691 21.588 177.612 21.35 177.453 21.154C177.295 20.958 177.061 20.776 176.753 20.608C176.445 20.44 176.063 20.2627 175.605 20.076C175.297 19.9453 174.994 19.8007 174.695 19.642C174.406 19.474 174.145 19.2733 173.911 19.04C173.678 18.8067 173.491 18.5313 173.351 18.214C173.211 17.8967 173.141 17.5233 173.141 17.094C173.141 16.5247 173.277 16.0347 173.547 15.624C173.827 15.2133 174.215 14.9007 174.709 14.686C175.213 14.4713 175.797 14.364 176.459 14.364C176.991 14.364 177.491 14.42 177.957 14.532C178.424 14.644 178.886 14.8027 179.343 15.008L178.769 16.45C178.359 16.2727 177.962 16.1327 177.579 16.03C177.197 15.9273 176.805 15.876 176.403 15.876C176.086 15.876 175.815 15.9273 175.591 16.03C175.367 16.1233 175.199 16.2587 175.087 16.436C174.975 16.6133 174.919 16.8187 174.919 17.052C174.919 17.3227 174.989 17.5513 175.129 17.738C175.269 17.9247 175.484 18.102 175.773 18.27C176.072 18.4287 176.455 18.6107 176.921 18.816C177.463 19.0493 177.92 19.292 178.293 19.544C178.667 19.796 178.956 20.0993 179.161 20.454C179.367 20.8087 179.469 21.2473 179.469 21.77Z" fill="#12120F"/>
</g>
<defs>
<clipPath id="clip0_378_196">
<rect width="189" height="37" fill="white" transform="translate(0 0.5)"/>
</clipPath>
</defs>
</svg>
